<svg width="582" height="150" viewBox="0 0 582 150" fill="none" xmlns="http://www.w3.org/2000/svg">
<g clip-path="url(#clip0_169_4125)">
<g filter="url(#filter0_d_169_4125)">
<path d="M35.2 87.8H44.4L40.6 29.4H39.8L35.2 87.8ZM3.2 147L24.4 4.6H61.8L78.8 147H49.4L46.2 108.2H32.8L28.4 147H3.2ZM120.023 54.8V34C120.023 27.2 118.023 25 113.423 25H110.023V63.8H113.423C118.023 63.8 120.023 61.6 120.023 54.8ZM81.8234 147V4.6H115.023C132.423 4.6 148.223 11.6 148.223 33.4V44.2C148.223 57.8 145.023 67.4 127.023 71V71.6C141.623 73 148.223 79.8 148.223 102.6V115C148.223 139.4 136.823 147 115.023 147H81.8234ZM110.023 81.4V126.6H113.423C118.023 126.6 120.023 125.4 120.023 119.8V88.2C120.023 82.6 118.023 81.4 113.423 81.4H110.023ZM155.847 123.8V27.8C155.847 8.79999 171.647 1.8 189.047 1.8C206.447 1.8 222.247 8.79999 222.247 27.8V123.8C222.247 142.8 206.447 149.8 189.047 149.8C171.647 149.8 155.847 142.8 155.847 123.8ZM194.047 119.2V32.4C194.047 28.4 193.447 23 189.047 23C184.647 23 184.047 28.4 184.047 32.4V119.2C184.047 123.2 184.647 128.6 189.047 128.6C193.447 128.6 194.047 123.2 194.047 119.2ZM296.27 4.6V123.8C296.27 142.8 280.47 149.8 263.07 149.8C245.67 149.8 229.87 142.8 229.87 123.8V4.6H258.07V119.2C258.07 123.2 258.67 128.6 263.07 128.6C267.47 128.6 268.07 123.2 268.07 119.2V4.6H296.27ZM347.494 25V147H319.294V25H300.294V4.6H366.494V25H347.494ZM433.609 147H408.209V4.6H451.609L463.809 100.2H464.209L478.209 4.6H517.609V147H492.209V42.6L491.809 42.2L474.609 147H450.409L434.009 44.2H433.609V147ZM579.564 147H526.764V4.6H579.564V25H554.964V57.6H578.564V78H554.964V126.6H579.564V147Z" fill="white"/>
</g>
</g>
<defs>
<filter id="filter0_d_169_4125" x="-96.7998" y="-94.2002" width="776.364" height="348" filterUnits="userSpaceOnUse" color-interpolation-filters="sRGB">
<feFlood flood-opacity="0" result="BackgroundImageFix"/>
<feColorMatrix in="SourceAlpha" type="matrix" values="0 0 0 0 0 0 0 0 0 0 0 0 0 0 0 0 0 0 127 0" result="hardAlpha"/>
<feOffset dy="4"/>
<feGaussianBlur stdDeviation="50"/>
<feComposite in2="hardAlpha" operator="out"/>
<feColorMatrix type="matrix" values="0 0 0 0 0 0 0 0 0 0 0 0 0 0 0 0 0 0 0.25 0"/>
<feBlend mode="normal" in2="BackgroundImageFix" result="effect1_dropShadow_169_4125"/>
<feBlend mode="normal" in="SourceGraphic" in2="effect1_dropShadow_169_4125" result="shape"/>
</filter>
<clipPath id="clip0_169_4125">
<rect width="582" height="150" fill="white"/>
</clipPath>
</defs>
</svg>
