<svg width="867" height="1304" viewBox="0 0 867 1304" fill="none" xmlns="http://www.w3.org/2000/svg">
<g clip-path="url(#clip0_169_4101)">
<rect width="867" height="1304" fill="black"/>
<g clip-path="url(#clip1_169_4101)">
<g filter="url(#filter0_d_169_4101)">
<path d="M47.801 129.2H61.601L55.901 41.6H54.701L47.801 129.2ZM-0.199023 218L31.601 4.39999H87.701L113.201 218H69.101L64.301 159.8H44.201L37.601 218H-0.199023ZM175.036 79.7V48.5C175.036 38.3 172.036 35 165.136 35H160.036V93.2H165.136C172.036 93.2 175.036 89.9 175.036 79.7ZM117.736 218V4.39999H167.536C193.636 4.39999 217.336 14.9 217.336 47.6V63.8C217.336 84.2 212.536 98.6 185.536 104V104.9C207.436 107 217.336 117.2 217.336 151.4V170C217.336 206.6 200.236 218 167.536 218H117.736ZM160.036 119.6V187.4H165.136C172.036 187.4 175.036 185.6 175.036 177.2V129.8C175.036 121.4 172.036 119.6 165.136 119.6H160.036ZM228.771 183.2V39.2C228.771 10.7 252.471 0.199993 278.571 0.199993C304.671 0.199993 328.371 10.7 328.371 39.2V183.2C328.371 211.7 304.671 222.2 278.571 222.2C252.471 222.2 228.771 211.7 228.771 183.2ZM286.071 176.3V46.1C286.071 40.1 285.171 32 278.571 32C271.971 32 271.071 40.1 271.071 46.1V176.3C271.071 182.3 271.971 190.4 278.571 190.4C285.171 190.4 286.071 182.3 286.071 176.3ZM439.406 4.39999V183.2C439.406 211.7 415.706 222.2 389.606 222.2C363.506 222.2 339.806 211.7 339.806 183.2V4.39999H382.106V176.3C382.106 182.3 383.006 190.4 389.606 190.4C396.206 190.4 397.106 182.3 397.106 176.3V4.39999H439.406ZM516.242 35V218H473.942V35H445.442V4.39999H544.742V35H516.242ZM645.415 218H607.315V4.39999H672.415L690.715 147.8H691.315L712.315 4.39999H771.415V218H733.315V61.4L732.715 60.8L706.915 218H670.615L646.015 63.8H645.415V218ZM864.347 218H785.147V4.39999H864.347V35H827.447V83.9H862.847V114.5H827.447V187.4H864.347V218Z" fill="white"/>
</g>
<g filter="url(#filter1_d_169_4101)">
<path d="M47.801 377.2H61.601L55.901 289.6H54.701L47.801 377.2ZM-0.199023 466L31.601 252.4H87.701L113.201 466H69.101L64.301 407.8H44.201L37.601 466H-0.199023ZM175.036 327.7V296.5C175.036 286.3 172.036 283 165.136 283H160.036V341.2H165.136C172.036 341.2 175.036 337.9 175.036 327.7ZM117.736 466V252.4H167.536C193.636 252.4 217.336 262.9 217.336 295.6V311.8C217.336 332.2 212.536 346.6 185.536 352V352.9C207.436 355 217.336 365.2 217.336 399.4V418C217.336 454.6 200.236 466 167.536 466H117.736ZM160.036 367.6V435.4H165.136C172.036 435.4 175.036 433.6 175.036 425.2V377.8C175.036 369.4 172.036 367.6 165.136 367.6H160.036ZM228.771 431.2V287.2C228.771 258.7 252.471 248.2 278.571 248.2C304.671 248.2 328.371 258.7 328.371 287.2V431.2C328.371 459.7 304.671 470.2 278.571 470.2C252.471 470.2 228.771 459.7 228.771 431.2ZM286.071 424.3V294.1C286.071 288.1 285.171 280 278.571 280C271.971 280 271.071 288.1 271.071 294.1V424.3C271.071 430.3 271.971 438.4 278.571 438.4C285.171 438.4 286.071 430.3 286.071 424.3ZM439.406 252.4V431.2C439.406 459.7 415.706 470.2 389.606 470.2C363.506 470.2 339.806 459.7 339.806 431.2V252.4H382.106V424.3C382.106 430.3 383.006 438.4 389.606 438.4C396.206 438.4 397.106 430.3 397.106 424.3V252.4H439.406ZM516.242 283V466H473.942V283H445.442V252.4H544.742V283H516.242ZM645.415 466H607.315V252.4H672.415L690.715 395.8H691.315L712.315 252.4H771.415V466H733.315V309.4L732.715 308.8L706.915 466H670.615L646.015 311.8H645.415V466ZM864.347 466H785.147V252.4H864.347V283H827.447V331.9H862.847V362.5H827.447V435.4H864.347V466Z" fill="white"/>
</g>
<g filter="url(#filter2_d_169_4101)">
<path d="M47.801 1121.2H61.601L55.901 1033.6H54.701L47.801 1121.2ZM-0.199023 1210L31.601 996.4H87.701L113.201 1210H69.101L64.301 1151.8H44.201L37.601 1210H-0.199023ZM175.036 1071.7V1040.5C175.036 1030.3 172.036 1027 165.136 1027H160.036V1085.2H165.136C172.036 1085.2 175.036 1081.9 175.036 1071.7ZM117.736 1210V996.4H167.536C193.636 996.4 217.336 1006.9 217.336 1039.6V1055.8C217.336 1076.2 212.536 1090.6 185.536 1096V1096.9C207.436 1099 217.336 1109.2 217.336 1143.4V1162C217.336 1198.6 200.236 1210 167.536 1210H117.736ZM160.036 1111.6V1179.4H165.136C172.036 1179.4 175.036 1177.6 175.036 1169.2V1121.8C175.036 1113.4 172.036 1111.6 165.136 1111.6H160.036ZM228.771 1175.2V1031.2C228.771 1002.7 252.471 992.2 278.571 992.2C304.671 992.2 328.371 1002.7 328.371 1031.2V1175.2C328.371 1203.7 304.671 1214.2 278.571 1214.2C252.471 1214.2 228.771 1203.7 228.771 1175.2ZM286.071 1168.3V1038.1C286.071 1032.1 285.171 1024 278.571 1024C271.971 1024 271.071 1032.1 271.071 1038.1V1168.3C271.071 1174.3 271.971 1182.4 278.571 1182.4C285.171 1182.4 286.071 1174.3 286.071 1168.3ZM439.406 996.4V1175.2C439.406 1203.7 415.706 1214.2 389.606 1214.2C363.506 1214.2 339.806 1203.7 339.806 1175.2V996.4H382.106V1168.3C382.106 1174.3 383.006 1182.4 389.606 1182.4C396.206 1182.4 397.106 1174.3 397.106 1168.3V996.4H439.406ZM516.242 1027V1210H473.942V1027H445.442V996.4H544.742V1027H516.242ZM645.415 1210H607.315V996.4H672.415L690.715 1139.8H691.315L712.315 996.4H771.415V1210H733.315V1053.4L732.715 1052.8L706.915 1210H670.615L646.015 1055.8H645.415V1210ZM864.347 1210H785.147V996.4H864.347V1027H827.447V1075.9H862.847V1106.5H827.447V1179.4H864.347V1210Z" fill="white"/>
</g>
<g filter="url(#filter3_d_169_4101)">
<path d="M47.801 1369.2H61.601L55.901 1281.6H54.701L47.801 1369.2ZM-0.199023 1458L31.601 1244.4H87.701L113.201 1458H69.101L64.301 1399.8H44.201L37.601 1458H-0.199023ZM175.036 1319.7V1288.5C175.036 1278.3 172.036 1275 165.136 1275H160.036V1333.2H165.136C172.036 1333.2 175.036 1329.9 175.036 1319.7ZM117.736 1458V1244.4H167.536C193.636 1244.4 217.336 1254.9 217.336 1287.6V1303.8C217.336 1324.2 212.536 1338.6 185.536 1344V1344.9C207.436 1347 217.336 1357.2 217.336 1391.4V1410C217.336 1446.6 200.236 1458 167.536 1458H117.736ZM160.036 1359.6V1427.4H165.136C172.036 1427.4 175.036 1425.6 175.036 1417.2V1369.8C175.036 1361.4 172.036 1359.6 165.136 1359.6H160.036ZM228.771 1423.2V1279.2C228.771 1250.7 252.471 1240.2 278.571 1240.2C304.671 1240.2 328.371 1250.7 328.371 1279.2V1423.2C328.371 1451.7 304.671 1462.2 278.571 1462.2C252.471 1462.2 228.771 1451.7 228.771 1423.2ZM286.071 1416.3V1286.1C286.071 1280.1 285.171 1272 278.571 1272C271.971 1272 271.071 1280.1 271.071 1286.1V1416.3C271.071 1422.3 271.971 1430.4 278.571 1430.4C285.171 1430.4 286.071 1422.3 286.071 1416.3ZM439.406 1244.4V1423.2C439.406 1451.7 415.706 1462.2 389.606 1462.2C363.506 1462.2 339.806 1451.7 339.806 1423.2V1244.4H382.106V1416.3C382.106 1422.3 383.006 1430.4 389.606 1430.4C396.206 1430.4 397.106 1422.3 397.106 1416.3V1244.4H439.406ZM516.242 1275V1458H473.942V1275H445.442V1244.4H544.742V1275H516.242ZM645.415 1458H607.315V1244.4H672.415L690.715 1387.8H691.315L712.315 1244.4H771.415V1458H733.315V1301.4L732.715 1300.8L706.915 1458H670.615L646.015 1303.8H645.415V1458ZM864.347 1458H785.147V1244.4H864.347V1275H827.447V1323.9H862.847V1354.5H827.447V1427.4H864.347V1458Z" fill="white"/>
</g>
<g filter="url(#filter4_d_169_4101)">
<path d="M47.801 873.2H61.601L55.901 785.6H54.701L47.801 873.2ZM-0.199023 962L31.601 748.4H87.701L113.201 962H69.101L64.301 903.8H44.201L37.601 962H-0.199023ZM175.036 823.7V792.5C175.036 782.3 172.036 779 165.136 779H160.036V837.2H165.136C172.036 837.2 175.036 833.9 175.036 823.7ZM117.736 962V748.4H167.536C193.636 748.4 217.336 758.9 217.336 791.6V807.8C217.336 828.2 212.536 842.6 185.536 848V848.9C207.436 851 217.336 861.2 217.336 895.4V914C217.336 950.6 200.236 962 167.536 962H117.736ZM160.036 863.6V931.4H165.136C172.036 931.4 175.036 929.6 175.036 921.2V873.8C175.036 865.4 172.036 863.6 165.136 863.6H160.036ZM228.771 927.2V783.2C228.771 754.7 252.471 744.2 278.571 744.2C304.671 744.2 328.371 754.7 328.371 783.2V927.2C328.371 955.7 304.671 966.2 278.571 966.2C252.471 966.2 228.771 955.7 228.771 927.2ZM286.071 920.3V790.1C286.071 784.1 285.171 776 278.571 776C271.971 776 271.071 784.1 271.071 790.1V920.3C271.071 926.3 271.971 934.4 278.571 934.4C285.171 934.4 286.071 926.3 286.071 920.3ZM439.406 748.4V927.2C439.406 955.7 415.706 966.2 389.606 966.2C363.506 966.2 339.806 955.7 339.806 927.2V748.4H382.106V920.3C382.106 926.3 383.006 934.4 389.606 934.4C396.206 934.4 397.106 926.3 397.106 920.3V748.4H439.406ZM516.242 779V962H473.942V779H445.442V748.4H544.742V779H516.242ZM645.415 962H607.315V748.4H672.415L690.715 891.8H691.315L712.315 748.4H771.415V962H733.315V805.4L732.715 804.8L706.915 962H670.615L646.015 807.8H645.415V962ZM864.347 962H785.147V748.4H864.347V779H827.447V827.9H862.847V858.5H827.447V931.4H864.347V962Z" fill="white"/>
</g>
<g filter="url(#filter5_d_169_4101)">
<path d="M47.801 625.2H61.601L55.901 537.6H54.701L47.801 625.2ZM-0.199023 714L31.601 500.4H87.701L113.201 714H69.101L64.301 655.8H44.201L37.601 714H-0.199023ZM175.036 575.7V544.5C175.036 534.3 172.036 531 165.136 531H160.036V589.2H165.136C172.036 589.2 175.036 585.9 175.036 575.7ZM117.736 714V500.4H167.536C193.636 500.4 217.336 510.9 217.336 543.6V559.8C217.336 580.2 212.536 594.6 185.536 600V600.9C207.436 603 217.336 613.2 217.336 647.4V666C217.336 702.6 200.236 714 167.536 714H117.736ZM160.036 615.6V683.4H165.136C172.036 683.4 175.036 681.6 175.036 673.2V625.8C175.036 617.4 172.036 615.6 165.136 615.6H160.036ZM228.771 679.2V535.2C228.771 506.7 252.471 496.2 278.571 496.2C304.671 496.2 328.371 506.7 328.371 535.2V679.2C328.371 707.7 304.671 718.2 278.571 718.2C252.471 718.2 228.771 707.7 228.771 679.2ZM286.071 672.3V542.1C286.071 536.1 285.171 528 278.571 528C271.971 528 271.071 536.1 271.071 542.1V672.3C271.071 678.3 271.971 686.4 278.571 686.4C285.171 686.4 286.071 678.3 286.071 672.3ZM439.406 500.4V679.2C439.406 707.7 415.706 718.2 389.606 718.2C363.506 718.2 339.806 707.7 339.806 679.2V500.4H382.106V672.3C382.106 678.3 383.006 686.4 389.606 686.4C396.206 686.4 397.106 678.3 397.106 672.3V500.4H439.406ZM516.242 531V714H473.942V531H445.442V500.4H544.742V531H516.242ZM645.415 714H607.315V500.4H672.415L690.715 643.8H691.315L712.315 500.4H771.415V714H733.315V557.4L732.715 556.8L706.915 714H670.615L646.015 559.8H645.415V714ZM864.347 714H785.147V500.4H864.347V531H827.447V579.9H862.847V610.5H827.447V683.4H864.347V714Z" fill="white"/>
</g>
<g clip-path="url(#clip2_169_4101)">
<rect width="831.073" height="831.073" transform="translate(-153.999 674.657) rotate(-45)" fill="black"/>
<g filter="url(#filter6_d_169_4101)">
<mask id="path-7-inside-1_169_4101" fill="white">
<path d="M47.801 129.2H61.601L55.901 41.6H54.701L47.801 129.2ZM-0.199023 218L31.601 4.39999H87.701L113.201 218H69.101L64.301 159.8H44.201L37.601 218H-0.199023ZM175.036 79.7V48.5C175.036 38.3 172.036 35 165.136 35H160.036V93.2H165.136C172.036 93.2 175.036 89.9 175.036 79.7ZM117.736 218V4.39999H167.536C193.636 4.39999 217.336 14.9 217.336 47.6V63.8C217.336 84.2 212.536 98.6 185.536 104V104.9C207.436 107 217.336 117.2 217.336 151.4V170C217.336 206.6 200.236 218 167.536 218H117.736ZM160.036 119.6V187.4H165.136C172.036 187.4 175.036 185.6 175.036 177.2V129.8C175.036 121.4 172.036 119.6 165.136 119.6H160.036ZM228.771 183.2V39.2C228.771 10.7 252.471 0.199993 278.571 0.199993C304.671 0.199993 328.371 10.7 328.371 39.2V183.2C328.371 211.7 304.671 222.2 278.571 222.2C252.471 222.2 228.771 211.7 228.771 183.2ZM286.071 176.3V46.1C286.071 40.1 285.171 32 278.571 32C271.971 32 271.071 40.1 271.071 46.1V176.3C271.071 182.3 271.971 190.4 278.571 190.4C285.171 190.4 286.071 182.3 286.071 176.3ZM439.406 4.39999V183.2C439.406 211.7 415.706 222.2 389.606 222.2C363.506 222.2 339.806 211.7 339.806 183.2V4.39999H382.106V176.3C382.106 182.3 383.006 190.4 389.606 190.4C396.206 190.4 397.106 182.3 397.106 176.3V4.39999H439.406ZM516.242 35V218H473.942V35H445.442V4.39999H544.742V35H516.242ZM645.415 218H607.315V4.39999H672.415L690.715 147.8H691.315L712.315 4.39999H771.415V218H733.315V61.4L732.715 60.8L706.915 218H670.615L646.015 63.8H645.415V218ZM864.347 218H785.147V4.39999H864.347V35H827.447V83.9H862.847V114.5H827.447V187.4H864.347V218Z"/>
</mask>
<path d="M47.801 129.2L46.8041 129.121L46.7191 130.2H47.801V129.2ZM61.601 129.2V130.2H62.6682L62.5989 129.135L61.601 129.2ZM55.901 41.6L56.8989 41.5351L56.838 40.6H55.901V41.6ZM54.701 41.6V40.6H53.7766L53.7041 41.5215L54.701 41.6ZM-0.199023 218L-1.18812 217.853L-1.35892 219H-0.199023V218ZM31.601 4.39999V3.39999H30.7388L30.6119 4.25274L31.601 4.39999ZM87.701 4.39999L88.6939 4.28145L88.5887 3.39999H87.701V4.39999ZM113.201 218V219H114.327L114.194 217.881L113.201 218ZM69.101 218L68.1044 218.082L68.1801 219H69.101V218ZM64.301 159.8L65.2976 159.718L65.2219 158.8H64.301V159.8ZM44.201 159.8V158.8H43.308L43.2073 159.687L44.201 159.8ZM37.601 218V219H38.494L38.5946 218.113L37.601 218ZM47.801 130.2H61.601V128.2H47.801V130.2ZM62.5989 129.135L56.8989 41.5351L54.9031 41.6649L60.6031 129.265L62.5989 129.135ZM55.901 40.6H54.701V42.6H55.901V40.6ZM53.7041 41.5215L46.8041 129.121L48.7979 129.279L55.6979 41.6785L53.7041 41.5215ZM0.790075 218.147L32.5901 4.54724L30.6119 4.25274L-1.18812 217.853L0.790075 218.147ZM31.601 5.39999H87.701V3.39999H31.601V5.39999ZM86.708 4.51854L112.208 218.119L114.194 217.881L88.6939 4.28145L86.708 4.51854ZM113.201 217H69.101V219H113.201V217ZM70.0976 217.918L65.2976 159.718L63.3044 159.882L68.1044 218.082L70.0976 217.918ZM64.301 158.8H44.201V160.8H64.301V158.8ZM43.2073 159.687L36.6073 217.887L38.5946 218.113L45.1946 159.913L43.2073 159.687ZM37.601 217H-0.199023V219H37.601V217ZM160.036 35V34H159.036V35H160.036ZM160.036 93.2H159.036V94.2H160.036V93.2ZM117.736 218H116.736V219H117.736V218ZM117.736 4.39999V3.39999H116.736V4.39999H117.736ZM185.536 104L185.34 103.019L184.536 103.18V104H185.536ZM185.536 104.9H184.536V105.809L185.441 105.895L185.536 104.9ZM160.036 119.6V118.6H159.036V119.6H160.036ZM160.036 187.4H159.036V188.4H160.036V187.4ZM176.036 79.7V48.5H174.036V79.7H176.036ZM176.036 48.5C176.036 43.3555 175.291 39.6918 173.467 37.316C171.584 34.8641 168.734 34 165.136 34V36C168.438 36 170.538 36.7859 171.88 38.534C173.281 40.3582 174.036 43.4445 174.036 48.5H176.036ZM165.136 34H160.036V36H165.136V34ZM159.036 35V93.2H161.036V35H159.036ZM160.036 94.2H165.136V92.2H160.036V94.2ZM165.136 94.2C168.734 94.2 171.584 93.3359 173.467 90.884C175.291 88.5082 176.036 84.8445 176.036 79.7H174.036C174.036 84.7555 173.281 87.8418 171.88 89.666C170.538 91.4141 168.438 92.2 165.136 92.2V94.2ZM118.736 218V4.39999H116.736V218H118.736ZM117.736 5.39999H167.536V3.39999H117.736V5.39999ZM167.536 5.39999C180.478 5.39999 192.685 8.00724 201.634 14.5449C210.529 21.0437 216.336 31.5234 216.336 47.6H218.336C218.336 30.9765 212.294 19.8563 202.814 12.93C193.387 6.04274 180.695 3.39999 167.536 3.39999V5.39999ZM216.336 47.6V63.8H218.336V47.6H216.336ZM216.336 63.8C216.336 73.9552 215.133 82.4008 210.73 88.9682C206.354 95.4975 198.687 100.35 185.34 103.019L185.732 104.981C199.385 102.25 207.619 97.2025 212.392 90.0818C217.139 82.9992 218.336 74.0448 218.336 63.8H216.336ZM184.536 104V104.9H186.536V104H184.536ZM185.441 105.895C196.263 106.933 203.874 109.948 208.843 116.705C213.858 123.524 216.336 134.349 216.336 151.4H218.336C218.336 134.251 215.864 122.876 210.454 115.52C204.998 108.102 196.709 104.967 185.632 103.905L185.441 105.895ZM216.336 151.4V170H218.336V151.4H216.336ZM216.336 170C216.336 188.167 212.091 199.824 204.035 206.977C195.951 214.155 183.811 217 167.536 217V219C183.962 219 196.721 216.145 205.363 208.473C214.031 200.776 218.336 188.433 218.336 170H216.336ZM167.536 217H117.736V219H167.536V217ZM159.036 119.6V187.4H161.036V119.6H159.036ZM160.036 188.4H165.136V186.4H160.036V188.4ZM165.136 188.4C168.604 188.4 171.437 187.966 173.355 186.182C175.288 184.384 176.036 181.461 176.036 177.2H174.036C174.036 181.339 173.284 183.516 171.993 184.718C170.685 185.934 168.568 186.4 165.136 186.4V188.4ZM176.036 177.2V129.8H174.036V177.2H176.036ZM176.036 129.8C176.036 125.539 175.288 122.616 173.355 120.818C171.437 119.034 168.604 118.6 165.136 118.6V120.6C168.568 120.6 170.685 121.066 171.993 122.282C173.284 123.484 174.036 125.661 174.036 129.8H176.036ZM165.136 118.6H160.036V120.6H165.136V118.6ZM229.771 183.2V39.2H227.771V183.2H229.771ZM229.771 39.2C229.771 25.2763 235.536 15.84 244.442 9.84192C253.404 3.80665 265.631 1.19999 278.571 1.19999V-0.800007C265.411 -0.800007 252.739 1.84333 243.325 8.18305C233.856 14.5599 227.771 24.6237 227.771 39.2H229.771ZM278.571 1.19999C291.511 1.19999 303.739 3.80665 312.7 9.84192C321.606 15.84 327.371 25.2763 327.371 39.2H329.371C329.371 24.6237 323.286 14.5599 313.817 8.18305C304.404 1.84333 291.731 -0.800007 278.571 -0.800007V1.19999ZM327.371 39.2V183.2H329.371V39.2H327.371ZM327.371 183.2C327.371 197.124 321.606 206.56 312.7 212.558C303.739 218.593 291.511 221.2 278.571 221.2V223.2C291.731 223.2 304.404 220.557 313.817 214.217C323.286 207.84 329.371 197.776 329.371 183.2H327.371ZM278.571 221.2C265.631 221.2 253.404 218.593 244.442 212.558C235.536 206.56 229.771 197.124 229.771 183.2H227.771C227.771 197.776 233.856 207.84 243.325 214.217C252.739 220.557 265.411 223.2 278.571 223.2V221.2ZM287.071 176.3V46.1H285.071V176.3H287.071ZM287.071 46.1C287.071 43.0817 286.85 39.4014 285.732 36.4461C285.169 34.958 284.356 33.5921 283.172 32.5946C281.97 31.5818 280.445 31 278.571 31V33C279.998 33 281.06 33.4307 281.883 34.1241C282.724 34.8328 283.374 35.867 283.861 37.1539C284.843 39.7486 285.071 43.1182 285.071 46.1H287.071ZM278.571 31C276.698 31 275.173 31.5818 273.971 32.5946C272.787 33.5921 271.974 34.958 271.411 36.4461C270.293 39.4014 270.071 43.0817 270.071 46.1H272.071C272.071 43.1182 272.3 39.7486 273.282 37.1539C273.768 35.867 274.418 34.8328 275.259 34.1241C276.082 33.4307 277.145 33 278.571 33V31ZM270.071 46.1V176.3H272.071V46.1H270.071ZM270.071 176.3C270.071 179.318 270.293 182.999 271.411 185.954C271.974 187.442 272.787 188.808 273.971 189.805C275.173 190.818 276.698 191.4 278.571 191.4V189.4C277.145 189.4 276.082 188.969 275.259 188.276C274.418 187.567 273.768 186.533 273.282 185.246C272.3 182.651 272.071 179.282 272.071 176.3H270.071ZM278.571 191.4C280.445 191.4 281.97 190.818 283.172 189.805C284.356 188.808 285.169 187.442 285.732 185.954C286.85 182.999 287.071 179.318 287.071 176.3H285.071C285.071 179.282 284.843 182.651 283.861 185.246C283.374 186.533 282.724 187.567 281.883 188.276C281.06 188.969 279.998 189.4 278.571 189.4V191.4ZM439.406 4.39999H440.406V3.39999H439.406V4.39999ZM339.806 4.39999V3.39999H338.806V4.39999H339.806ZM382.106 4.39999H383.106V3.39999H382.106V4.39999ZM397.106 4.39999V3.39999H396.106V4.39999H397.106ZM438.406 4.39999V183.2H440.406V4.39999H438.406ZM438.406 183.2C438.406 197.124 432.642 206.56 423.735 212.558C414.774 218.593 402.546 221.2 389.606 221.2V223.2C402.766 223.2 415.439 220.557 424.853 214.217C434.321 207.84 440.406 197.776 440.406 183.2H438.406ZM389.606 221.2C376.666 221.2 364.439 218.593 355.478 212.558C346.571 206.56 340.806 197.124 340.806 183.2H338.806C338.806 197.776 344.892 207.84 354.36 214.217C363.774 220.557 376.446 223.2 389.606 223.2V221.2ZM340.806 183.2V4.39999H338.806V183.2H340.806ZM339.806 5.39999H382.106V3.39999H339.806V5.39999ZM381.106 4.39999V176.3H383.106V4.39999H381.106ZM381.106 176.3C381.106 179.318 381.328 182.999 382.446 185.954C383.009 187.442 383.822 188.808 385.006 189.805C386.208 190.818 387.733 191.4 389.606 191.4V189.4C388.18 189.4 387.117 188.969 386.295 188.276C385.453 187.567 384.804 186.533 384.317 185.246C383.335 182.651 383.106 179.282 383.106 176.3H381.106ZM389.606 191.4C391.48 191.4 393.005 190.818 394.207 189.805C395.391 188.808 396.204 187.442 396.767 185.954C397.885 182.999 398.106 179.318 398.106 176.3H396.106C396.106 179.282 395.878 182.651 394.896 185.246C394.409 186.533 393.759 187.567 392.918 188.276C392.095 188.969 391.033 189.4 389.606 189.4V191.4ZM398.106 176.3V4.39999H396.106V176.3H398.106ZM397.106 5.39999H439.406V3.39999H397.106V5.39999ZM516.242 35V34H515.242V35H516.242ZM516.242 218V219H517.242V218H516.242ZM473.942 218H472.942V219H473.942V218ZM473.942 35H474.942V34H473.942V35ZM445.442 35H444.442V36H445.442V35ZM445.442 4.39999V3.39999H444.442V4.39999H445.442ZM544.742 4.39999H545.742V3.39999H544.742V4.39999ZM544.742 35V36H545.742V35H544.742ZM515.242 35V218H517.242V35H515.242ZM516.242 217H473.942V219H516.242V217ZM474.942 218V35H472.942V218H474.942ZM473.942 34H445.442V36H473.942V34ZM446.442 35V4.39999H444.442V35H446.442ZM445.442 5.39999H544.742V3.39999H445.442V5.39999ZM543.742 4.39999V35H545.742V4.39999H543.742ZM544.742 34H516.242V36H544.742V34ZM645.415 218V219H646.415V218H645.415ZM607.315 218H606.315V219H607.315V218ZM607.315 4.39999V3.39999H606.315V4.39999H607.315ZM672.415 4.39999L673.407 4.2734L673.295 3.39999H672.415V4.39999ZM690.715 147.8L689.723 147.927L689.834 148.8H690.715V147.8ZM691.315 147.8V148.8H692.179L692.304 147.945L691.315 147.8ZM712.315 4.39999V3.39999H711.451L711.326 4.25509L712.315 4.39999ZM771.415 4.39999H772.415V3.39999H771.415V4.39999ZM771.415 218V219H772.415V218H771.415ZM733.315 218H732.315V219H733.315V218ZM733.315 61.4H734.315V60.9858L734.022 60.6929L733.315 61.4ZM732.715 60.8L733.422 60.0929L732.044 58.7146L731.728 60.638L732.715 60.8ZM706.915 218V219H707.764L707.902 218.162L706.915 218ZM670.615 218L669.627 218.158L669.762 219H670.615V218ZM646.015 63.8L647.003 63.6424L646.868 62.8H646.015V63.8ZM645.415 63.8V62.8H644.415V63.8H645.415ZM645.415 217H607.315V219H645.415V217ZM608.315 218V4.39999H606.315V218H608.315ZM607.315 5.39999H672.415V3.39999H607.315V5.39999ZM671.423 4.52658L689.723 147.927L691.707 147.673L673.407 4.2734L671.423 4.52658ZM690.715 148.8H691.315V146.8H690.715V148.8ZM692.304 147.945L713.304 4.54489L711.326 4.25509L690.326 147.655L692.304 147.945ZM712.315 5.39999H771.415V3.39999H712.315V5.39999ZM770.415 4.39999V218H772.415V4.39999H770.415ZM771.415 217H733.315V219H771.415V217ZM734.315 218V61.4H732.315V218H734.315ZM734.022 60.6929L733.422 60.0929L732.008 61.5071L732.608 62.1071L734.022 60.6929ZM731.728 60.638L705.928 217.838L707.902 218.162L733.702 60.9619L731.728 60.638ZM706.915 217H670.615V219H706.915V217ZM671.602 217.842L647.003 63.6424L645.027 63.9575L669.627 218.158L671.602 217.842ZM646.015 62.8H645.415V64.8H646.015V62.8ZM644.415 63.8V218H646.415V63.8H644.415ZM864.347 218V219H865.347V218H864.347ZM785.147 218H784.147V219H785.147V218ZM785.147 4.39999V3.39999H784.147V4.39999H785.147ZM864.347 4.39999H865.347V3.39999H864.347V4.39999ZM864.347 35V36H865.347V35H864.347ZM827.447 35V34H826.447V35H827.447ZM827.447 83.9H826.447V84.9H827.447V83.9ZM862.847 83.9H863.847V82.9H862.847V83.9ZM862.847 114.5V115.5H863.847V114.5H862.847ZM827.447 114.5V113.5H826.447V114.5H827.447ZM827.447 187.4H826.447V188.4H827.447V187.4ZM864.347 187.4H865.347V186.4H864.347V187.4ZM864.347 217H785.147V219H864.347V217ZM786.147 218V4.39999H784.147V218H786.147ZM785.147 5.39999H864.347V3.39999H785.147V5.39999ZM863.347 4.39999V35H865.347V4.39999H863.347ZM864.347 34H827.447V36H864.347V34ZM826.447 35V83.9H828.447V35H826.447ZM827.447 84.9H862.847V82.9H827.447V84.9ZM861.847 83.9V114.5H863.847V83.9H861.847ZM862.847 113.5H827.447V115.5H862.847V113.5ZM826.447 114.5V187.4H828.447V114.5H826.447ZM827.447 188.4H864.347V186.4H827.447V188.4ZM863.347 187.4V218H865.347V187.4H863.347Z" fill="white" mask="url(#path-7-inside-1_169_4101)"/>
</g>
<g filter="url(#filter7_d_169_4101)">
<mask id="path-9-inside-2_169_4101" fill="white">
<path d="M47.801 377.2H61.601L55.901 289.6H54.701L47.801 377.2ZM-0.199023 466L31.601 252.4H87.701L113.201 466H69.101L64.301 407.8H44.201L37.601 466H-0.199023ZM175.036 327.7V296.5C175.036 286.3 172.036 283 165.136 283H160.036V341.2H165.136C172.036 341.2 175.036 337.9 175.036 327.7ZM117.736 466V252.4H167.536C193.636 252.4 217.336 262.9 217.336 295.6V311.8C217.336 332.2 212.536 346.6 185.536 352V352.9C207.436 355 217.336 365.2 217.336 399.4V418C217.336 454.6 200.236 466 167.536 466H117.736ZM160.036 367.6V435.4H165.136C172.036 435.4 175.036 433.6 175.036 425.2V377.8C175.036 369.4 172.036 367.6 165.136 367.6H160.036ZM228.771 431.2V287.2C228.771 258.7 252.471 248.2 278.571 248.2C304.671 248.2 328.371 258.7 328.371 287.2V431.2C328.371 459.7 304.671 470.2 278.571 470.2C252.471 470.2 228.771 459.7 228.771 431.2ZM286.071 424.3V294.1C286.071 288.1 285.171 280 278.571 280C271.971 280 271.071 288.1 271.071 294.1V424.3C271.071 430.3 271.971 438.4 278.571 438.4C285.171 438.4 286.071 430.3 286.071 424.3ZM439.406 252.4V431.2C439.406 459.7 415.706 470.2 389.606 470.2C363.506 470.2 339.806 459.7 339.806 431.2V252.4H382.106V424.3C382.106 430.3 383.006 438.4 389.606 438.4C396.206 438.4 397.106 430.3 397.106 424.3V252.4H439.406ZM516.242 283V466H473.942V283H445.442V252.4H544.742V283H516.242ZM645.415 466H607.315V252.4H672.415L690.715 395.8H691.315L712.315 252.4H771.415V466H733.315V309.4L732.715 308.8L706.915 466H670.615L646.015 311.8H645.415V466ZM864.347 466H785.147V252.4H864.347V283H827.447V331.9H862.847V362.5H827.447V435.4H864.347V466Z"/>
</mask>
<path d="M47.801 377.2L46.8041 377.121L46.7191 378.2H47.801V377.2ZM61.601 377.2V378.2H62.6682L62.5989 377.135L61.601 377.2ZM55.901 289.6L56.8989 289.535L56.838 288.6H55.901V289.6ZM54.701 289.6V288.6H53.7766L53.7041 289.521L54.701 289.6ZM-0.199023 466L-1.18812 465.853L-1.35892 467H-0.199023V466ZM31.601 252.4V251.4H30.7388L30.6119 252.253L31.601 252.4ZM87.701 252.4L88.6939 252.281L88.5887 251.4H87.701V252.4ZM113.201 466V467H114.327L114.194 465.881L113.201 466ZM69.101 466L68.1044 466.082L68.1801 467H69.101V466ZM64.301 407.8L65.2976 407.718L65.2219 406.8H64.301V407.8ZM44.201 407.8V406.8H43.308L43.2073 407.687L44.201 407.8ZM37.601 466V467H38.494L38.5946 466.113L37.601 466ZM47.801 378.2H61.601V376.2H47.801V378.2ZM62.5989 377.135L56.8989 289.535L54.9031 289.665L60.6031 377.265L62.5989 377.135ZM55.901 288.6H54.701V290.6H55.901V288.6ZM53.7041 289.521L46.8041 377.121L48.7979 377.279L55.6979 289.679L53.7041 289.521ZM0.790075 466.147L32.5901 252.547L30.6119 252.253L-1.18812 465.853L0.790075 466.147ZM31.601 253.4H87.701V251.4H31.601V253.4ZM86.708 252.519L112.208 466.119L114.194 465.881L88.6939 252.281L86.708 252.519ZM113.201 465H69.101V467H113.201V465ZM70.0976 465.918L65.2976 407.718L63.3044 407.882L68.1044 466.082L70.0976 465.918ZM64.301 406.8H44.201V408.8H64.301V406.8ZM43.2073 407.687L36.6073 465.887L38.5946 466.113L45.1946 407.913L43.2073 407.687ZM37.601 465H-0.199023V467H37.601V465ZM160.036 283V282H159.036V283H160.036ZM160.036 341.2H159.036V342.2H160.036V341.2ZM117.736 466H116.736V467H117.736V466ZM117.736 252.4V251.4H116.736V252.4H117.736ZM185.536 352L185.34 351.019L184.536 351.18V352H185.536ZM185.536 352.9H184.536V353.809L185.441 353.895L185.536 352.9ZM160.036 367.6V366.6H159.036V367.6H160.036ZM160.036 435.4H159.036V436.4H160.036V435.4ZM176.036 327.7V296.5H174.036V327.7H176.036ZM176.036 296.5C176.036 291.355 175.291 287.692 173.467 285.316C171.584 282.864 168.734 282 165.136 282V284C168.438 284 170.538 284.786 171.88 286.534C173.281 288.358 174.036 291.444 174.036 296.5H176.036ZM165.136 282H160.036V284H165.136V282ZM159.036 283V341.2H161.036V283H159.036ZM160.036 342.2H165.136V340.2H160.036V342.2ZM165.136 342.2C168.734 342.2 171.584 341.336 173.467 338.884C175.291 336.508 176.036 332.844 176.036 327.7H174.036C174.036 332.755 173.281 335.842 171.88 337.666C170.538 339.414 168.438 340.2 165.136 340.2V342.2ZM118.736 466V252.4H116.736V466H118.736ZM117.736 253.4H167.536V251.4H117.736V253.4ZM167.536 253.4C180.478 253.4 192.685 256.007 201.634 262.545C210.529 269.044 216.336 279.523 216.336 295.6H218.336C218.336 278.977 212.294 267.856 202.814 260.93C193.387 254.043 180.695 251.4 167.536 251.4V253.4ZM216.336 295.6V311.8H218.336V295.6H216.336ZM216.336 311.8C216.336 321.955 215.133 330.401 210.73 336.968C206.354 343.497 198.687 348.35 185.34 351.019L185.732 352.981C199.385 350.25 207.619 345.203 212.392 338.082C217.139 330.999 218.336 322.045 218.336 311.8H216.336ZM184.536 352V352.9H186.536V352H184.536ZM185.441 353.895C196.263 354.933 203.874 357.948 208.843 364.705C213.858 371.524 216.336 382.349 216.336 399.4H218.336C218.336 382.251 215.864 370.876 210.454 363.52C204.998 356.102 196.709 352.967 185.632 351.905L185.441 353.895ZM216.336 399.4V418H218.336V399.4H216.336ZM216.336 418C216.336 436.167 212.091 447.824 204.035 454.977C195.951 462.155 183.811 465 167.536 465V467C183.962 467 196.721 464.145 205.363 456.473C214.031 448.776 218.336 436.433 218.336 418H216.336ZM167.536 465H117.736V467H167.536V465ZM159.036 367.6V435.4H161.036V367.6H159.036ZM160.036 436.4H165.136V434.4H160.036V436.4ZM165.136 436.4C168.604 436.4 171.437 435.966 173.355 434.182C175.288 432.384 176.036 429.461 176.036 425.2H174.036C174.036 429.339 173.284 431.516 171.993 432.718C170.685 433.934 168.568 434.4 165.136 434.4V436.4ZM176.036 425.2V377.8H174.036V425.2H176.036ZM176.036 377.8C176.036 373.539 175.288 370.616 173.355 368.818C171.437 367.034 168.604 366.6 165.136 366.6V368.6C168.568 368.6 170.685 369.066 171.993 370.282C173.284 371.484 174.036 373.661 174.036 377.8H176.036ZM165.136 366.6H160.036V368.6H165.136V366.6ZM229.771 431.2V287.2H227.771V431.2H229.771ZM229.771 287.2C229.771 273.276 235.536 263.84 244.442 257.842C253.404 251.807 265.631 249.2 278.571 249.2V247.2C265.411 247.2 252.739 249.843 243.325 256.183C233.856 262.56 227.771 272.624 227.771 287.2H229.771ZM278.571 249.2C291.511 249.2 303.739 251.807 312.7 257.842C321.606 263.84 327.371 273.276 327.371 287.2H329.371C329.371 272.624 323.286 262.56 313.817 256.183C304.404 249.843 291.731 247.2 278.571 247.2V249.2ZM327.371 287.2V431.2H329.371V287.2H327.371ZM327.371 431.2C327.371 445.124 321.606 454.56 312.7 460.558C303.739 466.593 291.511 469.2 278.571 469.2V471.2C291.731 471.2 304.404 468.557 313.817 462.217C323.286 455.84 329.371 445.776 329.371 431.2H327.371ZM278.571 469.2C265.631 469.2 253.404 466.593 244.442 460.558C235.536 454.56 229.771 445.124 229.771 431.2H227.771C227.771 445.776 233.856 455.84 243.325 462.217C252.739 468.557 265.411 471.2 278.571 471.2V469.2ZM287.071 424.3V294.1H285.071V424.3H287.071ZM287.071 294.1C287.071 291.082 286.85 287.401 285.732 284.446C285.169 282.958 284.356 281.592 283.172 280.595C281.97 279.582 280.445 279 278.571 279V281C279.998 281 281.06 281.431 281.883 282.124C282.724 282.833 283.374 283.867 283.861 285.154C284.843 287.749 285.071 291.118 285.071 294.1H287.071ZM278.571 279C276.698 279 275.173 279.582 273.971 280.595C272.787 281.592 271.974 282.958 271.411 284.446C270.293 287.401 270.071 291.082 270.071 294.1H272.071C272.071 291.118 272.3 287.749 273.282 285.154C273.768 283.867 274.418 282.833 275.259 282.124C276.082 281.431 277.145 281 278.571 281V279ZM270.071 294.1V424.3H272.071V294.1H270.071ZM270.071 424.3C270.071 427.318 270.293 430.999 271.411 433.954C271.974 435.442 272.787 436.808 273.971 437.805C275.173 438.818 276.698 439.4 278.571 439.4V437.4C277.145 437.4 276.082 436.969 275.259 436.276C274.418 435.567 273.768 434.533 273.282 433.246C272.3 430.651 272.071 427.282 272.071 424.3H270.071ZM278.571 439.4C280.445 439.4 281.97 438.818 283.172 437.805C284.356 436.808 285.169 435.442 285.732 433.954C286.85 430.999 287.071 427.318 287.071 424.3H285.071C285.071 427.282 284.843 430.651 283.861 433.246C283.374 434.533 282.724 435.567 281.883 436.276C281.06 436.969 279.998 437.4 278.571 437.4V439.4ZM439.406 252.4H440.406V251.4H439.406V252.4ZM339.806 252.4V251.4H338.806V252.4H339.806ZM382.106 252.4H383.106V251.4H382.106V252.4ZM397.106 252.4V251.4H396.106V252.4H397.106ZM438.406 252.4V431.2H440.406V252.4H438.406ZM438.406 431.2C438.406 445.124 432.642 454.56 423.735 460.558C414.774 466.593 402.546 469.2 389.606 469.2V471.2C402.766 471.2 415.439 468.557 424.853 462.217C434.321 455.84 440.406 445.776 440.406 431.2H438.406ZM389.606 469.2C376.666 469.2 364.439 466.593 355.478 460.558C346.571 454.56 340.806 445.124 340.806 431.2H338.806C338.806 445.776 344.892 455.84 354.36 462.217C363.774 468.557 376.446 471.2 389.606 471.2V469.2ZM340.806 431.2V252.4H338.806V431.2H340.806ZM339.806 253.4H382.106V251.4H339.806V253.4ZM381.106 252.4V424.3H383.106V252.4H381.106ZM381.106 424.3C381.106 427.318 381.328 430.999 382.446 433.954C383.009 435.442 383.822 436.808 385.006 437.805C386.208 438.818 387.733 439.4 389.606 439.4V437.4C388.18 437.4 387.117 436.969 386.295 436.276C385.453 435.567 384.804 434.533 384.317 433.246C383.335 430.651 383.106 427.282 383.106 424.3H381.106ZM389.606 439.4C391.48 439.4 393.005 438.818 394.207 437.805C395.391 436.808 396.204 435.442 396.767 433.954C397.885 430.999 398.106 427.318 398.106 424.3H396.106C396.106 427.282 395.878 430.651 394.896 433.246C394.409 434.533 393.759 435.567 392.918 436.276C392.095 436.969 391.033 437.4 389.606 437.4V439.4ZM398.106 424.3V252.4H396.106V424.3H398.106ZM397.106 253.4H439.406V251.4H397.106V253.4ZM516.242 283V282H515.242V283H516.242ZM516.242 466V467H517.242V466H516.242ZM473.942 466H472.942V467H473.942V466ZM473.942 283H474.942V282H473.942V283ZM445.442 283H444.442V284H445.442V283ZM445.442 252.4V251.4H444.442V252.4H445.442ZM544.742 252.4H545.742V251.4H544.742V252.4ZM544.742 283V284H545.742V283H544.742ZM515.242 283V466H517.242V283H515.242ZM516.242 465H473.942V467H516.242V465ZM474.942 466V283H472.942V466H474.942ZM473.942 282H445.442V284H473.942V282ZM446.442 283V252.4H444.442V283H446.442ZM445.442 253.4H544.742V251.4H445.442V253.4ZM543.742 252.4V283H545.742V252.4H543.742ZM544.742 282H516.242V284H544.742V282ZM645.415 466V467H646.415V466H645.415ZM607.315 466H606.315V467H607.315V466ZM607.315 252.4V251.4H606.315V252.4H607.315ZM672.415 252.4L673.407 252.273L673.295 251.4H672.415V252.4ZM690.715 395.8L689.723 395.927L689.834 396.8H690.715V395.8ZM691.315 395.8V396.8H692.179L692.304 395.945L691.315 395.8ZM712.315 252.4V251.4H711.451L711.326 252.255L712.315 252.4ZM771.415 252.4H772.415V251.4H771.415V252.4ZM771.415 466V467H772.415V466H771.415ZM733.315 466H732.315V467H733.315V466ZM733.315 309.4H734.315V308.986L734.022 308.693L733.315 309.4ZM732.715 308.8L733.422 308.093L732.044 306.715L731.728 308.638L732.715 308.8ZM706.915 466V467H707.764L707.902 466.162L706.915 466ZM670.615 466L669.627 466.158L669.762 467H670.615V466ZM646.015 311.8L647.003 311.642L646.868 310.8H646.015V311.8ZM645.415 311.8V310.8H644.415V311.8H645.415ZM645.415 465H607.315V467H645.415V465ZM608.315 466V252.4H606.315V466H608.315ZM607.315 253.4H672.415V251.4H607.315V253.4ZM671.423 252.527L689.723 395.927L691.707 395.673L673.407 252.273L671.423 252.527ZM690.715 396.8H691.315V394.8H690.715V396.8ZM692.304 395.945L713.304 252.545L711.326 252.255L690.326 395.655L692.304 395.945ZM712.315 253.4H771.415V251.4H712.315V253.4ZM770.415 252.4V466H772.415V252.4H770.415ZM771.415 465H733.315V467H771.415V465ZM734.315 466V309.4H732.315V466H734.315ZM734.022 308.693L733.422 308.093L732.008 309.507L732.608 310.107L734.022 308.693ZM731.728 308.638L705.928 465.838L707.902 466.162L733.702 308.962L731.728 308.638ZM706.915 465H670.615V467H706.915V465ZM671.602 465.842L647.003 311.642L645.027 311.958L669.627 466.158L671.602 465.842ZM646.015 310.8H645.415V312.8H646.015V310.8ZM644.415 311.8V466H646.415V311.8H644.415ZM864.347 466V467H865.347V466H864.347ZM785.147 466H784.147V467H785.147V466ZM785.147 252.4V251.4H784.147V252.4H785.147ZM864.347 252.4H865.347V251.4H864.347V252.4ZM864.347 283V284H865.347V283H864.347ZM827.447 283V282H826.447V283H827.447ZM827.447 331.9H826.447V332.9H827.447V331.9ZM862.847 331.9H863.847V330.9H862.847V331.9ZM862.847 362.5V363.5H863.847V362.5H862.847ZM827.447 362.5V361.5H826.447V362.5H827.447ZM827.447 435.4H826.447V436.4H827.447V435.4ZM864.347 435.4H865.347V434.4H864.347V435.4ZM864.347 465H785.147V467H864.347V465ZM786.147 466V252.4H784.147V466H786.147ZM785.147 253.4H864.347V251.4H785.147V253.4ZM863.347 252.4V283H865.347V252.4H863.347ZM864.347 282H827.447V284H864.347V282ZM826.447 283V331.9H828.447V283H826.447ZM827.447 332.9H862.847V330.9H827.447V332.9ZM861.847 331.9V362.5H863.847V331.9H861.847ZM862.847 361.5H827.447V363.5H862.847V361.5ZM826.447 362.5V435.4H828.447V362.5H826.447ZM827.447 436.4H864.347V434.4H827.447V436.4ZM863.347 435.4V466H865.347V435.4H863.347Z" fill="url(#paint0_linear_169_4101)" mask="url(#path-9-inside-2_169_4101)"/>
</g>
<g filter="url(#filter8_d_169_4101)">
<mask id="path-11-inside-3_169_4101" fill="white">
<path d="M47.801 1121.2H61.601L55.901 1033.6H54.701L47.801 1121.2ZM-0.199023 1210L31.601 996.4H87.701L113.201 1210H69.101L64.301 1151.8H44.201L37.601 1210H-0.199023ZM175.036 1071.7V1040.5C175.036 1030.3 172.036 1027 165.136 1027H160.036V1085.2H165.136C172.036 1085.2 175.036 1081.9 175.036 1071.7ZM117.736 1210V996.4H167.536C193.636 996.4 217.336 1006.9 217.336 1039.6V1055.8C217.336 1076.2 212.536 1090.6 185.536 1096V1096.9C207.436 1099 217.336 1109.2 217.336 1143.4V1162C217.336 1198.6 200.236 1210 167.536 1210H117.736ZM160.036 1111.6V1179.4H165.136C172.036 1179.4 175.036 1177.6 175.036 1169.2V1121.8C175.036 1113.4 172.036 1111.6 165.136 1111.6H160.036ZM228.771 1175.2V1031.2C228.771 1002.7 252.471 992.2 278.571 992.2C304.671 992.2 328.371 1002.7 328.371 1031.2V1175.2C328.371 1203.7 304.671 1214.2 278.571 1214.2C252.471 1214.2 228.771 1203.7 228.771 1175.2ZM286.071 1168.3V1038.1C286.071 1032.1 285.171 1024 278.571 1024C271.971 1024 271.071 1032.1 271.071 1038.1V1168.3C271.071 1174.3 271.971 1182.4 278.571 1182.4C285.171 1182.4 286.071 1174.3 286.071 1168.3ZM439.406 996.4V1175.2C439.406 1203.7 415.706 1214.2 389.606 1214.2C363.506 1214.2 339.806 1203.7 339.806 1175.2V996.4H382.106V1168.3C382.106 1174.3 383.006 1182.4 389.606 1182.4C396.206 1182.4 397.106 1174.3 397.106 1168.3V996.4H439.406ZM516.242 1027V1210H473.942V1027H445.442V996.4H544.742V1027H516.242ZM645.415 1210H607.315V996.4H672.415L690.715 1139.8H691.315L712.315 996.4H771.415V1210H733.315V1053.4L732.715 1052.8L706.915 1210H670.615L646.015 1055.8H645.415V1210ZM864.347 1210H785.147V996.4H864.347V1027H827.447V1075.9H862.847V1106.5H827.447V1179.4H864.347V1210Z"/>
</mask>
<path d="M47.801 1121.2L46.8041 1121.12L46.7191 1122.2H47.801V1121.2ZM61.601 1121.2V1122.2H62.6682L62.5989 1121.14L61.601 1121.2ZM55.901 1033.6L56.8989 1033.54L56.838 1032.6H55.901V1033.6ZM54.701 1033.6V1032.6H53.7766L53.7041 1033.52L54.701 1033.6ZM-0.199023 1210L-1.18812 1209.85L-1.35892 1211H-0.199023V1210ZM31.601 996.4V995.4H30.7388L30.6119 996.253L31.601 996.4ZM87.701 996.4L88.6939 996.281L88.5887 995.4H87.701V996.4ZM113.201 1210V1211H114.327L114.194 1209.88L113.201 1210ZM69.101 1210L68.1044 1210.08L68.1801 1211H69.101V1210ZM64.301 1151.8L65.2976 1151.72L65.2219 1150.8H64.301V1151.8ZM44.201 1151.8V1150.8H43.308L43.2073 1151.69L44.201 1151.8ZM37.601 1210V1211H38.494L38.5946 1210.11L37.601 1210ZM47.801 1122.2H61.601V1120.2H47.801V1122.2ZM62.5989 1121.14L56.8989 1033.54L54.9031 1033.66L60.6031 1121.26L62.5989 1121.14ZM55.901 1032.6H54.701V1034.6H55.901V1032.6ZM53.7041 1033.52L46.8041 1121.12L48.7979 1121.28L55.6979 1033.68L53.7041 1033.52ZM0.790075 1210.15L32.5901 996.547L30.6119 996.253L-1.18812 1209.85L0.790075 1210.15ZM31.601 997.4H87.701V995.4H31.601V997.4ZM86.708 996.519L112.208 1210.12L114.194 1209.88L88.6939 996.281L86.708 996.519ZM113.201 1209H69.101V1211H113.201V1209ZM70.0976 1209.92L65.2976 1151.72L63.3044 1151.88L68.1044 1210.08L70.0976 1209.92ZM64.301 1150.8H44.201V1152.8H64.301V1150.8ZM43.2073 1151.69L36.6073 1209.89L38.5946 1210.11L45.1946 1151.91L43.2073 1151.69ZM37.601 1209H-0.199023V1211H37.601V1209ZM160.036 1027V1026H159.036V1027H160.036ZM160.036 1085.2H159.036V1086.2H160.036V1085.2ZM117.736 1210H116.736V1211H117.736V1210ZM117.736 996.4V995.4H116.736V996.4H117.736ZM185.536 1096L185.34 1095.02L184.536 1095.18V1096H185.536ZM185.536 1096.9H184.536V1097.81L185.441 1097.9L185.536 1096.9ZM160.036 1111.6V1110.6H159.036V1111.6H160.036ZM160.036 1179.4H159.036V1180.4H160.036V1179.4ZM176.036 1071.7V1040.5H174.036V1071.7H176.036ZM176.036 1040.5C176.036 1035.36 175.291 1031.69 173.467 1029.32C171.584 1026.86 168.734 1026 165.136 1026V1028C168.438 1028 170.538 1028.79 171.88 1030.53C173.281 1032.36 174.036 1035.44 174.036 1040.5H176.036ZM165.136 1026H160.036V1028H165.136V1026ZM159.036 1027V1085.2H161.036V1027H159.036ZM160.036 1086.2H165.136V1084.2H160.036V1086.2ZM165.136 1086.2C168.734 1086.2 171.584 1085.34 173.467 1082.88C175.291 1080.51 176.036 1076.84 176.036 1071.7H174.036C174.036 1076.76 173.281 1079.84 171.88 1081.67C170.538 1083.41 168.438 1084.2 165.136 1084.2V1086.2ZM118.736 1210V996.4H116.736V1210H118.736ZM117.736 997.4H167.536V995.4H117.736V997.4ZM167.536 997.4C180.478 997.4 192.685 1000.01 201.634 1006.54C210.529 1013.04 216.336 1023.52 216.336 1039.6H218.336C218.336 1022.98 212.294 1011.86 202.814 1004.93C193.387 998.043 180.695 995.4 167.536 995.4V997.4ZM216.336 1039.6V1055.8H218.336V1039.6H216.336ZM216.336 1055.8C216.336 1065.96 215.133 1074.4 210.73 1080.97C206.354 1087.5 198.687 1092.35 185.34 1095.02L185.732 1096.98C199.385 1094.25 207.619 1089.2 212.392 1082.08C217.139 1075 218.336 1066.04 218.336 1055.8H216.336ZM184.536 1096V1096.9H186.536V1096H184.536ZM185.441 1097.9C196.263 1098.93 203.874 1101.95 208.843 1108.7C213.858 1115.52 216.336 1126.35 216.336 1143.4H218.336C218.336 1126.25 215.864 1114.88 210.454 1107.52C204.998 1100.1 196.709 1096.97 185.632 1095.9L185.441 1097.9ZM216.336 1143.4V1162H218.336V1143.4H216.336ZM216.336 1162C216.336 1180.17 212.091 1191.82 204.035 1198.98C195.951 1206.15 183.811 1209 167.536 1209V1211C183.962 1211 196.721 1208.15 205.363 1200.47C214.031 1192.78 218.336 1180.43 218.336 1162H216.336ZM167.536 1209H117.736V1211H167.536V1209ZM159.036 1111.6V1179.4H161.036V1111.6H159.036ZM160.036 1180.4H165.136V1178.4H160.036V1180.4ZM165.136 1180.4C168.604 1180.4 171.437 1179.97 173.355 1178.18C175.288 1176.38 176.036 1173.46 176.036 1169.2H174.036C174.036 1173.34 173.284 1175.52 171.993 1176.72C170.685 1177.93 168.568 1178.4 165.136 1178.4V1180.4ZM176.036 1169.2V1121.8H174.036V1169.2H176.036ZM176.036 1121.8C176.036 1117.54 175.288 1114.62 173.355 1112.82C171.437 1111.03 168.604 1110.6 165.136 1110.6V1112.6C168.568 1112.6 170.685 1113.07 171.993 1114.28C173.284 1115.48 174.036 1117.66 174.036 1121.8H176.036ZM165.136 1110.6H160.036V1112.6H165.136V1110.6ZM229.771 1175.2V1031.2H227.771V1175.2H229.771ZM229.771 1031.2C229.771 1017.28 235.536 1007.84 244.442 1001.84C253.404 995.807 265.631 993.2 278.571 993.2V991.2C265.411 991.2 252.739 993.843 243.325 1000.18C233.856 1006.56 227.771 1016.62 227.771 1031.2H229.771ZM278.571 993.2C291.511 993.2 303.739 995.807 312.7 1001.84C321.606 1007.84 327.371 1017.28 327.371 1031.2H329.371C329.371 1016.62 323.286 1006.56 313.817 1000.18C304.404 993.843 291.731 991.2 278.571 991.2V993.2ZM327.371 1031.2V1175.2H329.371V1031.2H327.371ZM327.371 1175.2C327.371 1189.12 321.606 1198.56 312.7 1204.56C303.739 1210.59 291.511 1213.2 278.571 1213.2V1215.2C291.731 1215.2 304.404 1212.56 313.817 1206.22C323.286 1199.84 329.371 1189.78 329.371 1175.2H327.371ZM278.571 1213.2C265.631 1213.2 253.404 1210.59 244.442 1204.56C235.536 1198.56 229.771 1189.12 229.771 1175.2H227.771C227.771 1189.78 233.856 1199.84 243.325 1206.22C252.739 1212.56 265.411 1215.2 278.571 1215.2V1213.2ZM287.071 1168.3V1038.1H285.071V1168.3H287.071ZM287.071 1038.1C287.071 1035.08 286.85 1031.4 285.732 1028.45C285.169 1026.96 284.356 1025.59 283.172 1024.59C281.97 1023.58 280.445 1023 278.571 1023V1025C279.998 1025 281.06 1025.43 281.883 1026.12C282.724 1026.83 283.374 1027.87 283.861 1029.15C284.843 1031.75 285.071 1035.12 285.071 1038.1H287.071ZM278.571 1023C276.698 1023 275.173 1023.58 273.971 1024.59C272.787 1025.59 271.974 1026.96 271.411 1028.45C270.293 1031.4 270.071 1035.08 270.071 1038.1H272.071C272.071 1035.12 272.3 1031.75 273.282 1029.15C273.768 1027.87 274.418 1026.83 275.259 1026.12C276.082 1025.43 277.145 1025 278.571 1025V1023ZM270.071 1038.1V1168.3H272.071V1038.1H270.071ZM270.071 1168.3C270.071 1171.32 270.293 1175 271.411 1177.95C271.974 1179.44 272.787 1180.81 273.971 1181.81C275.173 1182.82 276.698 1183.4 278.571 1183.4V1181.4C277.145 1181.4 276.082 1180.97 275.259 1180.28C274.418 1179.57 273.768 1178.53 273.282 1177.25C272.3 1174.65 272.071 1171.28 272.071 1168.3H270.071ZM278.571 1183.4C280.445 1183.4 281.97 1182.82 283.172 1181.81C284.356 1180.81 285.169 1179.44 285.732 1177.95C286.85 1175 287.071 1171.32 287.071 1168.3H285.071C285.071 1171.28 284.843 1174.65 283.861 1177.25C283.374 1178.53 282.724 1179.57 281.883 1180.28C281.06 1180.97 279.998 1181.4 278.571 1181.4V1183.4ZM439.406 996.4H440.406V995.4H439.406V996.4ZM339.806 996.4V995.4H338.806V996.4H339.806ZM382.106 996.4H383.106V995.4H382.106V996.4ZM397.106 996.4V995.4H396.106V996.4H397.106ZM438.406 996.4V1175.2H440.406V996.4H438.406ZM438.406 1175.2C438.406 1189.12 432.642 1198.56 423.735 1204.56C414.774 1210.59 402.546 1213.2 389.606 1213.2V1215.2C402.766 1215.2 415.439 1212.56 424.853 1206.22C434.321 1199.84 440.406 1189.78 440.406 1175.2H438.406ZM389.606 1213.2C376.666 1213.2 364.439 1210.59 355.478 1204.56C346.571 1198.56 340.806 1189.12 340.806 1175.2H338.806C338.806 1189.78 344.892 1199.84 354.36 1206.22C363.774 1212.56 376.446 1215.2 389.606 1215.2V1213.2ZM340.806 1175.2V996.4H338.806V1175.2H340.806ZM339.806 997.4H382.106V995.4H339.806V997.4ZM381.106 996.4V1168.3H383.106V996.4H381.106ZM381.106 1168.3C381.106 1171.32 381.328 1175 382.446 1177.95C383.009 1179.44 383.822 1180.81 385.006 1181.81C386.208 1182.82 387.733 1183.4 389.606 1183.4V1181.4C388.18 1181.4 387.117 1180.97 386.295 1180.28C385.453 1179.57 384.804 1178.53 384.317 1177.25C383.335 1174.65 383.106 1171.28 383.106 1168.3H381.106ZM389.606 1183.4C391.48 1183.4 393.005 1182.82 394.207 1181.81C395.391 1180.81 396.204 1179.44 396.767 1177.95C397.885 1175 398.106 1171.32 398.106 1168.3H396.106C396.106 1171.28 395.878 1174.65 394.896 1177.25C394.409 1178.53 393.759 1179.57 392.918 1180.28C392.095 1180.97 391.033 1181.4 389.606 1181.4V1183.4ZM398.106 1168.3V996.4H396.106V1168.3H398.106ZM397.106 997.4H439.406V995.4H397.106V997.4ZM516.242 1027V1026H515.242V1027H516.242ZM516.242 1210V1211H517.242V1210H516.242ZM473.942 1210H472.942V1211H473.942V1210ZM473.942 1027H474.942V1026H473.942V1027ZM445.442 1027H444.442V1028H445.442V1027ZM445.442 996.4V995.4H444.442V996.4H445.442ZM544.742 996.4H545.742V995.4H544.742V996.4ZM544.742 1027V1028H545.742V1027H544.742ZM515.242 1027V1210H517.242V1027H515.242ZM516.242 1209H473.942V1211H516.242V1209ZM474.942 1210V1027H472.942V1210H474.942ZM473.942 1026H445.442V1028H473.942V1026ZM446.442 1027V996.4H444.442V1027H446.442ZM445.442 997.4H544.742V995.4H445.442V997.4ZM543.742 996.4V1027H545.742V996.4H543.742ZM544.742 1026H516.242V1028H544.742V1026ZM645.415 1210V1211H646.415V1210H645.415ZM607.315 1210H606.315V1211H607.315V1210ZM607.315 996.4V995.4H606.315V996.4H607.315ZM672.415 996.4L673.407 996.273L673.295 995.4H672.415V996.4ZM690.715 1139.8L689.723 1139.93L689.834 1140.8H690.715V1139.8ZM691.315 1139.8V1140.8H692.179L692.304 1139.94L691.315 1139.8ZM712.315 996.4V995.4H711.451L711.326 996.255L712.315 996.4ZM771.415 996.4H772.415V995.4H771.415V996.4ZM771.415 1210V1211H772.415V1210H771.415ZM733.315 1210H732.315V1211H733.315V1210ZM733.315 1053.4H734.315V1052.99L734.022 1052.69L733.315 1053.4ZM732.715 1052.8L733.422 1052.09L732.044 1050.71L731.728 1052.64L732.715 1052.8ZM706.915 1210V1211H707.764L707.902 1210.16L706.915 1210ZM670.615 1210L669.627 1210.16L669.762 1211H670.615V1210ZM646.015 1055.8L647.003 1055.64L646.868 1054.8H646.015V1055.8ZM645.415 1055.8V1054.8H644.415V1055.8H645.415ZM645.415 1209H607.315V1211H645.415V1209ZM608.315 1210V996.4H606.315V1210H608.315ZM607.315 997.4H672.415V995.4H607.315V997.4ZM671.423 996.527L689.723 1139.93L691.707 1139.67L673.407 996.273L671.423 996.527ZM690.715 1140.8H691.315V1138.8H690.715V1140.8ZM692.304 1139.94L713.304 996.545L711.326 996.255L690.326 1139.66L692.304 1139.94ZM712.315 997.4H771.415V995.4H712.315V997.4ZM770.415 996.4V1210H772.415V996.4H770.415ZM771.415 1209H733.315V1211H771.415V1209ZM734.315 1210V1053.4H732.315V1210H734.315ZM734.022 1052.69L733.422 1052.09L732.008 1053.51L732.608 1054.11L734.022 1052.69ZM731.728 1052.64L705.928 1209.84L707.902 1210.16L733.702 1052.96L731.728 1052.64ZM706.915 1209H670.615V1211H706.915V1209ZM671.602 1209.84L647.003 1055.64L645.027 1055.96L669.627 1210.16L671.602 1209.84ZM646.015 1054.8H645.415V1056.8H646.015V1054.8ZM644.415 1055.8V1210H646.415V1055.8H644.415ZM864.347 1210V1211H865.347V1210H864.347ZM785.147 1210H784.147V1211H785.147V1210ZM785.147 996.4V995.4H784.147V996.4H785.147ZM864.347 996.4H865.347V995.4H864.347V996.4ZM864.347 1027V1028H865.347V1027H864.347ZM827.447 1027V1026H826.447V1027H827.447ZM827.447 1075.9H826.447V1076.9H827.447V1075.9ZM862.847 1075.9H863.847V1074.9H862.847V1075.9ZM862.847 1106.5V1107.5H863.847V1106.5H862.847ZM827.447 1106.5V1105.5H826.447V1106.5H827.447ZM827.447 1179.4H826.447V1180.4H827.447V1179.4ZM864.347 1179.4H865.347V1178.4H864.347V1179.4ZM864.347 1209H785.147V1211H864.347V1209ZM786.147 1210V996.4H784.147V1210H786.147ZM785.147 997.4H864.347V995.4H785.147V997.4ZM863.347 996.4V1027H865.347V996.4H863.347ZM864.347 1026H827.447V1028H864.347V1026ZM826.447 1027V1075.9H828.447V1027H826.447ZM827.447 1076.9H862.847V1074.9H827.447V1076.9ZM861.847 1075.9V1106.5H863.847V1075.9H861.847ZM862.847 1105.5H827.447V1107.5H862.847V1105.5ZM826.447 1106.5V1179.4H828.447V1106.5H826.447ZM827.447 1180.4H864.347V1178.4H827.447V1180.4ZM863.347 1179.4V1210H865.347V1179.4H863.347Z" fill="white" mask="url(#path-11-inside-3_169_4101)"/>
</g>
<g filter="url(#filter9_d_169_4101)">
<mask id="path-13-inside-4_169_4101" fill="white">
<path d="M47.801 874.2H61.601L55.901 786.6H54.701L47.801 874.2ZM-0.199023 963L31.601 749.4H87.701L113.201 963H69.101L64.301 904.8H44.201L37.601 963H-0.199023ZM175.036 824.7V793.5C175.036 783.3 172.036 780 165.136 780H160.036V838.2H165.136C172.036 838.2 175.036 834.9 175.036 824.7ZM117.736 963V749.4H167.536C193.636 749.4 217.336 759.9 217.336 792.6V808.8C217.336 829.2 212.536 843.6 185.536 849V849.9C207.436 852 217.336 862.2 217.336 896.4V915C217.336 951.6 200.236 963 167.536 963H117.736ZM160.036 864.6V932.4H165.136C172.036 932.4 175.036 930.6 175.036 922.2V874.8C175.036 866.4 172.036 864.6 165.136 864.6H160.036ZM228.771 928.2V784.2C228.771 755.7 252.471 745.2 278.571 745.2C304.671 745.2 328.371 755.7 328.371 784.2V928.2C328.371 956.7 304.671 967.2 278.571 967.2C252.471 967.2 228.771 956.7 228.771 928.2ZM286.071 921.3V791.1C286.071 785.1 285.171 777 278.571 777C271.971 777 271.071 785.1 271.071 791.1V921.3C271.071 927.3 271.971 935.4 278.571 935.4C285.171 935.4 286.071 927.3 286.071 921.3ZM439.406 749.4V928.2C439.406 956.7 415.706 967.2 389.606 967.2C363.506 967.2 339.806 956.7 339.806 928.2V749.4H382.106V921.3C382.106 927.3 383.006 935.4 389.606 935.4C396.206 935.4 397.106 927.3 397.106 921.3V749.4H439.406ZM516.242 780V963H473.942V780H445.442V749.4H544.742V780H516.242ZM645.415 963H607.315V749.4H672.415L690.715 892.8H691.315L712.315 749.4H771.415V963H733.315V806.4L732.715 805.8L706.915 963H670.615L646.015 808.8H645.415V963ZM864.347 963H785.147V749.4H864.347V780H827.447V828.9H862.847V859.5H827.447V932.4H864.347V963Z"/>
</mask>
<path d="M47.801 874.2L46.8041 874.121L46.7191 875.2H47.801V874.2ZM61.601 874.2V875.2H62.6682L62.5989 874.135L61.601 874.2ZM55.901 786.6L56.8989 786.535L56.838 785.6H55.901V786.6ZM54.701 786.6V785.6H53.7766L53.7041 786.521L54.701 786.6ZM-0.199023 963L-1.18812 962.853L-1.35892 964H-0.199023V963ZM31.601 749.4V748.4H30.7388L30.6119 749.253L31.601 749.4ZM87.701 749.4L88.6939 749.281L88.5887 748.4H87.701V749.4ZM113.201 963V964H114.327L114.194 962.881L113.201 963ZM69.101 963L68.1044 963.082L68.1801 964H69.101V963ZM64.301 904.8L65.2976 904.718L65.2219 903.8H64.301V904.8ZM44.201 904.8V903.8H43.308L43.2073 904.687L44.201 904.8ZM37.601 963V964H38.494L38.5946 963.113L37.601 963ZM47.801 875.2H61.601V873.2H47.801V875.2ZM62.5989 874.135L56.8989 786.535L54.9031 786.665L60.6031 874.265L62.5989 874.135ZM55.901 785.6H54.701V787.6H55.901V785.6ZM53.7041 786.521L46.8041 874.121L48.7979 874.279L55.6979 786.679L53.7041 786.521ZM0.790075 963.147L32.5901 749.547L30.6119 749.253L-1.18812 962.853L0.790075 963.147ZM31.601 750.4H87.701V748.4H31.601V750.4ZM86.708 749.519L112.208 963.119L114.194 962.881L88.6939 749.281L86.708 749.519ZM113.201 962H69.101V964H113.201V962ZM70.0976 962.918L65.2976 904.718L63.3044 904.882L68.1044 963.082L70.0976 962.918ZM64.301 903.8H44.201V905.8H64.301V903.8ZM43.2073 904.687L36.6073 962.887L38.5946 963.113L45.1946 904.913L43.2073 904.687ZM37.601 962H-0.199023V964H37.601V962ZM160.036 780V779H159.036V780H160.036ZM160.036 838.2H159.036V839.2H160.036V838.2ZM117.736 963H116.736V964H117.736V963ZM117.736 749.4V748.4H116.736V749.4H117.736ZM185.536 849L185.34 848.019L184.536 848.18V849H185.536ZM185.536 849.9H184.536V850.809L185.441 850.895L185.536 849.9ZM160.036 864.6V863.6H159.036V864.6H160.036ZM160.036 932.4H159.036V933.4H160.036V932.4ZM176.036 824.7V793.5H174.036V824.7H176.036ZM176.036 793.5C176.036 788.355 175.291 784.692 173.467 782.316C171.584 779.864 168.734 779 165.136 779V781C168.438 781 170.538 781.786 171.88 783.534C173.281 785.358 174.036 788.444 174.036 793.5H176.036ZM165.136 779H160.036V781H165.136V779ZM159.036 780V838.2H161.036V780H159.036ZM160.036 839.2H165.136V837.2H160.036V839.2ZM165.136 839.2C168.734 839.2 171.584 838.336 173.467 835.884C175.291 833.508 176.036 829.844 176.036 824.7H174.036C174.036 829.755 173.281 832.842 171.88 834.666C170.538 836.414 168.438 837.2 165.136 837.2V839.2ZM118.736 963V749.4H116.736V963H118.736ZM117.736 750.4H167.536V748.4H117.736V750.4ZM167.536 750.4C180.478 750.4 192.685 753.007 201.634 759.545C210.529 766.044 216.336 776.523 216.336 792.6H218.336C218.336 775.977 212.294 764.856 202.814 757.93C193.387 751.043 180.695 748.4 167.536 748.4V750.4ZM216.336 792.6V808.8H218.336V792.6H216.336ZM216.336 808.8C216.336 818.955 215.133 827.401 210.73 833.968C206.354 840.497 198.687 845.35 185.34 848.019L185.732 849.981C199.385 847.25 207.619 842.203 212.392 835.082C217.139 827.999 218.336 819.045 218.336 808.8H216.336ZM184.536 849V849.9H186.536V849H184.536ZM185.441 850.895C196.263 851.933 203.874 854.948 208.843 861.705C213.858 868.524 216.336 879.349 216.336 896.4H218.336C218.336 879.251 215.864 867.876 210.454 860.52C204.998 853.102 196.709 849.967 185.632 848.905L185.441 850.895ZM216.336 896.4V915H218.336V896.4H216.336ZM216.336 915C216.336 933.167 212.091 944.824 204.035 951.977C195.951 959.155 183.811 962 167.536 962V964C183.962 964 196.721 961.145 205.363 953.473C214.031 945.776 218.336 933.433 218.336 915H216.336ZM167.536 962H117.736V964H167.536V962ZM159.036 864.6V932.4H161.036V864.6H159.036ZM160.036 933.4H165.136V931.4H160.036V933.4ZM165.136 933.4C168.604 933.4 171.437 932.966 173.355 931.182C175.288 929.384 176.036 926.461 176.036 922.2H174.036C174.036 926.339 173.284 928.516 171.993 929.718C170.685 930.934 168.568 931.4 165.136 931.4V933.4ZM176.036 922.2V874.8H174.036V922.2H176.036ZM176.036 874.8C176.036 870.539 175.288 867.616 173.355 865.818C171.437 864.034 168.604 863.6 165.136 863.6V865.6C168.568 865.6 170.685 866.066 171.993 867.282C173.284 868.484 174.036 870.661 174.036 874.8H176.036ZM165.136 863.6H160.036V865.6H165.136V863.6ZM229.771 928.2V784.2H227.771V928.2H229.771ZM229.771 784.2C229.771 770.276 235.536 760.84 244.442 754.842C253.404 748.807 265.631 746.2 278.571 746.2V744.2C265.411 744.2 252.739 746.843 243.325 753.183C233.856 759.56 227.771 769.624 227.771 784.2H229.771ZM278.571 746.2C291.511 746.2 303.739 748.807 312.7 754.842C321.606 760.84 327.371 770.276 327.371 784.2H329.371C329.371 769.624 323.286 759.56 313.817 753.183C304.404 746.843 291.731 744.2 278.571 744.2V746.2ZM327.371 784.2V928.2H329.371V784.2H327.371ZM327.371 928.2C327.371 942.124 321.606 951.56 312.7 957.558C303.739 963.593 291.511 966.2 278.571 966.2V968.2C291.731 968.2 304.404 965.557 313.817 959.217C323.286 952.84 329.371 942.776 329.371 928.2H327.371ZM278.571 966.2C265.631 966.2 253.404 963.593 244.442 957.558C235.536 951.56 229.771 942.124 229.771 928.2H227.771C227.771 942.776 233.856 952.84 243.325 959.217C252.739 965.557 265.411 968.2 278.571 968.2V966.2ZM287.071 921.3V791.1H285.071V921.3H287.071ZM287.071 791.1C287.071 788.082 286.85 784.401 285.732 781.446C285.169 779.958 284.356 778.592 283.172 777.595C281.97 776.582 280.445 776 278.571 776V778C279.998 778 281.06 778.431 281.883 779.124C282.724 779.833 283.374 780.867 283.861 782.154C284.843 784.749 285.071 788.118 285.071 791.1H287.071ZM278.571 776C276.698 776 275.173 776.582 273.971 777.595C272.787 778.592 271.974 779.958 271.411 781.446C270.293 784.401 270.071 788.082 270.071 791.1H272.071C272.071 788.118 272.3 784.749 273.282 782.154C273.768 780.867 274.418 779.833 275.259 779.124C276.082 778.431 277.145 778 278.571 778V776ZM270.071 791.1V921.3H272.071V791.1H270.071ZM270.071 921.3C270.071 924.318 270.293 927.999 271.411 930.954C271.974 932.442 272.787 933.808 273.971 934.805C275.173 935.818 276.698 936.4 278.571 936.4V934.4C277.145 934.4 276.082 933.969 275.259 933.276C274.418 932.567 273.768 931.533 273.282 930.246C272.3 927.651 272.071 924.282 272.071 921.3H270.071ZM278.571 936.4C280.445 936.4 281.97 935.818 283.172 934.805C284.356 933.808 285.169 932.442 285.732 930.954C286.85 927.999 287.071 924.318 287.071 921.3H285.071C285.071 924.282 284.843 927.651 283.861 930.246C283.374 931.533 282.724 932.567 281.883 933.276C281.06 933.969 279.998 934.4 278.571 934.4V936.4ZM439.406 749.4H440.406V748.4H439.406V749.4ZM339.806 749.4V748.4H338.806V749.4H339.806ZM382.106 749.4H383.106V748.4H382.106V749.4ZM397.106 749.4V748.4H396.106V749.4H397.106ZM438.406 749.4V928.2H440.406V749.4H438.406ZM438.406 928.2C438.406 942.124 432.642 951.56 423.735 957.558C414.774 963.593 402.546 966.2 389.606 966.2V968.2C402.766 968.2 415.439 965.557 424.853 959.217C434.321 952.84 440.406 942.776 440.406 928.2H438.406ZM389.606 966.2C376.666 966.2 364.439 963.593 355.478 957.558C346.571 951.56 340.806 942.124 340.806 928.2H338.806C338.806 942.776 344.892 952.84 354.36 959.217C363.774 965.557 376.446 968.2 389.606 968.2V966.2ZM340.806 928.2V749.4H338.806V928.2H340.806ZM339.806 750.4H382.106V748.4H339.806V750.4ZM381.106 749.4V921.3H383.106V749.4H381.106ZM381.106 921.3C381.106 924.318 381.328 927.999 382.446 930.954C383.009 932.442 383.822 933.808 385.006 934.805C386.208 935.818 387.733 936.4 389.606 936.4V934.4C388.18 934.4 387.117 933.969 386.295 933.276C385.453 932.567 384.804 931.533 384.317 930.246C383.335 927.651 383.106 924.282 383.106 921.3H381.106ZM389.606 936.4C391.48 936.4 393.005 935.818 394.207 934.805C395.391 933.808 396.204 932.442 396.767 930.954C397.885 927.999 398.106 924.318 398.106 921.3H396.106C396.106 924.282 395.878 927.651 394.896 930.246C394.409 931.533 393.759 932.567 392.918 933.276C392.095 933.969 391.033 934.4 389.606 934.4V936.4ZM398.106 921.3V749.4H396.106V921.3H398.106ZM397.106 750.4H439.406V748.4H397.106V750.4ZM516.242 780V779H515.242V780H516.242ZM516.242 963V964H517.242V963H516.242ZM473.942 963H472.942V964H473.942V963ZM473.942 780H474.942V779H473.942V780ZM445.442 780H444.442V781H445.442V780ZM445.442 749.4V748.4H444.442V749.4H445.442ZM544.742 749.4H545.742V748.4H544.742V749.4ZM544.742 780V781H545.742V780H544.742ZM515.242 780V963H517.242V780H515.242ZM516.242 962H473.942V964H516.242V962ZM474.942 963V780H472.942V963H474.942ZM473.942 779H445.442V781H473.942V779ZM446.442 780V749.4H444.442V780H446.442ZM445.442 750.4H544.742V748.4H445.442V750.4ZM543.742 749.4V780H545.742V749.4H543.742ZM544.742 779H516.242V781H544.742V779ZM645.415 963V964H646.415V963H645.415ZM607.315 963H606.315V964H607.315V963ZM607.315 749.4V748.4H606.315V749.4H607.315ZM672.415 749.4L673.407 749.273L673.295 748.4H672.415V749.4ZM690.715 892.8L689.723 892.927L689.834 893.8H690.715V892.8ZM691.315 892.8V893.8H692.179L692.304 892.945L691.315 892.8ZM712.315 749.4V748.4H711.451L711.326 749.255L712.315 749.4ZM771.415 749.4H772.415V748.4H771.415V749.4ZM771.415 963V964H772.415V963H771.415ZM733.315 963H732.315V964H733.315V963ZM733.315 806.4H734.315V805.986L734.022 805.693L733.315 806.4ZM732.715 805.8L733.422 805.093L732.044 803.715L731.728 805.638L732.715 805.8ZM706.915 963V964H707.764L707.902 963.162L706.915 963ZM670.615 963L669.627 963.158L669.762 964H670.615V963ZM646.015 808.8L647.003 808.642L646.868 807.8H646.015V808.8ZM645.415 808.8V807.8H644.415V808.8H645.415ZM645.415 962H607.315V964H645.415V962ZM608.315 963V749.4H606.315V963H608.315ZM607.315 750.4H672.415V748.4H607.315V750.4ZM671.423 749.527L689.723 892.927L691.707 892.673L673.407 749.273L671.423 749.527ZM690.715 893.8H691.315V891.8H690.715V893.8ZM692.304 892.945L713.304 749.545L711.326 749.255L690.326 892.655L692.304 892.945ZM712.315 750.4H771.415V748.4H712.315V750.4ZM770.415 749.4V963H772.415V749.4H770.415ZM771.415 962H733.315V964H771.415V962ZM734.315 963V806.4H732.315V963H734.315ZM734.022 805.693L733.422 805.093L732.008 806.507L732.608 807.107L734.022 805.693ZM731.728 805.638L705.928 962.838L707.902 963.162L733.702 805.962L731.728 805.638ZM706.915 962H670.615V964H706.915V962ZM671.602 962.842L647.003 808.642L645.027 808.958L669.627 963.158L671.602 962.842ZM646.015 807.8H645.415V809.8H646.015V807.8ZM644.415 808.8V963H646.415V808.8H644.415ZM864.347 963V964H865.347V963H864.347ZM785.147 963H784.147V964H785.147V963ZM785.147 749.4V748.4H784.147V749.4H785.147ZM864.347 749.4H865.347V748.4H864.347V749.4ZM864.347 780V781H865.347V780H864.347ZM827.447 780V779H826.447V780H827.447ZM827.447 828.9H826.447V829.9H827.447V828.9ZM862.847 828.9H863.847V827.9H862.847V828.9ZM862.847 859.5V860.5H863.847V859.5H862.847ZM827.447 859.5V858.5H826.447V859.5H827.447ZM827.447 932.4H826.447V933.4H827.447V932.4ZM864.347 932.4H865.347V931.4H864.347V932.4ZM864.347 962H785.147V964H864.347V962ZM786.147 963V749.4H784.147V963H786.147ZM785.147 750.4H864.347V748.4H785.147V750.4ZM863.347 749.4V780H865.347V749.4H863.347ZM864.347 779H827.447V781H864.347V779ZM826.447 780V828.9H828.447V780H826.447ZM827.447 829.9H862.847V827.9H827.447V829.9ZM861.847 828.9V859.5H863.847V828.9H861.847ZM862.847 858.5H827.447V860.5H862.847V858.5ZM826.447 859.5V932.4H828.447V859.5H826.447ZM827.447 933.4H864.347V931.4H827.447V933.4ZM863.347 932.4V963H865.347V932.4H863.347Z" fill="url(#paint1_linear_169_4101)" mask="url(#path-13-inside-4_169_4101)"/>
</g>
<g filter="url(#filter10_d_169_4101)">
<path d="M47.801 708.2H61.601L55.901 620.6H54.701L47.801 708.2ZM-0.199023 797L31.601 583.4H87.701L113.201 797H69.101L64.301 738.8H44.201L37.601 797H-0.199023ZM175.036 658.7V627.5C175.036 617.3 172.036 614 165.136 614H160.036V672.2H165.136C172.036 672.2 175.036 668.9 175.036 658.7ZM117.736 797V583.4H167.536C193.636 583.4 217.336 593.9 217.336 626.6V642.8C217.336 663.2 212.536 677.6 185.536 683V683.9C207.436 686 217.336 696.2 217.336 730.4V749C217.336 785.6 200.236 797 167.536 797H117.736ZM160.036 698.6V766.4H165.136C172.036 766.4 175.036 764.6 175.036 756.2V708.8C175.036 700.4 172.036 698.6 165.136 698.6H160.036ZM228.771 762.2V618.2C228.771 589.7 252.471 579.2 278.571 579.2C304.671 579.2 328.371 589.7 328.371 618.2V762.2C328.371 790.7 304.671 801.2 278.571 801.2C252.471 801.2 228.771 790.7 228.771 762.2ZM286.071 755.3V625.1C286.071 619.1 285.171 611 278.571 611C271.971 611 271.071 619.1 271.071 625.1V755.3C271.071 761.3 271.971 769.4 278.571 769.4C285.171 769.4 286.071 761.3 286.071 755.3ZM439.406 583.4V762.2C439.406 790.7 415.706 801.2 389.606 801.2C363.506 801.2 339.806 790.7 339.806 762.2V583.4H382.106V755.3C382.106 761.3 383.006 769.4 389.606 769.4C396.206 769.4 397.106 761.3 397.106 755.3V583.4H439.406ZM516.242 614V797H473.942V614H445.442V583.4H544.742V614H516.242ZM645.415 797H607.315V583.4H672.415L690.715 726.8H691.315L712.315 583.4H771.415V797H733.315V640.4L732.715 639.8L706.915 797H670.615L646.015 642.8H645.415V797ZM864.347 797H785.147V583.4H864.347V614H827.447V662.9H862.847V693.5H827.447V766.4H864.347V797Z" fill="white"/>
</g>
</g>
</g>
</g>
<defs>
<filter id="filter0_d_169_4101" x="-100.199" y="-95.8" width="1064.55" height="422" filterUnits="userSpaceOnUse" color-interpolation-filters="sRGB">
<feFlood flood-opacity="0" result="BackgroundImageFix"/>
<feColorMatrix in="SourceAlpha" type="matrix" values="0 0 0 0 0 0 0 0 0 0 0 0 0 0 0 0 0 0 127 0" result="hardAlpha"/>
<feOffset dy="4"/>
<feGaussianBlur stdDeviation="50"/>
<feComposite in2="hardAlpha" operator="out"/>
<feColorMatrix type="matrix" values="0 0 0 0 0 0 0 0 0 0 0 0 0 0 0 0 0 0 0.25 0"/>
<feBlend mode="normal" in2="BackgroundImageFix" result="effect1_dropShadow_169_4101"/>
<feBlend mode="normal" in="SourceGraphic" in2="effect1_dropShadow_169_4101" result="shape"/>
</filter>
<filter id="filter1_d_169_4101" x="-100.199" y="152.2" width="1064.55" height="422" filterUnits="userSpaceOnUse" color-interpolation-filters="sRGB">
<feFlood flood-opacity="0" result="BackgroundImageFix"/>
<feColorMatrix in="SourceAlpha" type="matrix" values="0 0 0 0 0 0 0 0 0 0 0 0 0 0 0 0 0 0 127 0" result="hardAlpha"/>
<feOffset dy="4"/>
<feGaussianBlur stdDeviation="50"/>
<feComposite in2="hardAlpha" operator="out"/>
<feColorMatrix type="matrix" values="0 0 0 0 0 0 0 0 0 0 0 0 0 0 0 0 0 0 0.25 0"/>
<feBlend mode="normal" in2="BackgroundImageFix" result="effect1_dropShadow_169_4101"/>
<feBlend mode="normal" in="SourceGraphic" in2="effect1_dropShadow_169_4101" result="shape"/>
</filter>
<filter id="filter2_d_169_4101" x="-100.199" y="896.2" width="1064.55" height="422" filterUnits="userSpaceOnUse" color-interpolation-filters="sRGB">
<feFlood flood-opacity="0" result="BackgroundImageFix"/>
<feColorMatrix in="SourceAlpha" type="matrix" values="0 0 0 0 0 0 0 0 0 0 0 0 0 0 0 0 0 0 127 0" result="hardAlpha"/>
<feOffset dy="4"/>
<feGaussianBlur stdDeviation="50"/>
<feComposite in2="hardAlpha" operator="out"/>
<feColorMatrix type="matrix" values="0 0 0 0 0 0 0 0 0 0 0 0 0 0 0 0 0 0 0.25 0"/>
<feBlend mode="normal" in2="BackgroundImageFix" result="effect1_dropShadow_169_4101"/>
<feBlend mode="normal" in="SourceGraphic" in2="effect1_dropShadow_169_4101" result="shape"/>
</filter>
<filter id="filter3_d_169_4101" x="-100.199" y="1144.2" width="1064.55" height="422" filterUnits="userSpaceOnUse" color-interpolation-filters="sRGB">
<feFlood flood-opacity="0" result="BackgroundImageFix"/>
<feColorMatrix in="SourceAlpha" type="matrix" values="0 0 0 0 0 0 0 0 0 0 0 0 0 0 0 0 0 0 127 0" result="hardAlpha"/>
<feOffset dy="4"/>
<feGaussianBlur stdDeviation="50"/>
<feComposite in2="hardAlpha" operator="out"/>
<feColorMatrix type="matrix" values="0 0 0 0 0 0 0 0 0 0 0 0 0 0 0 0 0 0 0.25 0"/>
<feBlend mode="normal" in2="BackgroundImageFix" result="effect1_dropShadow_169_4101"/>
<feBlend mode="normal" in="SourceGraphic" in2="effect1_dropShadow_169_4101" result="shape"/>
</filter>
<filter id="filter4_d_169_4101" x="-100.199" y="648.2" width="1064.55" height="422" filterUnits="userSpaceOnUse" color-interpolation-filters="sRGB">
<feFlood flood-opacity="0" result="BackgroundImageFix"/>
<feColorMatrix in="SourceAlpha" type="matrix" values="0 0 0 0 0 0 0 0 0 0 0 0 0 0 0 0 0 0 127 0" result="hardAlpha"/>
<feOffset dy="4"/>
<feGaussianBlur stdDeviation="50"/>
<feComposite in2="hardAlpha" operator="out"/>
<feColorMatrix type="matrix" values="0 0 0 0 0 0 0 0 0 0 0 0 0 0 0 0 0 0 0.25 0"/>
<feBlend mode="normal" in2="BackgroundImageFix" result="effect1_dropShadow_169_4101"/>
<feBlend mode="normal" in="SourceGraphic" in2="effect1_dropShadow_169_4101" result="shape"/>
</filter>
<filter id="filter5_d_169_4101" x="-100.199" y="400.2" width="1064.55" height="422" filterUnits="userSpaceOnUse" color-interpolation-filters="sRGB">
<feFlood flood-opacity="0" result="BackgroundImageFix"/>
<feColorMatrix in="SourceAlpha" type="matrix" values="0 0 0 0 0 0 0 0 0 0 0 0 0 0 0 0 0 0 127 0" result="hardAlpha"/>
<feOffset dy="4"/>
<feGaussianBlur stdDeviation="50"/>
<feComposite in2="hardAlpha" operator="out"/>
<feColorMatrix type="matrix" values="0 0 0 0 0 0 0 0 0 0 0 0 0 0 0 0 0 0 0.25 0"/>
<feBlend mode="normal" in2="BackgroundImageFix" result="effect1_dropShadow_169_4101"/>
<feBlend mode="normal" in="SourceGraphic" in2="effect1_dropShadow_169_4101" result="shape"/>
</filter>
<filter id="filter6_d_169_4101" x="-100.199" y="-95.8" width="1064.55" height="422" filterUnits="userSpaceOnUse" color-interpolation-filters="sRGB">
<feFlood flood-opacity="0" result="BackgroundImageFix"/>
<feColorMatrix in="SourceAlpha" type="matrix" values="0 0 0 0 0 0 0 0 0 0 0 0 0 0 0 0 0 0 127 0" result="hardAlpha"/>
<feOffset dy="4"/>
<feGaussianBlur stdDeviation="50"/>
<feComposite in2="hardAlpha" operator="out"/>
<feColorMatrix type="matrix" values="0 0 0 0 0 0 0 0 0 0 0 0 0 0 0 0 0 0 0.25 0"/>
<feBlend mode="normal" in2="BackgroundImageFix" result="effect1_dropShadow_169_4101"/>
<feBlend mode="normal" in="SourceGraphic" in2="effect1_dropShadow_169_4101" result="shape"/>
</filter>
<filter id="filter7_d_169_4101" x="-100.199" y="152.2" width="1064.55" height="422" filterUnits="userSpaceOnUse" color-interpolation-filters="sRGB">
<feFlood flood-opacity="0" result="BackgroundImageFix"/>
<feColorMatrix in="SourceAlpha" type="matrix" values="0 0 0 0 0 0 0 0 0 0 0 0 0 0 0 0 0 0 127 0" result="hardAlpha"/>
<feOffset dy="4"/>
<feGaussianBlur stdDeviation="50"/>
<feComposite in2="hardAlpha" operator="out"/>
<feColorMatrix type="matrix" values="0 0 0 0 0 0 0 0 0 0 0 0 0 0 0 0 0 0 0.25 0"/>
<feBlend mode="normal" in2="BackgroundImageFix" result="effect1_dropShadow_169_4101"/>
<feBlend mode="normal" in="SourceGraphic" in2="effect1_dropShadow_169_4101" result="shape"/>
</filter>
<filter id="filter8_d_169_4101" x="-100.199" y="896.2" width="1064.55" height="422" filterUnits="userSpaceOnUse" color-interpolation-filters="sRGB">
<feFlood flood-opacity="0" result="BackgroundImageFix"/>
<feColorMatrix in="SourceAlpha" type="matrix" values="0 0 0 0 0 0 0 0 0 0 0 0 0 0 0 0 0 0 127 0" result="hardAlpha"/>
<feOffset dy="4"/>
<feGaussianBlur stdDeviation="50"/>
<feComposite in2="hardAlpha" operator="out"/>
<feColorMatrix type="matrix" values="0 0 0 0 0 0 0 0 0 0 0 0 0 0 0 0 0 0 0.25 0"/>
<feBlend mode="normal" in2="BackgroundImageFix" result="effect1_dropShadow_169_4101"/>
<feBlend mode="normal" in="SourceGraphic" in2="effect1_dropShadow_169_4101" result="shape"/>
</filter>
<filter id="filter9_d_169_4101" x="-100.199" y="649.2" width="1064.55" height="422" filterUnits="userSpaceOnUse" color-interpolation-filters="sRGB">
<feFlood flood-opacity="0" result="BackgroundImageFix"/>
<feColorMatrix in="SourceAlpha" type="matrix" values="0 0 0 0 0 0 0 0 0 0 0 0 0 0 0 0 0 0 127 0" result="hardAlpha"/>
<feOffset dy="4"/>
<feGaussianBlur stdDeviation="50"/>
<feComposite in2="hardAlpha" operator="out"/>
<feColorMatrix type="matrix" values="0 0 0 0 0 0 0 0 0 0 0 0 0 0 0 0 0 0 0.25 0"/>
<feBlend mode="normal" in2="BackgroundImageFix" result="effect1_dropShadow_169_4101"/>
<feBlend mode="normal" in="SourceGraphic" in2="effect1_dropShadow_169_4101" result="shape"/>
</filter>
<filter id="filter10_d_169_4101" x="-100.199" y="483.2" width="1064.55" height="422" filterUnits="userSpaceOnUse" color-interpolation-filters="sRGB">
<feFlood flood-opacity="0" result="BackgroundImageFix"/>
<feColorMatrix in="SourceAlpha" type="matrix" values="0 0 0 0 0 0 0 0 0 0 0 0 0 0 0 0 0 0 127 0" result="hardAlpha"/>
<feOffset dy="4"/>
<feGaussianBlur stdDeviation="50"/>
<feComposite in2="hardAlpha" operator="out"/>
<feColorMatrix type="matrix" values="0 0 0 0 0 0 0 0 0 0 0 0 0 0 0 0 0 0 0.25 0"/>
<feBlend mode="normal" in2="BackgroundImageFix" result="effect1_dropShadow_169_4101"/>
<feBlend mode="normal" in="SourceGraphic" in2="effect1_dropShadow_169_4101" result="shape"/>
</filter>
<linearGradient id="paint0_linear_169_4101" x1="434.501" y1="179" x2="434.501" y2="510" gradientUnits="userSpaceOnUse">
<stop stop-color="white"/>
<stop offset="0.68"/>
</linearGradient>
<linearGradient id="paint1_linear_169_4101" x1="434.501" y1="676" x2="434.501" y2="1007" gradientUnits="userSpaceOnUse">
<stop offset="0.54"/>
<stop offset="1" stop-color="#9D9D9D"/>
</linearGradient>
<clipPath id="clip0_169_4101">
<rect width="867" height="1304" fill="white"/>
</clipPath>
<clipPath id="clip1_169_4101">
<rect width="1400.76" height="1400.76" fill="white" transform="translate(434.485 -547) rotate(45)"/>
</clipPath>
<clipPath id="clip2_169_4101">
<rect width="831.073" height="831.073" fill="white" transform="translate(-153.999 674.657) rotate(-45)"/>
</clipPath>
</defs>
</svg>
