<svg width="867" height="1304" viewBox="0 0 867 1304" fill="none" xmlns="http://www.w3.org/2000/svg">
<g clip-path="url(#clip0_219_4108)">
<rect width="867" height="1304" fill="#222222"/>
<g clip-path="url(#clip1_219_4108)">
<g filter="url(#filter0_d_219_4108)">
<path d="M47.801 129.2H61.601L55.901 41.6H54.701L47.801 129.2ZM-0.199023 218L31.601 4.39999H87.701L113.201 218H69.101L64.301 159.8H44.201L37.601 218H-0.199023ZM175.036 79.7V48.5C175.036 38.3 172.036 35 165.136 35H160.036V93.2H165.136C172.036 93.2 175.036 89.9 175.036 79.7ZM117.736 218V4.39999H167.536C193.636 4.39999 217.336 14.9 217.336 47.6V63.8C217.336 84.2 212.536 98.6 185.536 104V104.9C207.436 107 217.336 117.2 217.336 151.4V170C217.336 206.6 200.236 218 167.536 218H117.736ZM160.036 119.6V187.4H165.136C172.036 187.4 175.036 185.6 175.036 177.2V129.8C175.036 121.4 172.036 119.6 165.136 119.6H160.036ZM228.771 183.2V39.2C228.771 10.7 252.471 0.199993 278.571 0.199993C304.671 0.199993 328.371 10.7 328.371 39.2V183.2C328.371 211.7 304.671 222.2 278.571 222.2C252.471 222.2 228.771 211.7 228.771 183.2ZM286.071 176.3V46.1C286.071 40.1 285.171 32 278.571 32C271.971 32 271.071 40.1 271.071 46.1V176.3C271.071 182.3 271.971 190.4 278.571 190.4C285.171 190.4 286.071 182.3 286.071 176.3ZM439.406 4.39999V183.2C439.406 211.7 415.706 222.2 389.606 222.2C363.506 222.2 339.806 211.7 339.806 183.2V4.39999H382.106V176.3C382.106 182.3 383.006 190.4 389.606 190.4C396.206 190.4 397.106 182.3 397.106 176.3V4.39999H439.406ZM516.242 35V218H473.942V35H445.442V4.39999H544.742V35H516.242ZM645.415 218H607.315V4.39999H672.415L690.715 147.8H691.315L712.315 4.39999H771.415V218H733.315V61.4L732.715 60.8L706.915 218H670.615L646.015 63.8H645.415V218ZM864.347 218H785.147V4.39999H864.347V35H827.447V83.9H862.847V114.5H827.447V187.4H864.347V218Z" fill="white"/>
</g>
<g filter="url(#filter1_d_219_4108)">
<path d="M47.801 377.2H61.601L55.901 289.6H54.701L47.801 377.2ZM-0.199023 466L31.601 252.4H87.701L113.201 466H69.101L64.301 407.8H44.201L37.601 466H-0.199023ZM175.036 327.7V296.5C175.036 286.3 172.036 283 165.136 283H160.036V341.2H165.136C172.036 341.2 175.036 337.9 175.036 327.7ZM117.736 466V252.4H167.536C193.636 252.4 217.336 262.9 217.336 295.6V311.8C217.336 332.2 212.536 346.6 185.536 352V352.9C207.436 355 217.336 365.2 217.336 399.4V418C217.336 454.6 200.236 466 167.536 466H117.736ZM160.036 367.6V435.4H165.136C172.036 435.4 175.036 433.6 175.036 425.2V377.8C175.036 369.4 172.036 367.6 165.136 367.6H160.036ZM228.771 431.2V287.2C228.771 258.7 252.471 248.2 278.571 248.2C304.671 248.2 328.371 258.7 328.371 287.2V431.2C328.371 459.7 304.671 470.2 278.571 470.2C252.471 470.2 228.771 459.7 228.771 431.2ZM286.071 424.3V294.1C286.071 288.1 285.171 280 278.571 280C271.971 280 271.071 288.1 271.071 294.1V424.3C271.071 430.3 271.971 438.4 278.571 438.4C285.171 438.4 286.071 430.3 286.071 424.3ZM439.406 252.4V431.2C439.406 459.7 415.706 470.2 389.606 470.2C363.506 470.2 339.806 459.7 339.806 431.2V252.4H382.106V424.3C382.106 430.3 383.006 438.4 389.606 438.4C396.206 438.4 397.106 430.3 397.106 424.3V252.4H439.406ZM516.242 283V466H473.942V283H445.442V252.4H544.742V283H516.242ZM645.415 466H607.315V252.4H672.415L690.715 395.8H691.315L712.315 252.4H771.415V466H733.315V309.4L732.715 308.8L706.915 466H670.615L646.015 311.8H645.415V466ZM864.347 466H785.147V252.4H864.347V283H827.447V331.9H862.847V362.5H827.447V435.4H864.347V466Z" fill="white"/>
</g>
<g filter="url(#filter2_d_219_4108)">
<path d="M47.801 1121.2H61.601L55.901 1033.6H54.701L47.801 1121.2ZM-0.199023 1210L31.601 996.4H87.701L113.201 1210H69.101L64.301 1151.8H44.201L37.601 1210H-0.199023ZM175.036 1071.7V1040.5C175.036 1030.3 172.036 1027 165.136 1027H160.036V1085.2H165.136C172.036 1085.2 175.036 1081.9 175.036 1071.7ZM117.736 1210V996.4H167.536C193.636 996.4 217.336 1006.9 217.336 1039.6V1055.8C217.336 1076.2 212.536 1090.6 185.536 1096V1096.9C207.436 1099 217.336 1109.2 217.336 1143.4V1162C217.336 1198.6 200.236 1210 167.536 1210H117.736ZM160.036 1111.6V1179.4H165.136C172.036 1179.4 175.036 1177.6 175.036 1169.2V1121.8C175.036 1113.4 172.036 1111.6 165.136 1111.6H160.036ZM228.771 1175.2V1031.2C228.771 1002.7 252.471 992.2 278.571 992.2C304.671 992.2 328.371 1002.7 328.371 1031.2V1175.2C328.371 1203.7 304.671 1214.2 278.571 1214.2C252.471 1214.2 228.771 1203.7 228.771 1175.2ZM286.071 1168.3V1038.1C286.071 1032.1 285.171 1024 278.571 1024C271.971 1024 271.071 1032.1 271.071 1038.1V1168.3C271.071 1174.3 271.971 1182.4 278.571 1182.4C285.171 1182.4 286.071 1174.3 286.071 1168.3ZM439.406 996.4V1175.2C439.406 1203.7 415.706 1214.2 389.606 1214.2C363.506 1214.2 339.806 1203.7 339.806 1175.2V996.4H382.106V1168.3C382.106 1174.3 383.006 1182.4 389.606 1182.4C396.206 1182.4 397.106 1174.3 397.106 1168.3V996.4H439.406ZM516.242 1027V1210H473.942V1027H445.442V996.4H544.742V1027H516.242ZM645.415 1210H607.315V996.4H672.415L690.715 1139.8H691.315L712.315 996.4H771.415V1210H733.315V1053.4L732.715 1052.8L706.915 1210H670.615L646.015 1055.8H645.415V1210ZM864.347 1210H785.147V996.4H864.347V1027H827.447V1075.9H862.847V1106.5H827.447V1179.4H864.347V1210Z" fill="white"/>
</g>
<g filter="url(#filter3_d_219_4108)">
<path d="M47.801 1369.2H61.601L55.901 1281.6H54.701L47.801 1369.2ZM-0.199023 1458L31.601 1244.4H87.701L113.201 1458H69.101L64.301 1399.8H44.201L37.601 1458H-0.199023ZM175.036 1319.7V1288.5C175.036 1278.3 172.036 1275 165.136 1275H160.036V1333.2H165.136C172.036 1333.2 175.036 1329.9 175.036 1319.7ZM117.736 1458V1244.4H167.536C193.636 1244.4 217.336 1254.9 217.336 1287.6V1303.8C217.336 1324.2 212.536 1338.6 185.536 1344V1344.9C207.436 1347 217.336 1357.2 217.336 1391.4V1410C217.336 1446.6 200.236 1458 167.536 1458H117.736ZM160.036 1359.6V1427.4H165.136C172.036 1427.4 175.036 1425.6 175.036 1417.2V1369.8C175.036 1361.4 172.036 1359.6 165.136 1359.6H160.036ZM228.771 1423.2V1279.2C228.771 1250.7 252.471 1240.2 278.571 1240.2C304.671 1240.2 328.371 1250.7 328.371 1279.2V1423.2C328.371 1451.7 304.671 1462.2 278.571 1462.2C252.471 1462.2 228.771 1451.7 228.771 1423.2ZM286.071 1416.3V1286.1C286.071 1280.1 285.171 1272 278.571 1272C271.971 1272 271.071 1280.1 271.071 1286.1V1416.3C271.071 1422.3 271.971 1430.4 278.571 1430.4C285.171 1430.4 286.071 1422.3 286.071 1416.3ZM439.406 1244.4V1423.2C439.406 1451.7 415.706 1462.2 389.606 1462.2C363.506 1462.2 339.806 1451.7 339.806 1423.2V1244.4H382.106V1416.3C382.106 1422.3 383.006 1430.4 389.606 1430.4C396.206 1430.4 397.106 1422.3 397.106 1416.3V1244.4H439.406ZM516.242 1275V1458H473.942V1275H445.442V1244.4H544.742V1275H516.242ZM645.415 1458H607.315V1244.4H672.415L690.715 1387.8H691.315L712.315 1244.4H771.415V1458H733.315V1301.4L732.715 1300.8L706.915 1458H670.615L646.015 1303.8H645.415V1458ZM864.347 1458H785.147V1244.4H864.347V1275H827.447V1323.9H862.847V1354.5H827.447V1427.4H864.347V1458Z" fill="white"/>
</g>
<g filter="url(#filter4_d_219_4108)">
<path d="M47.801 873.2H61.601L55.901 785.6H54.701L47.801 873.2ZM-0.199023 962L31.601 748.4H87.701L113.201 962H69.101L64.301 903.8H44.201L37.601 962H-0.199023ZM175.036 823.7V792.5C175.036 782.3 172.036 779 165.136 779H160.036V837.2H165.136C172.036 837.2 175.036 833.9 175.036 823.7ZM117.736 962V748.4H167.536C193.636 748.4 217.336 758.9 217.336 791.6V807.8C217.336 828.2 212.536 842.6 185.536 848V848.9C207.436 851 217.336 861.2 217.336 895.4V914C217.336 950.6 200.236 962 167.536 962H117.736ZM160.036 863.6V931.4H165.136C172.036 931.4 175.036 929.6 175.036 921.2V873.8C175.036 865.4 172.036 863.6 165.136 863.6H160.036ZM228.771 927.2V783.2C228.771 754.7 252.471 744.2 278.571 744.2C304.671 744.2 328.371 754.7 328.371 783.2V927.2C328.371 955.7 304.671 966.2 278.571 966.2C252.471 966.2 228.771 955.7 228.771 927.2ZM286.071 920.3V790.1C286.071 784.1 285.171 776 278.571 776C271.971 776 271.071 784.1 271.071 790.1V920.3C271.071 926.3 271.971 934.4 278.571 934.4C285.171 934.4 286.071 926.3 286.071 920.3ZM439.406 748.4V927.2C439.406 955.7 415.706 966.2 389.606 966.2C363.506 966.2 339.806 955.7 339.806 927.2V748.4H382.106V920.3C382.106 926.3 383.006 934.4 389.606 934.4C396.206 934.4 397.106 926.3 397.106 920.3V748.4H439.406ZM516.242 779V962H473.942V779H445.442V748.4H544.742V779H516.242ZM645.415 962H607.315V748.4H672.415L690.715 891.8H691.315L712.315 748.4H771.415V962H733.315V805.4L732.715 804.8L706.915 962H670.615L646.015 807.8H645.415V962ZM864.347 962H785.147V748.4H864.347V779H827.447V827.9H862.847V858.5H827.447V931.4H864.347V962Z" fill="white"/>
</g>
<g filter="url(#filter5_d_219_4108)">
<path d="M47.801 625.2H61.601L55.901 537.6H54.701L47.801 625.2ZM-0.199023 714L31.601 500.4H87.701L113.201 714H69.101L64.301 655.8H44.201L37.601 714H-0.199023ZM175.036 575.7V544.5C175.036 534.3 172.036 531 165.136 531H160.036V589.2H165.136C172.036 589.2 175.036 585.9 175.036 575.7ZM117.736 714V500.4H167.536C193.636 500.4 217.336 510.9 217.336 543.6V559.8C217.336 580.2 212.536 594.6 185.536 600V600.9C207.436 603 217.336 613.2 217.336 647.4V666C217.336 702.6 200.236 714 167.536 714H117.736ZM160.036 615.6V683.4H165.136C172.036 683.4 175.036 681.6 175.036 673.2V625.8C175.036 617.4 172.036 615.6 165.136 615.6H160.036ZM228.771 679.2V535.2C228.771 506.7 252.471 496.2 278.571 496.2C304.671 496.2 328.371 506.7 328.371 535.2V679.2C328.371 707.7 304.671 718.2 278.571 718.2C252.471 718.2 228.771 707.7 228.771 679.2ZM286.071 672.3V542.1C286.071 536.1 285.171 528 278.571 528C271.971 528 271.071 536.1 271.071 542.1V672.3C271.071 678.3 271.971 686.4 278.571 686.4C285.171 686.4 286.071 678.3 286.071 672.3ZM439.406 500.4V679.2C439.406 707.7 415.706 718.2 389.606 718.2C363.506 718.2 339.806 707.7 339.806 679.2V500.4H382.106V672.3C382.106 678.3 383.006 686.4 389.606 686.4C396.206 686.4 397.106 678.3 397.106 672.3V500.4H439.406ZM516.242 531V714H473.942V531H445.442V500.4H544.742V531H516.242ZM645.415 714H607.315V500.4H672.415L690.715 643.8H691.315L712.315 500.4H771.415V714H733.315V557.4L732.715 556.8L706.915 714H670.615L646.015 559.8H645.415V714ZM864.347 714H785.147V500.4H864.347V531H827.447V579.9H862.847V610.5H827.447V683.4H864.347V714Z" fill="white"/>
</g>
<g clip-path="url(#clip2_219_4108)">
<rect width="769.575" height="769.575" transform="translate(-109.515 612.171) rotate(-45)" fill="#222222"/>
<g filter="url(#filter6_d_219_4108)">
<mask id="path-7-inside-1_219_4108" fill="white">
<path d="M47.8 130.2H61.6L55.9 42.6H54.7L47.8 130.2ZM-0.2 219L31.6 5.39999H87.7L113.2 219H69.1L64.3 160.8H44.2L37.6 219H-0.2ZM175.035 80.7V49.5C175.035 39.3 172.035 36 165.135 36H160.035V94.2H165.135C172.035 94.2 175.035 90.9 175.035 80.7ZM117.735 219V5.39999H167.535C193.635 5.39999 217.335 15.9 217.335 48.6V64.8C217.335 85.2 212.535 99.6 185.535 105V105.9C207.435 108 217.335 118.2 217.335 152.4V171C217.335 207.6 200.235 219 167.535 219H117.735ZM160.035 120.6V188.4H165.135C172.035 188.4 175.035 186.6 175.035 178.2V130.8C175.035 122.4 172.035 120.6 165.135 120.6H160.035ZM228.77 184.2V40.2C228.77 11.7 252.47 1.19999 278.57 1.19999C304.67 1.19999 328.37 11.7 328.37 40.2V184.2C328.37 212.7 304.67 223.2 278.57 223.2C252.47 223.2 228.77 212.7 228.77 184.2ZM286.07 177.3V47.1C286.07 41.1 285.17 33 278.57 33C271.97 33 271.07 41.1 271.07 47.1V177.3C271.07 183.3 271.97 191.4 278.57 191.4C285.17 191.4 286.07 183.3 286.07 177.3ZM439.405 5.39999V184.2C439.405 212.7 415.705 223.2 389.605 223.2C363.505 223.2 339.805 212.7 339.805 184.2V5.39999H382.105V177.3C382.105 183.3 383.005 191.4 389.605 191.4C396.205 191.4 397.105 183.3 397.105 177.3V5.39999H439.405ZM516.241 36V219H473.941V36H445.441V5.39999H544.741V36H516.241ZM645.414 219H607.314V5.39999H672.414L690.714 148.8H691.314L712.314 5.39999H771.414V219H733.314V62.4L732.714 61.8L706.914 219H670.614L646.014 64.8H645.414V219ZM864.346 219H785.146V5.39999H864.346V36H827.446V84.9H862.846V115.5H827.446V188.4H864.346V219Z"/>
</mask>
<path d="M47.8 130.2L46.8031 130.121L46.7181 131.2H47.8V130.2ZM61.6 130.2V131.2H62.6672L62.5979 130.135L61.6 130.2ZM55.9 42.6L56.8979 42.5351L56.837 41.6H55.9V42.6ZM54.7 42.6V41.6H53.7757L53.7031 42.5215L54.7 42.6ZM-0.2 219L-1.1891 218.853L-1.3599 220H-0.2V219ZM31.6 5.39999V4.39999H30.7379L30.6109 5.25274L31.6 5.39999ZM87.7 5.39999L88.6929 5.28145L88.5877 4.39999H87.7V5.39999ZM113.2 219V220H114.326L114.193 218.881L113.2 219ZM69.1 219L68.1034 219.082L68.1791 220H69.1V219ZM64.3 160.8L65.2966 160.718L65.2209 159.8H64.3V160.8ZM44.2 160.8V159.8H43.307L43.2064 160.687L44.2 160.8ZM37.6 219V220H38.493L38.5936 219.113L37.6 219ZM47.8 131.2H61.6V129.2H47.8V131.2ZM62.5979 130.135L56.8979 42.5351L54.9021 42.6649L60.6021 130.265L62.5979 130.135ZM55.9 41.6H54.7V43.6H55.9V41.6ZM53.7031 42.5215L46.8031 130.121L48.7969 130.279L55.6969 42.6785L53.7031 42.5215ZM0.789099 219.147L32.5891 5.54725L30.6109 5.25274L-1.1891 218.853L0.789099 219.147ZM31.6 6.39999H87.7V4.39999H31.6V6.39999ZM86.707 5.51853L112.207 219.119L114.193 218.881L88.6929 5.28145L86.707 5.51853ZM113.2 218H69.1V220H113.2V218ZM70.0966 218.918L65.2966 160.718L63.3034 160.882L68.1034 219.082L70.0966 218.918ZM64.3 159.8H44.2V161.8H64.3V159.8ZM43.2064 160.687L36.6064 218.887L38.5936 219.113L45.1936 160.913L43.2064 160.687ZM37.6 218H-0.2V220H37.6V218ZM160.035 36V35H159.035V36H160.035ZM160.035 94.2H159.035V95.2H160.035V94.2ZM117.735 219H116.735V220H117.735V219ZM117.735 5.39999V4.39999H116.735V5.39999H117.735ZM185.535 105L185.339 104.019L184.535 104.18V105H185.535ZM185.535 105.9H184.535V106.809L185.44 106.895L185.535 105.9ZM160.035 120.6V119.6H159.035V120.6H160.035ZM160.035 188.4H159.035V189.4H160.035V188.4ZM176.035 80.7V49.5H174.035V80.7H176.035ZM176.035 49.5C176.035 44.3555 175.29 40.6918 173.466 38.316C171.583 35.8641 168.733 35 165.135 35V37C168.437 37 170.537 37.7859 171.879 39.534C173.28 41.3582 174.035 44.4445 174.035 49.5H176.035ZM165.135 35H160.035V37H165.135V35ZM159.035 36V94.2H161.035V36H159.035ZM160.035 95.2H165.135V93.2H160.035V95.2ZM165.135 95.2C168.733 95.2 171.583 94.3359 173.466 91.884C175.29 89.5082 176.035 85.8445 176.035 80.7H174.035C174.035 85.7555 173.28 88.8418 171.879 90.666C170.537 92.4141 168.437 93.2 165.135 93.2V95.2ZM118.735 219V5.39999H116.735V219H118.735ZM117.735 6.39999H167.535V4.39999H117.735V6.39999ZM167.535 6.39999C180.477 6.39999 192.684 9.00724 201.633 15.5449C210.528 22.0437 216.335 32.5234 216.335 48.6H218.335C218.335 31.9765 212.293 20.8563 202.813 13.93C193.386 7.04274 180.694 4.39999 167.535 4.39999V6.39999ZM216.335 48.6V64.8H218.335V48.6H216.335ZM216.335 64.8C216.335 74.9552 215.132 83.4008 210.73 89.9682C206.353 96.4975 198.686 101.35 185.339 104.019L185.731 105.981C199.384 103.25 207.618 98.2025 212.391 91.0818C217.138 83.9992 218.335 75.0448 218.335 64.8H216.335ZM184.535 105V105.9H186.535V105H184.535ZM185.44 106.895C196.262 107.933 203.873 110.948 208.842 117.705C213.857 124.524 216.335 135.349 216.335 152.4H218.335C218.335 135.251 215.863 123.876 210.453 116.52C204.997 109.102 196.708 105.967 185.631 104.905L185.44 106.895ZM216.335 152.4V171H218.335V152.4H216.335ZM216.335 171C216.335 189.167 212.09 200.824 204.034 207.977C195.95 215.155 183.81 218 167.535 218V220C183.961 220 196.72 217.145 205.362 209.473C214.03 201.776 218.335 189.433 218.335 171H216.335ZM167.535 218H117.735V220H167.535V218ZM159.035 120.6V188.4H161.035V120.6H159.035ZM160.035 189.4H165.135V187.4H160.035V189.4ZM165.135 189.4C168.604 189.4 171.436 188.966 173.354 187.182C175.287 185.384 176.035 182.461 176.035 178.2H174.035C174.035 182.339 173.283 184.516 171.992 185.718C170.684 186.934 168.567 187.4 165.135 187.4V189.4ZM176.035 178.2V130.8H174.035V178.2H176.035ZM176.035 130.8C176.035 126.539 175.287 123.616 173.354 121.818C171.436 120.034 168.603 119.6 165.135 119.6V121.6C168.567 121.6 170.684 122.066 171.992 123.282C173.283 124.484 174.035 126.661 174.035 130.8H176.035ZM165.135 119.6H160.035V121.6H165.135V119.6ZM229.77 184.2V40.2H227.77V184.2H229.77ZM229.77 40.2C229.77 26.2763 235.535 16.84 244.441 10.8419C253.403 4.80665 265.63 2.19999 278.57 2.19999V0.199993C265.41 0.199993 252.738 2.84333 243.324 9.18305C233.855 15.5599 227.77 25.6237 227.77 40.2H229.77ZM278.57 2.19999C291.51 2.19999 303.738 4.80665 312.699 10.8419C321.605 16.84 327.37 26.2763 327.37 40.2H329.37C329.37 25.6237 323.285 15.5599 313.816 9.18305C304.403 2.84333 291.73 0.199993 278.57 0.199993V2.19999ZM327.37 40.2V184.2H329.37V40.2H327.37ZM327.37 184.2C327.37 198.124 321.605 207.56 312.699 213.558C303.738 219.593 291.51 222.2 278.57 222.2V224.2C291.73 224.2 304.403 221.557 313.816 215.217C323.285 208.84 329.37 198.776 329.37 184.2H327.37ZM278.57 222.2C265.63 222.2 253.403 219.593 244.441 213.558C235.535 207.56 229.77 198.124 229.77 184.2H227.77C227.77 198.776 233.855 208.84 243.324 215.217C252.738 221.557 265.41 224.2 278.57 224.2V222.2ZM287.07 177.3V47.1H285.07V177.3H287.07ZM287.07 47.1C287.07 44.0817 286.849 40.4014 285.731 37.4461C285.168 35.958 284.355 34.5921 283.171 33.5946C281.969 32.5818 280.444 32 278.57 32V34C279.997 34 281.059 34.4307 281.882 35.1241C282.723 35.8328 283.373 36.867 283.86 38.1539C284.842 40.7486 285.07 44.1182 285.07 47.1H287.07ZM278.57 32C276.697 32 275.172 32.5818 273.97 33.5946C272.786 34.5921 271.973 35.958 271.41 37.4461C270.292 40.4014 270.07 44.0817 270.07 47.1H272.07C272.07 44.1182 272.299 40.7486 273.281 38.1539C273.768 36.867 274.417 35.8328 275.258 35.1241C276.081 34.4307 277.144 34 278.57 34V32ZM270.07 47.1V177.3H272.07V47.1H270.07ZM270.07 177.3C270.07 180.318 270.292 183.999 271.41 186.954C271.973 188.442 272.786 189.808 273.97 190.805C275.172 191.818 276.697 192.4 278.57 192.4V190.4C277.144 190.4 276.081 189.969 275.258 189.276C274.417 188.567 273.768 187.533 273.281 186.246C272.299 183.651 272.07 180.282 272.07 177.3H270.07ZM278.57 192.4C280.444 192.4 281.969 191.818 283.171 190.805C284.355 189.808 285.168 188.442 285.731 186.954C286.849 183.999 287.07 180.318 287.07 177.3H285.07C285.07 180.282 284.842 183.651 283.86 186.246C283.373 187.533 282.723 188.567 281.882 189.276C281.059 189.969 279.997 190.4 278.57 190.4V192.4ZM439.405 5.39999H440.405V4.39999H439.405V5.39999ZM339.805 5.39999V4.39999H338.805V5.39999H339.805ZM382.105 5.39999H383.105V4.39999H382.105V5.39999ZM397.105 5.39999V4.39999H396.105V5.39999H397.105ZM438.405 5.39999V184.2H440.405V5.39999H438.405ZM438.405 184.2C438.405 198.124 432.641 207.56 423.734 213.558C414.773 219.593 402.545 222.2 389.605 222.2V224.2C402.765 224.2 415.438 221.557 424.852 215.217C434.32 208.84 440.405 198.776 440.405 184.2H438.405ZM389.605 222.2C376.665 222.2 364.438 219.593 355.477 213.558C346.57 207.56 340.805 198.124 340.805 184.2H338.805C338.805 198.776 344.891 208.84 354.359 215.217C363.773 221.557 376.445 224.2 389.605 224.2V222.2ZM340.805 184.2V5.39999H338.805V184.2H340.805ZM339.805 6.39999H382.105V4.39999H339.805V6.39999ZM381.105 5.39999V177.3H383.105V5.39999H381.105ZM381.105 177.3C381.105 180.318 381.327 183.999 382.445 186.954C383.008 188.442 383.821 189.808 385.005 190.805C386.207 191.818 387.732 192.4 389.605 192.4V190.4C388.179 190.4 387.116 189.969 386.294 189.276C385.452 188.567 384.803 187.533 384.316 186.246C383.334 183.651 383.105 180.282 383.105 177.3H381.105ZM389.605 192.4C391.479 192.4 393.004 191.818 394.206 190.805C395.39 189.808 396.203 188.442 396.766 186.954C397.884 183.999 398.105 180.318 398.105 177.3H396.105C396.105 180.282 395.877 183.651 394.895 186.246C394.408 187.533 393.759 188.567 392.917 189.276C392.094 189.969 391.032 190.4 389.605 190.4V192.4ZM398.105 177.3V5.39999H396.105V177.3H398.105ZM397.105 6.39999H439.405V4.39999H397.105V6.39999ZM516.241 36V35H515.241V36H516.241ZM516.241 219V220H517.241V219H516.241ZM473.941 219H472.941V220H473.941V219ZM473.941 36H474.941V35H473.941V36ZM445.441 36H444.441V37H445.441V36ZM445.441 5.39999V4.39999H444.441V5.39999H445.441ZM544.741 5.39999H545.741V4.39999H544.741V5.39999ZM544.741 36V37H545.741V36H544.741ZM515.241 36V219H517.241V36H515.241ZM516.241 218H473.941V220H516.241V218ZM474.941 219V36H472.941V219H474.941ZM473.941 35H445.441V37H473.941V35ZM446.441 36V5.39999H444.441V36H446.441ZM445.441 6.39999H544.741V4.39999H445.441V6.39999ZM543.741 5.39999V36H545.741V5.39999H543.741ZM544.741 35H516.241V37H544.741V35ZM645.414 219V220H646.414V219H645.414ZM607.314 219H606.314V220H607.314V219ZM607.314 5.39999V4.39999H606.314V5.39999H607.314ZM672.414 5.39999L673.406 5.2734L673.295 4.39999H672.414V5.39999ZM690.714 148.8L689.722 148.927L689.834 149.8H690.714V148.8ZM691.314 148.8V149.8H692.178L692.303 148.945L691.314 148.8ZM712.314 5.39999V4.39999H711.45L711.325 5.25509L712.314 5.39999ZM771.414 5.39999H772.414V4.39999H771.414V5.39999ZM771.414 219V220H772.414V219H771.414ZM733.314 219H732.314V220H733.314V219ZM733.314 62.4H734.314V61.9858L734.021 61.6929L733.314 62.4ZM732.714 61.8L733.421 61.0929L732.043 59.7146L731.727 61.638L732.714 61.8ZM706.914 219V220H707.763L707.901 219.162L706.914 219ZM670.614 219L669.627 219.158L669.761 220H670.614V219ZM646.014 64.8L647.002 64.6425L646.867 63.8H646.014V64.8ZM645.414 64.8V63.8H644.414V64.8H645.414ZM645.414 218H607.314V220H645.414V218ZM608.314 219V5.39999H606.314V219H608.314ZM607.314 6.39999H672.414V4.39999H607.314V6.39999ZM671.422 5.52658L689.722 148.927L691.706 148.673L673.406 5.2734L671.422 5.52658ZM690.714 149.8H691.314V147.8H690.714V149.8ZM692.303 148.945L713.303 5.54489L711.325 5.25509L690.325 148.655L692.303 148.945ZM712.314 6.39999H771.414V4.39999H712.314V6.39999ZM770.414 5.39999V219H772.414V5.39999H770.414ZM771.414 218H733.314V220H771.414V218ZM734.314 219V62.4H732.314V219H734.314ZM734.021 61.6929L733.421 61.0929L732.007 62.5071L732.607 63.1071L734.021 61.6929ZM731.727 61.638L705.927 218.838L707.901 219.162L733.701 61.9619L731.727 61.638ZM706.914 218H670.614V220H706.914V218ZM671.602 218.842L647.002 64.6425L645.027 64.9575L669.627 219.158L671.602 218.842ZM646.014 63.8H645.414V65.8H646.014V63.8ZM644.414 64.8V219H646.414V64.8H644.414ZM864.346 219V220H865.346V219H864.346ZM785.146 219H784.146V220H785.146V219ZM785.146 5.39999V4.39999H784.146V5.39999H785.146ZM864.346 5.39999H865.346V4.39999H864.346V5.39999ZM864.346 36V37H865.346V36H864.346ZM827.446 36V35H826.446V36H827.446ZM827.446 84.9H826.446V85.9H827.446V84.9ZM862.846 84.9H863.846V83.9H862.846V84.9ZM862.846 115.5V116.5H863.846V115.5H862.846ZM827.446 115.5V114.5H826.446V115.5H827.446ZM827.446 188.4H826.446V189.4H827.446V188.4ZM864.346 188.4H865.346V187.4H864.346V188.4ZM864.346 218H785.146V220H864.346V218ZM786.146 219V5.39999H784.146V219H786.146ZM785.146 6.39999H864.346V4.39999H785.146V6.39999ZM863.346 5.39999V36H865.346V5.39999H863.346ZM864.346 35H827.446V37H864.346V35ZM826.446 36V84.9H828.446V36H826.446ZM827.446 85.9H862.846V83.9H827.446V85.9ZM861.846 84.9V115.5H863.846V84.9H861.846ZM862.846 114.5H827.446V116.5H862.846V114.5ZM826.446 115.5V188.4H828.446V115.5H826.446ZM827.446 189.4H864.346V187.4H827.446V189.4ZM863.346 188.4V219H865.346V188.4H863.346Z" fill="white" mask="url(#path-7-inside-1_219_4108)"/>
</g>
<g filter="url(#filter7_d_219_4108)">
<mask id="path-9-inside-2_219_4108" fill="white">
<path d="M47.8 377.2H61.6L55.9 289.6H54.7L47.8 377.2ZM-0.2 466L31.6 252.4H87.7L113.2 466H69.1L64.3 407.8H44.2L37.6 466H-0.2ZM175.035 327.7V296.5C175.035 286.3 172.035 283 165.135 283H160.035V341.2H165.135C172.035 341.2 175.035 337.9 175.035 327.7ZM117.735 466V252.4H167.535C193.635 252.4 217.335 262.9 217.335 295.6V311.8C217.335 332.2 212.535 346.6 185.535 352V352.9C207.435 355 217.335 365.2 217.335 399.4V418C217.335 454.6 200.235 466 167.535 466H117.735ZM160.035 367.6V435.4H165.135C172.035 435.4 175.035 433.6 175.035 425.2V377.8C175.035 369.4 172.035 367.6 165.135 367.6H160.035ZM228.77 431.2V287.2C228.77 258.7 252.47 248.2 278.57 248.2C304.67 248.2 328.37 258.7 328.37 287.2V431.2C328.37 459.7 304.67 470.2 278.57 470.2C252.47 470.2 228.77 459.7 228.77 431.2ZM286.07 424.3V294.1C286.07 288.1 285.17 280 278.57 280C271.97 280 271.07 288.1 271.07 294.1V424.3C271.07 430.3 271.97 438.4 278.57 438.4C285.17 438.4 286.07 430.3 286.07 424.3ZM439.405 252.4V431.2C439.405 459.7 415.705 470.2 389.605 470.2C363.505 470.2 339.805 459.7 339.805 431.2V252.4H382.105V424.3C382.105 430.3 383.005 438.4 389.605 438.4C396.205 438.4 397.105 430.3 397.105 424.3V252.4H439.405ZM516.241 283V466H473.941V283H445.441V252.4H544.741V283H516.241ZM645.414 466H607.314V252.4H672.414L690.714 395.8H691.314L712.314 252.4H771.414V466H733.314V309.4L732.714 308.8L706.914 466H670.614L646.014 311.8H645.414V466ZM864.346 466H785.146V252.4H864.346V283H827.446V331.9H862.846V362.5H827.446V435.4H864.346V466Z"/>
</mask>
<path d="M47.8 377.2L46.8031 377.121L46.7181 378.2H47.8V377.2ZM61.6 377.2V378.2H62.6672L62.5979 377.135L61.6 377.2ZM55.9 289.6L56.8979 289.535L56.837 288.6H55.9V289.6ZM54.7 289.6V288.6H53.7757L53.7031 289.521L54.7 289.6ZM-0.2 466L-1.1891 465.853L-1.3599 467H-0.2V466ZM31.6 252.4V251.4H30.7379L30.6109 252.253L31.6 252.4ZM87.7 252.4L88.6929 252.281L88.5877 251.4H87.7V252.4ZM113.2 466V467H114.326L114.193 465.881L113.2 466ZM69.1 466L68.1034 466.082L68.1791 467H69.1V466ZM64.3 407.8L65.2966 407.718L65.2209 406.8H64.3V407.8ZM44.2 407.8V406.8H43.307L43.2064 407.687L44.2 407.8ZM37.6 466V467H38.493L38.5936 466.113L37.6 466ZM47.8 378.2H61.6V376.2H47.8V378.2ZM62.5979 377.135L56.8979 289.535L54.9021 289.665L60.6021 377.265L62.5979 377.135ZM55.9 288.6H54.7V290.6H55.9V288.6ZM53.7031 289.521L46.8031 377.121L48.7969 377.279L55.6969 289.679L53.7031 289.521ZM0.789099 466.147L32.5891 252.547L30.6109 252.253L-1.1891 465.853L0.789099 466.147ZM31.6 253.4H87.7V251.4H31.6V253.4ZM86.707 252.519L112.207 466.119L114.193 465.881L88.6929 252.281L86.707 252.519ZM113.2 465H69.1V467H113.2V465ZM70.0966 465.918L65.2966 407.718L63.3034 407.882L68.1034 466.082L70.0966 465.918ZM64.3 406.8H44.2V408.8H64.3V406.8ZM43.2064 407.687L36.6064 465.887L38.5936 466.113L45.1936 407.913L43.2064 407.687ZM37.6 465H-0.2V467H37.6V465ZM160.035 283V282H159.035V283H160.035ZM160.035 341.2H159.035V342.2H160.035V341.2ZM117.735 466H116.735V467H117.735V466ZM117.735 252.4V251.4H116.735V252.4H117.735ZM185.535 352L185.339 351.019L184.535 351.18V352H185.535ZM185.535 352.9H184.535V353.809L185.44 353.895L185.535 352.9ZM160.035 367.6V366.6H159.035V367.6H160.035ZM160.035 435.4H159.035V436.4H160.035V435.4ZM176.035 327.7V296.5H174.035V327.7H176.035ZM176.035 296.5C176.035 291.355 175.29 287.692 173.466 285.316C171.583 282.864 168.733 282 165.135 282V284C168.437 284 170.537 284.786 171.879 286.534C173.28 288.358 174.035 291.444 174.035 296.5H176.035ZM165.135 282H160.035V284H165.135V282ZM159.035 283V341.2H161.035V283H159.035ZM160.035 342.2H165.135V340.2H160.035V342.2ZM165.135 342.2C168.733 342.2 171.583 341.336 173.466 338.884C175.29 336.508 176.035 332.844 176.035 327.7H174.035C174.035 332.755 173.28 335.842 171.879 337.666C170.537 339.414 168.437 340.2 165.135 340.2V342.2ZM118.735 466V252.4H116.735V466H118.735ZM117.735 253.4H167.535V251.4H117.735V253.4ZM167.535 253.4C180.477 253.4 192.684 256.007 201.633 262.545C210.528 269.044 216.335 279.523 216.335 295.6H218.335C218.335 278.977 212.293 267.856 202.813 260.93C193.386 254.043 180.694 251.4 167.535 251.4V253.4ZM216.335 295.6V311.8H218.335V295.6H216.335ZM216.335 311.8C216.335 321.955 215.132 330.401 210.73 336.968C206.353 343.497 198.686 348.35 185.339 351.019L185.731 352.981C199.384 350.25 207.618 345.203 212.391 338.082C217.138 330.999 218.335 322.045 218.335 311.8H216.335ZM184.535 352V352.9H186.535V352H184.535ZM185.44 353.895C196.262 354.933 203.873 357.948 208.842 364.705C213.857 371.524 216.335 382.349 216.335 399.4H218.335C218.335 382.251 215.863 370.876 210.453 363.52C204.997 356.102 196.708 352.967 185.631 351.905L185.44 353.895ZM216.335 399.4V418H218.335V399.4H216.335ZM216.335 418C216.335 436.167 212.09 447.824 204.034 454.977C195.95 462.155 183.81 465 167.535 465V467C183.961 467 196.72 464.145 205.362 456.473C214.03 448.776 218.335 436.433 218.335 418H216.335ZM167.535 465H117.735V467H167.535V465ZM159.035 367.6V435.4H161.035V367.6H159.035ZM160.035 436.4H165.135V434.4H160.035V436.4ZM165.135 436.4C168.604 436.4 171.436 435.966 173.354 434.182C175.287 432.384 176.035 429.461 176.035 425.2H174.035C174.035 429.339 173.283 431.516 171.992 432.718C170.684 433.934 168.567 434.4 165.135 434.4V436.4ZM176.035 425.2V377.8H174.035V425.2H176.035ZM176.035 377.8C176.035 373.539 175.287 370.616 173.354 368.818C171.436 367.034 168.603 366.6 165.135 366.6V368.6C168.567 368.6 170.684 369.066 171.992 370.282C173.283 371.484 174.035 373.661 174.035 377.8H176.035ZM165.135 366.6H160.035V368.6H165.135V366.6ZM229.77 431.2V287.2H227.77V431.2H229.77ZM229.77 287.2C229.77 273.276 235.535 263.84 244.441 257.842C253.403 251.807 265.63 249.2 278.57 249.2V247.2C265.41 247.2 252.738 249.843 243.324 256.183C233.855 262.56 227.77 272.624 227.77 287.2H229.77ZM278.57 249.2C291.51 249.2 303.738 251.807 312.699 257.842C321.605 263.84 327.37 273.276 327.37 287.2H329.37C329.37 272.624 323.285 262.56 313.816 256.183C304.403 249.843 291.73 247.2 278.57 247.2V249.2ZM327.37 287.2V431.2H329.37V287.2H327.37ZM327.37 431.2C327.37 445.124 321.605 454.56 312.699 460.558C303.738 466.593 291.51 469.2 278.57 469.2V471.2C291.73 471.2 304.403 468.557 313.816 462.217C323.285 455.84 329.37 445.776 329.37 431.2H327.37ZM278.57 469.2C265.63 469.2 253.403 466.593 244.441 460.558C235.535 454.56 229.77 445.124 229.77 431.2H227.77C227.77 445.776 233.855 455.84 243.324 462.217C252.738 468.557 265.41 471.2 278.57 471.2V469.2ZM287.07 424.3V294.1H285.07V424.3H287.07ZM287.07 294.1C287.07 291.082 286.849 287.401 285.731 284.446C285.168 282.958 284.355 281.592 283.171 280.595C281.969 279.582 280.444 279 278.57 279V281C279.997 281 281.059 281.431 281.882 282.124C282.723 282.833 283.373 283.867 283.86 285.154C284.842 287.749 285.07 291.118 285.07 294.1H287.07ZM278.57 279C276.697 279 275.172 279.582 273.97 280.595C272.786 281.592 271.973 282.958 271.41 284.446C270.292 287.401 270.07 291.082 270.07 294.1H272.07C272.07 291.118 272.299 287.749 273.281 285.154C273.768 283.867 274.417 282.833 275.258 282.124C276.081 281.431 277.144 281 278.57 281V279ZM270.07 294.1V424.3H272.07V294.1H270.07ZM270.07 424.3C270.07 427.318 270.292 430.999 271.41 433.954C271.973 435.442 272.786 436.808 273.97 437.805C275.172 438.818 276.697 439.4 278.57 439.4V437.4C277.144 437.4 276.081 436.969 275.258 436.276C274.417 435.567 273.768 434.533 273.281 433.246C272.299 430.651 272.07 427.282 272.07 424.3H270.07ZM278.57 439.4C280.444 439.4 281.969 438.818 283.171 437.805C284.355 436.808 285.168 435.442 285.731 433.954C286.849 430.999 287.07 427.318 287.07 424.3H285.07C285.07 427.282 284.842 430.651 283.86 433.246C283.373 434.533 282.723 435.567 281.882 436.276C281.059 436.969 279.997 437.4 278.57 437.4V439.4ZM439.405 252.4H440.405V251.4H439.405V252.4ZM339.805 252.4V251.4H338.805V252.4H339.805ZM382.105 252.4H383.105V251.4H382.105V252.4ZM397.105 252.4V251.4H396.105V252.4H397.105ZM438.405 252.4V431.2H440.405V252.4H438.405ZM438.405 431.2C438.405 445.124 432.641 454.56 423.734 460.558C414.773 466.593 402.545 469.2 389.605 469.2V471.2C402.765 471.2 415.438 468.557 424.852 462.217C434.32 455.84 440.405 445.776 440.405 431.2H438.405ZM389.605 469.2C376.665 469.2 364.438 466.593 355.477 460.558C346.57 454.56 340.805 445.124 340.805 431.2H338.805C338.805 445.776 344.891 455.84 354.359 462.217C363.773 468.557 376.445 471.2 389.605 471.2V469.2ZM340.805 431.2V252.4H338.805V431.2H340.805ZM339.805 253.4H382.105V251.4H339.805V253.4ZM381.105 252.4V424.3H383.105V252.4H381.105ZM381.105 424.3C381.105 427.318 381.327 430.999 382.445 433.954C383.008 435.442 383.821 436.808 385.005 437.805C386.207 438.818 387.732 439.4 389.605 439.4V437.4C388.179 437.4 387.116 436.969 386.294 436.276C385.452 435.567 384.803 434.533 384.316 433.246C383.334 430.651 383.105 427.282 383.105 424.3H381.105ZM389.605 439.4C391.479 439.4 393.004 438.818 394.206 437.805C395.39 436.808 396.203 435.442 396.766 433.954C397.884 430.999 398.105 427.318 398.105 424.3H396.105C396.105 427.282 395.877 430.651 394.895 433.246C394.408 434.533 393.759 435.567 392.917 436.276C392.094 436.969 391.032 437.4 389.605 437.4V439.4ZM398.105 424.3V252.4H396.105V424.3H398.105ZM397.105 253.4H439.405V251.4H397.105V253.4ZM516.241 283V282H515.241V283H516.241ZM516.241 466V467H517.241V466H516.241ZM473.941 466H472.941V467H473.941V466ZM473.941 283H474.941V282H473.941V283ZM445.441 283H444.441V284H445.441V283ZM445.441 252.4V251.4H444.441V252.4H445.441ZM544.741 252.4H545.741V251.4H544.741V252.4ZM544.741 283V284H545.741V283H544.741ZM515.241 283V466H517.241V283H515.241ZM516.241 465H473.941V467H516.241V465ZM474.941 466V283H472.941V466H474.941ZM473.941 282H445.441V284H473.941V282ZM446.441 283V252.4H444.441V283H446.441ZM445.441 253.4H544.741V251.4H445.441V253.4ZM543.741 252.4V283H545.741V252.4H543.741ZM544.741 282H516.241V284H544.741V282ZM645.414 466V467H646.414V466H645.414ZM607.314 466H606.314V467H607.314V466ZM607.314 252.4V251.4H606.314V252.4H607.314ZM672.414 252.4L673.406 252.273L673.295 251.4H672.414V252.4ZM690.714 395.8L689.722 395.927L689.834 396.8H690.714V395.8ZM691.314 395.8V396.8H692.178L692.303 395.945L691.314 395.8ZM712.314 252.4V251.4H711.45L711.325 252.255L712.314 252.4ZM771.414 252.4H772.414V251.4H771.414V252.4ZM771.414 466V467H772.414V466H771.414ZM733.314 466H732.314V467H733.314V466ZM733.314 309.4H734.314V308.986L734.021 308.693L733.314 309.4ZM732.714 308.8L733.421 308.093L732.043 306.715L731.727 308.638L732.714 308.8ZM706.914 466V467H707.763L707.901 466.162L706.914 466ZM670.614 466L669.627 466.158L669.761 467H670.614V466ZM646.014 311.8L647.002 311.642L646.867 310.8H646.014V311.8ZM645.414 311.8V310.8H644.414V311.8H645.414ZM645.414 465H607.314V467H645.414V465ZM608.314 466V252.4H606.314V466H608.314ZM607.314 253.4H672.414V251.4H607.314V253.4ZM671.422 252.527L689.722 395.927L691.706 395.673L673.406 252.273L671.422 252.527ZM690.714 396.8H691.314V394.8H690.714V396.8ZM692.303 395.945L713.303 252.545L711.325 252.255L690.325 395.655L692.303 395.945ZM712.314 253.4H771.414V251.4H712.314V253.4ZM770.414 252.4V466H772.414V252.4H770.414ZM771.414 465H733.314V467H771.414V465ZM734.314 466V309.4H732.314V466H734.314ZM734.021 308.693L733.421 308.093L732.007 309.507L732.607 310.107L734.021 308.693ZM731.727 308.638L705.927 465.838L707.901 466.162L733.701 308.962L731.727 308.638ZM706.914 465H670.614V467H706.914V465ZM671.602 465.842L647.002 311.642L645.027 311.958L669.627 466.158L671.602 465.842ZM646.014 310.8H645.414V312.8H646.014V310.8ZM644.414 311.8V466H646.414V311.8H644.414ZM864.346 466V467H865.346V466H864.346ZM785.146 466H784.146V467H785.146V466ZM785.146 252.4V251.4H784.146V252.4H785.146ZM864.346 252.4H865.346V251.4H864.346V252.4ZM864.346 283V284H865.346V283H864.346ZM827.446 283V282H826.446V283H827.446ZM827.446 331.9H826.446V332.9H827.446V331.9ZM862.846 331.9H863.846V330.9H862.846V331.9ZM862.846 362.5V363.5H863.846V362.5H862.846ZM827.446 362.5V361.5H826.446V362.5H827.446ZM827.446 435.4H826.446V436.4H827.446V435.4ZM864.346 435.4H865.346V434.4H864.346V435.4ZM864.346 465H785.146V467H864.346V465ZM786.146 466V252.4H784.146V466H786.146ZM785.146 253.4H864.346V251.4H785.146V253.4ZM863.346 252.4V283H865.346V252.4H863.346ZM864.346 282H827.446V284H864.346V282ZM826.446 283V331.9H828.446V283H826.446ZM827.446 332.9H862.846V330.9H827.446V332.9ZM861.846 331.9V362.5H863.846V331.9H861.846ZM862.846 361.5H827.446V363.5H862.846V361.5ZM826.446 362.5V435.4H828.446V362.5H826.446ZM827.446 436.4H864.346V434.4H827.446V436.4ZM863.346 435.4V466H865.346V435.4H863.346Z" fill="url(#paint0_linear_219_4108)" mask="url(#path-9-inside-2_219_4108)"/>
</g>
<g filter="url(#filter8_d_219_4108)">
<mask id="path-11-inside-3_219_4108" fill="white">
<path d="M47.8 1121.2H61.6L55.9 1033.6H54.7L47.8 1121.2ZM-0.2 1210L31.6 996.4H87.7L113.2 1210H69.1L64.3 1151.8H44.2L37.6 1210H-0.2ZM175.035 1071.7V1040.5C175.035 1030.3 172.035 1027 165.135 1027H160.035V1085.2H165.135C172.035 1085.2 175.035 1081.9 175.035 1071.7ZM117.735 1210V996.4H167.535C193.635 996.4 217.335 1006.9 217.335 1039.6V1055.8C217.335 1076.2 212.535 1090.6 185.535 1096V1096.9C207.435 1099 217.335 1109.2 217.335 1143.4V1162C217.335 1198.6 200.235 1210 167.535 1210H117.735ZM160.035 1111.6V1179.4H165.135C172.035 1179.4 175.035 1177.6 175.035 1169.2V1121.8C175.035 1113.4 172.035 1111.6 165.135 1111.6H160.035ZM228.77 1175.2V1031.2C228.77 1002.7 252.47 992.2 278.57 992.2C304.67 992.2 328.37 1002.7 328.37 1031.2V1175.2C328.37 1203.7 304.67 1214.2 278.57 1214.2C252.47 1214.2 228.77 1203.7 228.77 1175.2ZM286.07 1168.3V1038.1C286.07 1032.1 285.17 1024 278.57 1024C271.97 1024 271.07 1032.1 271.07 1038.1V1168.3C271.07 1174.3 271.97 1182.4 278.57 1182.4C285.17 1182.4 286.07 1174.3 286.07 1168.3ZM439.405 996.4V1175.2C439.405 1203.7 415.705 1214.2 389.605 1214.2C363.505 1214.2 339.805 1203.7 339.805 1175.2V996.4H382.105V1168.3C382.105 1174.3 383.005 1182.4 389.605 1182.4C396.205 1182.4 397.105 1174.3 397.105 1168.3V996.4H439.405ZM516.241 1027V1210H473.941V1027H445.441V996.4H544.741V1027H516.241ZM645.414 1210H607.314V996.4H672.414L690.714 1139.8H691.314L712.314 996.4H771.414V1210H733.314V1053.4L732.714 1052.8L706.914 1210H670.614L646.014 1055.8H645.414V1210ZM864.346 1210H785.146V996.4H864.346V1027H827.446V1075.9H862.846V1106.5H827.446V1179.4H864.346V1210Z"/>
</mask>
<path d="M47.8 1121.2L46.8031 1121.12L46.7181 1122.2H47.8V1121.2ZM61.6 1121.2V1122.2H62.6672L62.5979 1121.14L61.6 1121.2ZM55.9 1033.6L56.8979 1033.54L56.837 1032.6H55.9V1033.6ZM54.7 1033.6V1032.6H53.7757L53.7031 1033.52L54.7 1033.6ZM-0.2 1210L-1.1891 1209.85L-1.3599 1211H-0.2V1210ZM31.6 996.4V995.4H30.7379L30.6109 996.253L31.6 996.4ZM87.7 996.4L88.6929 996.281L88.5877 995.4H87.7V996.4ZM113.2 1210V1211H114.326L114.193 1209.88L113.2 1210ZM69.1 1210L68.1034 1210.08L68.1791 1211H69.1V1210ZM64.3 1151.8L65.2966 1151.72L65.2209 1150.8H64.3V1151.8ZM44.2 1151.8V1150.8H43.307L43.2064 1151.69L44.2 1151.8ZM37.6 1210V1211H38.493L38.5936 1210.11L37.6 1210ZM47.8 1122.2H61.6V1120.2H47.8V1122.2ZM62.5979 1121.14L56.8979 1033.54L54.9021 1033.66L60.6021 1121.26L62.5979 1121.14ZM55.9 1032.6H54.7V1034.6H55.9V1032.6ZM53.7031 1033.52L46.8031 1121.12L48.7969 1121.28L55.6969 1033.68L53.7031 1033.52ZM0.789099 1210.15L32.5891 996.547L30.6109 996.253L-1.1891 1209.85L0.789099 1210.15ZM31.6 997.4H87.7V995.4H31.6V997.4ZM86.707 996.519L112.207 1210.12L114.193 1209.88L88.6929 996.281L86.707 996.519ZM113.2 1209H69.1V1211H113.2V1209ZM70.0966 1209.92L65.2966 1151.72L63.3034 1151.88L68.1034 1210.08L70.0966 1209.92ZM64.3 1150.8H44.2V1152.8H64.3V1150.8ZM43.2064 1151.69L36.6064 1209.89L38.5936 1210.11L45.1936 1151.91L43.2064 1151.69ZM37.6 1209H-0.2V1211H37.6V1209ZM160.035 1027V1026H159.035V1027H160.035ZM160.035 1085.2H159.035V1086.2H160.035V1085.2ZM117.735 1210H116.735V1211H117.735V1210ZM117.735 996.4V995.4H116.735V996.4H117.735ZM185.535 1096L185.339 1095.02L184.535 1095.18V1096H185.535ZM185.535 1096.9H184.535V1097.81L185.44 1097.9L185.535 1096.9ZM160.035 1111.6V1110.6H159.035V1111.6H160.035ZM160.035 1179.4H159.035V1180.4H160.035V1179.4ZM176.035 1071.7V1040.5H174.035V1071.7H176.035ZM176.035 1040.5C176.035 1035.36 175.29 1031.69 173.466 1029.32C171.583 1026.86 168.733 1026 165.135 1026V1028C168.437 1028 170.537 1028.79 171.879 1030.53C173.28 1032.36 174.035 1035.44 174.035 1040.5H176.035ZM165.135 1026H160.035V1028H165.135V1026ZM159.035 1027V1085.2H161.035V1027H159.035ZM160.035 1086.2H165.135V1084.2H160.035V1086.2ZM165.135 1086.2C168.733 1086.2 171.583 1085.34 173.466 1082.88C175.29 1080.51 176.035 1076.84 176.035 1071.7H174.035C174.035 1076.76 173.28 1079.84 171.879 1081.67C170.537 1083.41 168.437 1084.2 165.135 1084.2V1086.2ZM118.735 1210V996.4H116.735V1210H118.735ZM117.735 997.4H167.535V995.4H117.735V997.4ZM167.535 997.4C180.477 997.4 192.684 1000.01 201.633 1006.54C210.528 1013.04 216.335 1023.52 216.335 1039.6H218.335C218.335 1022.98 212.293 1011.86 202.813 1004.93C193.386 998.043 180.694 995.4 167.535 995.4V997.4ZM216.335 1039.6V1055.8H218.335V1039.6H216.335ZM216.335 1055.8C216.335 1065.96 215.132 1074.4 210.73 1080.97C206.353 1087.5 198.686 1092.35 185.339 1095.02L185.731 1096.98C199.384 1094.25 207.618 1089.2 212.391 1082.08C217.138 1075 218.335 1066.04 218.335 1055.8H216.335ZM184.535 1096V1096.9H186.535V1096H184.535ZM185.44 1097.9C196.262 1098.93 203.873 1101.95 208.842 1108.7C213.857 1115.52 216.335 1126.35 216.335 1143.4H218.335C218.335 1126.25 215.863 1114.88 210.453 1107.52C204.997 1100.1 196.708 1096.97 185.631 1095.9L185.44 1097.9ZM216.335 1143.4V1162H218.335V1143.4H216.335ZM216.335 1162C216.335 1180.17 212.09 1191.82 204.034 1198.98C195.95 1206.15 183.81 1209 167.535 1209V1211C183.961 1211 196.72 1208.15 205.362 1200.47C214.03 1192.78 218.335 1180.43 218.335 1162H216.335ZM167.535 1209H117.735V1211H167.535V1209ZM159.035 1111.6V1179.4H161.035V1111.6H159.035ZM160.035 1180.4H165.135V1178.4H160.035V1180.4ZM165.135 1180.4C168.604 1180.4 171.436 1179.97 173.354 1178.18C175.287 1176.38 176.035 1173.46 176.035 1169.2H174.035C174.035 1173.34 173.283 1175.52 171.992 1176.72C170.684 1177.93 168.567 1178.4 165.135 1178.4V1180.4ZM176.035 1169.2V1121.8H174.035V1169.2H176.035ZM176.035 1121.8C176.035 1117.54 175.287 1114.62 173.354 1112.82C171.436 1111.03 168.603 1110.6 165.135 1110.6V1112.6C168.567 1112.6 170.684 1113.07 171.992 1114.28C173.283 1115.48 174.035 1117.66 174.035 1121.8H176.035ZM165.135 1110.6H160.035V1112.6H165.135V1110.6ZM229.77 1175.2V1031.2H227.77V1175.2H229.77ZM229.77 1031.2C229.77 1017.28 235.535 1007.84 244.441 1001.84C253.403 995.807 265.63 993.2 278.57 993.2V991.2C265.41 991.2 252.738 993.843 243.324 1000.18C233.855 1006.56 227.77 1016.62 227.77 1031.2H229.77ZM278.57 993.2C291.51 993.2 303.738 995.807 312.699 1001.84C321.605 1007.84 327.37 1017.28 327.37 1031.2H329.37C329.37 1016.62 323.285 1006.56 313.816 1000.18C304.403 993.843 291.73 991.2 278.57 991.2V993.2ZM327.37 1031.2V1175.2H329.37V1031.2H327.37ZM327.37 1175.2C327.37 1189.12 321.605 1198.56 312.699 1204.56C303.738 1210.59 291.51 1213.2 278.57 1213.2V1215.2C291.73 1215.2 304.403 1212.56 313.816 1206.22C323.285 1199.84 329.37 1189.78 329.37 1175.2H327.37ZM278.57 1213.2C265.63 1213.2 253.403 1210.59 244.441 1204.56C235.535 1198.56 229.77 1189.12 229.77 1175.2H227.77C227.77 1189.78 233.855 1199.84 243.324 1206.22C252.738 1212.56 265.41 1215.2 278.57 1215.2V1213.2ZM287.07 1168.3V1038.1H285.07V1168.3H287.07ZM287.07 1038.1C287.07 1035.08 286.849 1031.4 285.731 1028.45C285.168 1026.96 284.355 1025.59 283.171 1024.59C281.969 1023.58 280.444 1023 278.57 1023V1025C279.997 1025 281.059 1025.43 281.882 1026.12C282.723 1026.83 283.373 1027.87 283.86 1029.15C284.842 1031.75 285.07 1035.12 285.07 1038.1H287.07ZM278.57 1023C276.697 1023 275.172 1023.58 273.97 1024.59C272.786 1025.59 271.973 1026.96 271.41 1028.45C270.292 1031.4 270.07 1035.08 270.07 1038.1H272.07C272.07 1035.12 272.299 1031.75 273.281 1029.15C273.768 1027.87 274.417 1026.83 275.258 1026.12C276.081 1025.43 277.144 1025 278.57 1025V1023ZM270.07 1038.1V1168.3H272.07V1038.1H270.07ZM270.07 1168.3C270.07 1171.32 270.292 1175 271.41 1177.95C271.973 1179.44 272.786 1180.81 273.97 1181.81C275.172 1182.82 276.697 1183.4 278.57 1183.4V1181.4C277.144 1181.4 276.081 1180.97 275.258 1180.28C274.417 1179.57 273.768 1178.53 273.281 1177.25C272.299 1174.65 272.07 1171.28 272.07 1168.3H270.07ZM278.57 1183.4C280.444 1183.4 281.969 1182.82 283.171 1181.81C284.355 1180.81 285.168 1179.44 285.731 1177.95C286.849 1175 287.07 1171.32 287.07 1168.3H285.07C285.07 1171.28 284.842 1174.65 283.86 1177.25C283.373 1178.53 282.723 1179.57 281.882 1180.28C281.059 1180.97 279.997 1181.4 278.57 1181.4V1183.4ZM439.405 996.4H440.405V995.4H439.405V996.4ZM339.805 996.4V995.4H338.805V996.4H339.805ZM382.105 996.4H383.105V995.4H382.105V996.4ZM397.105 996.4V995.4H396.105V996.4H397.105ZM438.405 996.4V1175.2H440.405V996.4H438.405ZM438.405 1175.2C438.405 1189.12 432.641 1198.56 423.734 1204.56C414.773 1210.59 402.545 1213.2 389.605 1213.2V1215.2C402.765 1215.2 415.438 1212.56 424.852 1206.22C434.32 1199.84 440.405 1189.78 440.405 1175.2H438.405ZM389.605 1213.2C376.665 1213.2 364.438 1210.59 355.477 1204.56C346.57 1198.56 340.805 1189.12 340.805 1175.2H338.805C338.805 1189.78 344.891 1199.84 354.359 1206.22C363.773 1212.56 376.445 1215.2 389.605 1215.2V1213.2ZM340.805 1175.2V996.4H338.805V1175.2H340.805ZM339.805 997.4H382.105V995.4H339.805V997.4ZM381.105 996.4V1168.3H383.105V996.4H381.105ZM381.105 1168.3C381.105 1171.32 381.327 1175 382.445 1177.95C383.008 1179.44 383.821 1180.81 385.005 1181.81C386.207 1182.82 387.732 1183.4 389.605 1183.4V1181.4C388.179 1181.4 387.116 1180.97 386.294 1180.28C385.452 1179.57 384.803 1178.53 384.316 1177.25C383.334 1174.65 383.105 1171.28 383.105 1168.3H381.105ZM389.605 1183.4C391.479 1183.4 393.004 1182.82 394.206 1181.81C395.39 1180.81 396.203 1179.44 396.766 1177.95C397.884 1175 398.105 1171.32 398.105 1168.3H396.105C396.105 1171.28 395.877 1174.65 394.895 1177.25C394.408 1178.53 393.759 1179.57 392.917 1180.28C392.094 1180.97 391.032 1181.4 389.605 1181.4V1183.4ZM398.105 1168.3V996.4H396.105V1168.3H398.105ZM397.105 997.4H439.405V995.4H397.105V997.4ZM516.241 1027V1026H515.241V1027H516.241ZM516.241 1210V1211H517.241V1210H516.241ZM473.941 1210H472.941V1211H473.941V1210ZM473.941 1027H474.941V1026H473.941V1027ZM445.441 1027H444.441V1028H445.441V1027ZM445.441 996.4V995.4H444.441V996.4H445.441ZM544.741 996.4H545.741V995.4H544.741V996.4ZM544.741 1027V1028H545.741V1027H544.741ZM515.241 1027V1210H517.241V1027H515.241ZM516.241 1209H473.941V1211H516.241V1209ZM474.941 1210V1027H472.941V1210H474.941ZM473.941 1026H445.441V1028H473.941V1026ZM446.441 1027V996.4H444.441V1027H446.441ZM445.441 997.4H544.741V995.4H445.441V997.4ZM543.741 996.4V1027H545.741V996.4H543.741ZM544.741 1026H516.241V1028H544.741V1026ZM645.414 1210V1211H646.414V1210H645.414ZM607.314 1210H606.314V1211H607.314V1210ZM607.314 996.4V995.4H606.314V996.4H607.314ZM672.414 996.4L673.406 996.273L673.295 995.4H672.414V996.4ZM690.714 1139.8L689.722 1139.93L689.834 1140.8H690.714V1139.8ZM691.314 1139.8V1140.8H692.178L692.303 1139.94L691.314 1139.8ZM712.314 996.4V995.4H711.45L711.325 996.255L712.314 996.4ZM771.414 996.4H772.414V995.4H771.414V996.4ZM771.414 1210V1211H772.414V1210H771.414ZM733.314 1210H732.314V1211H733.314V1210ZM733.314 1053.4H734.314V1052.99L734.021 1052.69L733.314 1053.4ZM732.714 1052.8L733.421 1052.09L732.043 1050.71L731.727 1052.64L732.714 1052.8ZM706.914 1210V1211H707.763L707.901 1210.16L706.914 1210ZM670.614 1210L669.627 1210.16L669.761 1211H670.614V1210ZM646.014 1055.8L647.002 1055.64L646.867 1054.8H646.014V1055.8ZM645.414 1055.8V1054.8H644.414V1055.8H645.414ZM645.414 1209H607.314V1211H645.414V1209ZM608.314 1210V996.4H606.314V1210H608.314ZM607.314 997.4H672.414V995.4H607.314V997.4ZM671.422 996.527L689.722 1139.93L691.706 1139.67L673.406 996.273L671.422 996.527ZM690.714 1140.8H691.314V1138.8H690.714V1140.8ZM692.303 1139.94L713.303 996.545L711.325 996.255L690.325 1139.66L692.303 1139.94ZM712.314 997.4H771.414V995.4H712.314V997.4ZM770.414 996.4V1210H772.414V996.4H770.414ZM771.414 1209H733.314V1211H771.414V1209ZM734.314 1210V1053.4H732.314V1210H734.314ZM734.021 1052.69L733.421 1052.09L732.007 1053.51L732.607 1054.11L734.021 1052.69ZM731.727 1052.64L705.927 1209.84L707.901 1210.16L733.701 1052.96L731.727 1052.64ZM706.914 1209H670.614V1211H706.914V1209ZM671.602 1209.84L647.002 1055.64L645.027 1055.96L669.627 1210.16L671.602 1209.84ZM646.014 1054.8H645.414V1056.8H646.014V1054.8ZM644.414 1055.8V1210H646.414V1055.8H644.414ZM864.346 1210V1211H865.346V1210H864.346ZM785.146 1210H784.146V1211H785.146V1210ZM785.146 996.4V995.4H784.146V996.4H785.146ZM864.346 996.4H865.346V995.4H864.346V996.4ZM864.346 1027V1028H865.346V1027H864.346ZM827.446 1027V1026H826.446V1027H827.446ZM827.446 1075.9H826.446V1076.9H827.446V1075.9ZM862.846 1075.9H863.846V1074.9H862.846V1075.9ZM862.846 1106.5V1107.5H863.846V1106.5H862.846ZM827.446 1106.5V1105.5H826.446V1106.5H827.446ZM827.446 1179.4H826.446V1180.4H827.446V1179.4ZM864.346 1179.4H865.346V1178.4H864.346V1179.4ZM864.346 1209H785.146V1211H864.346V1209ZM786.146 1210V996.4H784.146V1210H786.146ZM785.146 997.4H864.346V995.4H785.146V997.4ZM863.346 996.4V1027H865.346V996.4H863.346ZM864.346 1026H827.446V1028H864.346V1026ZM826.446 1027V1075.9H828.446V1027H826.446ZM827.446 1076.9H862.846V1074.9H827.446V1076.9ZM861.846 1075.9V1106.5H863.846V1075.9H861.846ZM862.846 1105.5H827.446V1107.5H862.846V1105.5ZM826.446 1106.5V1179.4H828.446V1106.5H826.446ZM827.446 1180.4H864.346V1178.4H827.446V1180.4ZM863.346 1179.4V1210H865.346V1179.4H863.346Z" fill="white" mask="url(#path-11-inside-3_219_4108)"/>
</g>
<g filter="url(#filter9_d_219_4108)">
<mask id="path-13-inside-4_219_4108" fill="white">
<path d="M47.8 874.2H61.6L55.9 786.6H54.7L47.8 874.2ZM-0.2 963L31.6 749.4H87.7L113.2 963H69.1L64.3 904.8H44.2L37.6 963H-0.2ZM175.035 824.7V793.5C175.035 783.3 172.035 780 165.135 780H160.035V838.2H165.135C172.035 838.2 175.035 834.9 175.035 824.7ZM117.735 963V749.4H167.535C193.635 749.4 217.335 759.9 217.335 792.6V808.8C217.335 829.2 212.535 843.6 185.535 849V849.9C207.435 852 217.335 862.2 217.335 896.4V915C217.335 951.6 200.235 963 167.535 963H117.735ZM160.035 864.6V932.4H165.135C172.035 932.4 175.035 930.6 175.035 922.2V874.8C175.035 866.4 172.035 864.6 165.135 864.6H160.035ZM228.77 928.2V784.2C228.77 755.7 252.47 745.2 278.57 745.2C304.67 745.2 328.37 755.7 328.37 784.2V928.2C328.37 956.7 304.67 967.2 278.57 967.2C252.47 967.2 228.77 956.7 228.77 928.2ZM286.07 921.3V791.1C286.07 785.1 285.17 777 278.57 777C271.97 777 271.07 785.1 271.07 791.1V921.3C271.07 927.3 271.97 935.4 278.57 935.4C285.17 935.4 286.07 927.3 286.07 921.3ZM439.405 749.4V928.2C439.405 956.7 415.705 967.2 389.605 967.2C363.505 967.2 339.805 956.7 339.805 928.2V749.4H382.105V921.3C382.105 927.3 383.005 935.4 389.605 935.4C396.205 935.4 397.105 927.3 397.105 921.3V749.4H439.405ZM516.241 780V963H473.941V780H445.441V749.4H544.741V780H516.241ZM645.414 963H607.314V749.4H672.414L690.714 892.8H691.314L712.314 749.4H771.414V963H733.314V806.4L732.714 805.8L706.914 963H670.614L646.014 808.8H645.414V963ZM864.346 963H785.146V749.4H864.346V780H827.446V828.9H862.846V859.5H827.446V932.4H864.346V963Z"/>
</mask>
<path d="M47.8 874.2L46.8031 874.121L46.7181 875.2H47.8V874.2ZM61.6 874.2V875.2H62.6672L62.5979 874.135L61.6 874.2ZM55.9 786.6L56.8979 786.535L56.837 785.6H55.9V786.6ZM54.7 786.6V785.6H53.7757L53.7031 786.521L54.7 786.6ZM-0.2 963L-1.1891 962.853L-1.3599 964H-0.2V963ZM31.6 749.4V748.4H30.7379L30.6109 749.253L31.6 749.4ZM87.7 749.4L88.6929 749.281L88.5877 748.4H87.7V749.4ZM113.2 963V964H114.326L114.193 962.881L113.2 963ZM69.1 963L68.1034 963.082L68.1791 964H69.1V963ZM64.3 904.8L65.2966 904.718L65.2209 903.8H64.3V904.8ZM44.2 904.8V903.8H43.307L43.2064 904.687L44.2 904.8ZM37.6 963V964H38.493L38.5936 963.113L37.6 963ZM47.8 875.2H61.6V873.2H47.8V875.2ZM62.5979 874.135L56.8979 786.535L54.9021 786.665L60.6021 874.265L62.5979 874.135ZM55.9 785.6H54.7V787.6H55.9V785.6ZM53.7031 786.521L46.8031 874.121L48.7969 874.279L55.6969 786.679L53.7031 786.521ZM0.789099 963.147L32.5891 749.547L30.6109 749.253L-1.1891 962.853L0.789099 963.147ZM31.6 750.4H87.7V748.4H31.6V750.4ZM86.707 749.519L112.207 963.119L114.193 962.881L88.6929 749.281L86.707 749.519ZM113.2 962H69.1V964H113.2V962ZM70.0966 962.918L65.2966 904.718L63.3034 904.882L68.1034 963.082L70.0966 962.918ZM64.3 903.8H44.2V905.8H64.3V903.8ZM43.2064 904.687L36.6064 962.887L38.5936 963.113L45.1936 904.913L43.2064 904.687ZM37.6 962H-0.2V964H37.6V962ZM160.035 780V779H159.035V780H160.035ZM160.035 838.2H159.035V839.2H160.035V838.2ZM117.735 963H116.735V964H117.735V963ZM117.735 749.4V748.4H116.735V749.4H117.735ZM185.535 849L185.339 848.019L184.535 848.18V849H185.535ZM185.535 849.9H184.535V850.809L185.44 850.895L185.535 849.9ZM160.035 864.6V863.6H159.035V864.6H160.035ZM160.035 932.4H159.035V933.4H160.035V932.4ZM176.035 824.7V793.5H174.035V824.7H176.035ZM176.035 793.5C176.035 788.355 175.29 784.692 173.466 782.316C171.583 779.864 168.733 779 165.135 779V781C168.437 781 170.537 781.786 171.879 783.534C173.28 785.358 174.035 788.444 174.035 793.5H176.035ZM165.135 779H160.035V781H165.135V779ZM159.035 780V838.2H161.035V780H159.035ZM160.035 839.2H165.135V837.2H160.035V839.2ZM165.135 839.2C168.733 839.2 171.583 838.336 173.466 835.884C175.29 833.508 176.035 829.844 176.035 824.7H174.035C174.035 829.755 173.28 832.842 171.879 834.666C170.537 836.414 168.437 837.2 165.135 837.2V839.2ZM118.735 963V749.4H116.735V963H118.735ZM117.735 750.4H167.535V748.4H117.735V750.4ZM167.535 750.4C180.477 750.4 192.684 753.007 201.633 759.545C210.528 766.044 216.335 776.523 216.335 792.6H218.335C218.335 775.977 212.293 764.856 202.813 757.93C193.386 751.043 180.694 748.4 167.535 748.4V750.4ZM216.335 792.6V808.8H218.335V792.6H216.335ZM216.335 808.8C216.335 818.955 215.132 827.401 210.73 833.968C206.353 840.497 198.686 845.35 185.339 848.019L185.731 849.981C199.384 847.25 207.618 842.203 212.391 835.082C217.138 827.999 218.335 819.045 218.335 808.8H216.335ZM184.535 849V849.9H186.535V849H184.535ZM185.44 850.895C196.262 851.933 203.873 854.948 208.842 861.705C213.857 868.524 216.335 879.349 216.335 896.4H218.335C218.335 879.251 215.863 867.876 210.453 860.52C204.997 853.102 196.708 849.967 185.631 848.905L185.44 850.895ZM216.335 896.4V915H218.335V896.4H216.335ZM216.335 915C216.335 933.167 212.09 944.824 204.034 951.977C195.95 959.155 183.81 962 167.535 962V964C183.961 964 196.72 961.145 205.362 953.473C214.03 945.776 218.335 933.433 218.335 915H216.335ZM167.535 962H117.735V964H167.535V962ZM159.035 864.6V932.4H161.035V864.6H159.035ZM160.035 933.4H165.135V931.4H160.035V933.4ZM165.135 933.4C168.604 933.4 171.436 932.966 173.354 931.182C175.287 929.384 176.035 926.461 176.035 922.2H174.035C174.035 926.339 173.283 928.516 171.992 929.718C170.684 930.934 168.567 931.4 165.135 931.4V933.4ZM176.035 922.2V874.8H174.035V922.2H176.035ZM176.035 874.8C176.035 870.539 175.287 867.616 173.354 865.818C171.436 864.034 168.603 863.6 165.135 863.6V865.6C168.567 865.6 170.684 866.066 171.992 867.282C173.283 868.484 174.035 870.661 174.035 874.8H176.035ZM165.135 863.6H160.035V865.6H165.135V863.6ZM229.77 928.2V784.2H227.77V928.2H229.77ZM229.77 784.2C229.77 770.276 235.535 760.84 244.441 754.842C253.403 748.807 265.63 746.2 278.57 746.2V744.2C265.41 744.2 252.738 746.843 243.324 753.183C233.855 759.56 227.77 769.624 227.77 784.2H229.77ZM278.57 746.2C291.51 746.2 303.738 748.807 312.699 754.842C321.605 760.84 327.37 770.276 327.37 784.2H329.37C329.37 769.624 323.285 759.56 313.816 753.183C304.403 746.843 291.73 744.2 278.57 744.2V746.2ZM327.37 784.2V928.2H329.37V784.2H327.37ZM327.37 928.2C327.37 942.124 321.605 951.56 312.699 957.558C303.738 963.593 291.51 966.2 278.57 966.2V968.2C291.73 968.2 304.403 965.557 313.816 959.217C323.285 952.84 329.37 942.776 329.37 928.2H327.37ZM278.57 966.2C265.63 966.2 253.403 963.593 244.441 957.558C235.535 951.56 229.77 942.124 229.77 928.2H227.77C227.77 942.776 233.855 952.84 243.324 959.217C252.738 965.557 265.41 968.2 278.57 968.2V966.2ZM287.07 921.3V791.1H285.07V921.3H287.07ZM287.07 791.1C287.07 788.082 286.849 784.401 285.731 781.446C285.168 779.958 284.355 778.592 283.171 777.595C281.969 776.582 280.444 776 278.57 776V778C279.997 778 281.059 778.431 281.882 779.124C282.723 779.833 283.373 780.867 283.86 782.154C284.842 784.749 285.07 788.118 285.07 791.1H287.07ZM278.57 776C276.697 776 275.172 776.582 273.97 777.595C272.786 778.592 271.973 779.958 271.41 781.446C270.292 784.401 270.07 788.082 270.07 791.1H272.07C272.07 788.118 272.299 784.749 273.281 782.154C273.768 780.867 274.417 779.833 275.258 779.124C276.081 778.431 277.144 778 278.57 778V776ZM270.07 791.1V921.3H272.07V791.1H270.07ZM270.07 921.3C270.07 924.318 270.292 927.999 271.41 930.954C271.973 932.442 272.786 933.808 273.97 934.805C275.172 935.818 276.697 936.4 278.57 936.4V934.4C277.144 934.4 276.081 933.969 275.258 933.276C274.417 932.567 273.768 931.533 273.281 930.246C272.299 927.651 272.07 924.282 272.07 921.3H270.07ZM278.57 936.4C280.444 936.4 281.969 935.818 283.171 934.805C284.355 933.808 285.168 932.442 285.731 930.954C286.849 927.999 287.07 924.318 287.07 921.3H285.07C285.07 924.282 284.842 927.651 283.86 930.246C283.373 931.533 282.723 932.567 281.882 933.276C281.059 933.969 279.997 934.4 278.57 934.4V936.4ZM439.405 749.4H440.405V748.4H439.405V749.4ZM339.805 749.4V748.4H338.805V749.4H339.805ZM382.105 749.4H383.105V748.4H382.105V749.4ZM397.105 749.4V748.4H396.105V749.4H397.105ZM438.405 749.4V928.2H440.405V749.4H438.405ZM438.405 928.2C438.405 942.124 432.641 951.56 423.734 957.558C414.773 963.593 402.545 966.2 389.605 966.2V968.2C402.765 968.2 415.438 965.557 424.852 959.217C434.32 952.84 440.405 942.776 440.405 928.2H438.405ZM389.605 966.2C376.665 966.2 364.438 963.593 355.477 957.558C346.57 951.56 340.805 942.124 340.805 928.2H338.805C338.805 942.776 344.891 952.84 354.359 959.217C363.773 965.557 376.445 968.2 389.605 968.2V966.2ZM340.805 928.2V749.4H338.805V928.2H340.805ZM339.805 750.4H382.105V748.4H339.805V750.4ZM381.105 749.4V921.3H383.105V749.4H381.105ZM381.105 921.3C381.105 924.318 381.327 927.999 382.445 930.954C383.008 932.442 383.821 933.808 385.005 934.805C386.207 935.818 387.732 936.4 389.605 936.4V934.4C388.179 934.4 387.116 933.969 386.294 933.276C385.452 932.567 384.803 931.533 384.316 930.246C383.334 927.651 383.105 924.282 383.105 921.3H381.105ZM389.605 936.4C391.479 936.4 393.004 935.818 394.206 934.805C395.39 933.808 396.203 932.442 396.766 930.954C397.884 927.999 398.105 924.318 398.105 921.3H396.105C396.105 924.282 395.877 927.651 394.895 930.246C394.408 931.533 393.759 932.567 392.917 933.276C392.094 933.969 391.032 934.4 389.605 934.4V936.4ZM398.105 921.3V749.4H396.105V921.3H398.105ZM397.105 750.4H439.405V748.4H397.105V750.4ZM516.241 780V779H515.241V780H516.241ZM516.241 963V964H517.241V963H516.241ZM473.941 963H472.941V964H473.941V963ZM473.941 780H474.941V779H473.941V780ZM445.441 780H444.441V781H445.441V780ZM445.441 749.4V748.4H444.441V749.4H445.441ZM544.741 749.4H545.741V748.4H544.741V749.4ZM544.741 780V781H545.741V780H544.741ZM515.241 780V963H517.241V780H515.241ZM516.241 962H473.941V964H516.241V962ZM474.941 963V780H472.941V963H474.941ZM473.941 779H445.441V781H473.941V779ZM446.441 780V749.4H444.441V780H446.441ZM445.441 750.4H544.741V748.4H445.441V750.4ZM543.741 749.4V780H545.741V749.4H543.741ZM544.741 779H516.241V781H544.741V779ZM645.414 963V964H646.414V963H645.414ZM607.314 963H606.314V964H607.314V963ZM607.314 749.4V748.4H606.314V749.4H607.314ZM672.414 749.4L673.406 749.273L673.295 748.4H672.414V749.4ZM690.714 892.8L689.722 892.927L689.834 893.8H690.714V892.8ZM691.314 892.8V893.8H692.178L692.303 892.945L691.314 892.8ZM712.314 749.4V748.4H711.45L711.325 749.255L712.314 749.4ZM771.414 749.4H772.414V748.4H771.414V749.4ZM771.414 963V964H772.414V963H771.414ZM733.314 963H732.314V964H733.314V963ZM733.314 806.4H734.314V805.986L734.021 805.693L733.314 806.4ZM732.714 805.8L733.421 805.093L732.043 803.715L731.727 805.638L732.714 805.8ZM706.914 963V964H707.763L707.901 963.162L706.914 963ZM670.614 963L669.627 963.158L669.761 964H670.614V963ZM646.014 808.8L647.002 808.642L646.867 807.8H646.014V808.8ZM645.414 808.8V807.8H644.414V808.8H645.414ZM645.414 962H607.314V964H645.414V962ZM608.314 963V749.4H606.314V963H608.314ZM607.314 750.4H672.414V748.4H607.314V750.4ZM671.422 749.527L689.722 892.927L691.706 892.673L673.406 749.273L671.422 749.527ZM690.714 893.8H691.314V891.8H690.714V893.8ZM692.303 892.945L713.303 749.545L711.325 749.255L690.325 892.655L692.303 892.945ZM712.314 750.4H771.414V748.4H712.314V750.4ZM770.414 749.4V963H772.414V749.4H770.414ZM771.414 962H733.314V964H771.414V962ZM734.314 963V806.4H732.314V963H734.314ZM734.021 805.693L733.421 805.093L732.007 806.507L732.607 807.107L734.021 805.693ZM731.727 805.638L705.927 962.838L707.901 963.162L733.701 805.962L731.727 805.638ZM706.914 962H670.614V964H706.914V962ZM671.602 962.842L647.002 808.642L645.027 808.958L669.627 963.158L671.602 962.842ZM646.014 807.8H645.414V809.8H646.014V807.8ZM644.414 808.8V963H646.414V808.8H644.414ZM864.346 963V964H865.346V963H864.346ZM785.146 963H784.146V964H785.146V963ZM785.146 749.4V748.4H784.146V749.4H785.146ZM864.346 749.4H865.346V748.4H864.346V749.4ZM864.346 780V781H865.346V780H864.346ZM827.446 780V779H826.446V780H827.446ZM827.446 828.9H826.446V829.9H827.446V828.9ZM862.846 828.9H863.846V827.9H862.846V828.9ZM862.846 859.5V860.5H863.846V859.5H862.846ZM827.446 859.5V858.5H826.446V859.5H827.446ZM827.446 932.4H826.446V933.4H827.446V932.4ZM864.346 932.4H865.346V931.4H864.346V932.4ZM864.346 962H785.146V964H864.346V962ZM786.146 963V749.4H784.146V963H786.146ZM785.146 750.4H864.346V748.4H785.146V750.4ZM863.346 749.4V780H865.346V749.4H863.346ZM864.346 779H827.446V781H864.346V779ZM826.446 780V828.9H828.446V780H826.446ZM827.446 829.9H862.846V827.9H827.446V829.9ZM861.846 828.9V859.5H863.846V828.9H861.846ZM862.846 858.5H827.446V860.5H862.846V858.5ZM826.446 859.5V932.4H828.446V859.5H826.446ZM827.446 933.4H864.346V931.4H827.446V933.4ZM863.346 932.4V963H865.346V932.4H863.346Z" fill="url(#paint1_linear_219_4108)" mask="url(#path-13-inside-4_219_4108)"/>
</g>
</g>
</g>
<g filter="url(#filter10_d_219_4108)">
<path d="M46.8 633.2H60.6L54.9 545.6H53.7L46.8 633.2ZM-1.2 722L30.6 508.4H86.7L112.2 722H68.1L63.3 663.8H43.2L36.6 722H-1.2ZM174.035 583.7V552.5C174.035 542.3 171.035 539 164.135 539H159.035V597.2H164.135C171.035 597.2 174.035 593.9 174.035 583.7ZM116.735 722V508.4H166.535C192.635 508.4 216.335 518.9 216.335 551.6V567.8C216.335 588.2 211.535 602.6 184.535 608V608.9C206.435 611 216.335 621.2 216.335 655.4V674C216.335 710.6 199.235 722 166.535 722H116.735ZM159.035 623.6V691.4H164.135C171.035 691.4 174.035 689.6 174.035 681.2V633.8C174.035 625.4 171.035 623.6 164.135 623.6H159.035ZM227.77 687.2V543.2C227.77 514.7 251.47 504.2 277.57 504.2C303.67 504.2 327.37 514.7 327.37 543.2V687.2C327.37 715.7 303.67 726.2 277.57 726.2C251.47 726.2 227.77 715.7 227.77 687.2ZM285.07 680.3V550.1C285.07 544.1 284.17 536 277.57 536C270.97 536 270.07 544.1 270.07 550.1V680.3C270.07 686.3 270.97 694.4 277.57 694.4C284.17 694.4 285.07 686.3 285.07 680.3ZM438.405 508.4V687.2C438.405 715.7 414.705 726.2 388.605 726.2C362.505 726.2 338.805 715.7 338.805 687.2V508.4H381.105V680.3C381.105 686.3 382.005 694.4 388.605 694.4C395.205 694.4 396.105 686.3 396.105 680.3V508.4H438.405ZM515.241 539V722H472.941V539H444.441V508.4H543.741V539H515.241ZM644.414 722H606.314V508.4H671.414L689.714 651.8H690.314L711.314 508.4H770.414V722H732.314V565.4L731.714 564.8L705.914 722H669.614L645.014 567.8H644.414V722ZM863.346 722H784.146V508.4H863.346V539H826.446V587.9H861.846V618.5H826.446V691.4H863.346V722Z" fill="white"/>
</g>
</g>
<defs>
<filter id="filter0_d_219_4108" x="-100.199" y="-95.7998" width="1064.55" height="422" filterUnits="userSpaceOnUse" color-interpolation-filters="sRGB">
<feFlood flood-opacity="0" result="BackgroundImageFix"/>
<feColorMatrix in="SourceAlpha" type="matrix" values="0 0 0 0 0 0 0 0 0 0 0 0 0 0 0 0 0 0 127 0" result="hardAlpha"/>
<feOffset dy="4"/>
<feGaussianBlur stdDeviation="50"/>
<feComposite in2="hardAlpha" operator="out"/>
<feColorMatrix type="matrix" values="0 0 0 0 0 0 0 0 0 0 0 0 0 0 0 0 0 0 0.25 0"/>
<feBlend mode="normal" in2="BackgroundImageFix" result="effect1_dropShadow_219_4108"/>
<feBlend mode="normal" in="SourceGraphic" in2="effect1_dropShadow_219_4108" result="shape"/>
</filter>
<filter id="filter1_d_219_4108" x="-100.199" y="152.2" width="1064.55" height="422" filterUnits="userSpaceOnUse" color-interpolation-filters="sRGB">
<feFlood flood-opacity="0" result="BackgroundImageFix"/>
<feColorMatrix in="SourceAlpha" type="matrix" values="0 0 0 0 0 0 0 0 0 0 0 0 0 0 0 0 0 0 127 0" result="hardAlpha"/>
<feOffset dy="4"/>
<feGaussianBlur stdDeviation="50"/>
<feComposite in2="hardAlpha" operator="out"/>
<feColorMatrix type="matrix" values="0 0 0 0 0 0 0 0 0 0 0 0 0 0 0 0 0 0 0.25 0"/>
<feBlend mode="normal" in2="BackgroundImageFix" result="effect1_dropShadow_219_4108"/>
<feBlend mode="normal" in="SourceGraphic" in2="effect1_dropShadow_219_4108" result="shape"/>
</filter>
<filter id="filter2_d_219_4108" x="-100.199" y="896.2" width="1064.55" height="422" filterUnits="userSpaceOnUse" color-interpolation-filters="sRGB">
<feFlood flood-opacity="0" result="BackgroundImageFix"/>
<feColorMatrix in="SourceAlpha" type="matrix" values="0 0 0 0 0 0 0 0 0 0 0 0 0 0 0 0 0 0 127 0" result="hardAlpha"/>
<feOffset dy="4"/>
<feGaussianBlur stdDeviation="50"/>
<feComposite in2="hardAlpha" operator="out"/>
<feColorMatrix type="matrix" values="0 0 0 0 0 0 0 0 0 0 0 0 0 0 0 0 0 0 0.25 0"/>
<feBlend mode="normal" in2="BackgroundImageFix" result="effect1_dropShadow_219_4108"/>
<feBlend mode="normal" in="SourceGraphic" in2="effect1_dropShadow_219_4108" result="shape"/>
</filter>
<filter id="filter3_d_219_4108" x="-100.199" y="1144.2" width="1064.55" height="422" filterUnits="userSpaceOnUse" color-interpolation-filters="sRGB">
<feFlood flood-opacity="0" result="BackgroundImageFix"/>
<feColorMatrix in="SourceAlpha" type="matrix" values="0 0 0 0 0 0 0 0 0 0 0 0 0 0 0 0 0 0 127 0" result="hardAlpha"/>
<feOffset dy="4"/>
<feGaussianBlur stdDeviation="50"/>
<feComposite in2="hardAlpha" operator="out"/>
<feColorMatrix type="matrix" values="0 0 0 0 0 0 0 0 0 0 0 0 0 0 0 0 0 0 0.25 0"/>
<feBlend mode="normal" in2="BackgroundImageFix" result="effect1_dropShadow_219_4108"/>
<feBlend mode="normal" in="SourceGraphic" in2="effect1_dropShadow_219_4108" result="shape"/>
</filter>
<filter id="filter4_d_219_4108" x="-100.199" y="648.2" width="1064.55" height="422" filterUnits="userSpaceOnUse" color-interpolation-filters="sRGB">
<feFlood flood-opacity="0" result="BackgroundImageFix"/>
<feColorMatrix in="SourceAlpha" type="matrix" values="0 0 0 0 0 0 0 0 0 0 0 0 0 0 0 0 0 0 127 0" result="hardAlpha"/>
<feOffset dy="4"/>
<feGaussianBlur stdDeviation="50"/>
<feComposite in2="hardAlpha" operator="out"/>
<feColorMatrix type="matrix" values="0 0 0 0 0 0 0 0 0 0 0 0 0 0 0 0 0 0 0.25 0"/>
<feBlend mode="normal" in2="BackgroundImageFix" result="effect1_dropShadow_219_4108"/>
<feBlend mode="normal" in="SourceGraphic" in2="effect1_dropShadow_219_4108" result="shape"/>
</filter>
<filter id="filter5_d_219_4108" x="-100.199" y="400.2" width="1064.55" height="422" filterUnits="userSpaceOnUse" color-interpolation-filters="sRGB">
<feFlood flood-opacity="0" result="BackgroundImageFix"/>
<feColorMatrix in="SourceAlpha" type="matrix" values="0 0 0 0 0 0 0 0 0 0 0 0 0 0 0 0 0 0 127 0" result="hardAlpha"/>
<feOffset dy="4"/>
<feGaussianBlur stdDeviation="50"/>
<feComposite in2="hardAlpha" operator="out"/>
<feColorMatrix type="matrix" values="0 0 0 0 0 0 0 0 0 0 0 0 0 0 0 0 0 0 0.25 0"/>
<feBlend mode="normal" in2="BackgroundImageFix" result="effect1_dropShadow_219_4108"/>
<feBlend mode="normal" in="SourceGraphic" in2="effect1_dropShadow_219_4108" result="shape"/>
</filter>
<filter id="filter6_d_219_4108" x="-100.2" y="-94.7998" width="1064.55" height="422" filterUnits="userSpaceOnUse" color-interpolation-filters="sRGB">
<feFlood flood-opacity="0" result="BackgroundImageFix"/>
<feColorMatrix in="SourceAlpha" type="matrix" values="0 0 0 0 0 0 0 0 0 0 0 0 0 0 0 0 0 0 127 0" result="hardAlpha"/>
<feOffset dy="4"/>
<feGaussianBlur stdDeviation="50"/>
<feComposite in2="hardAlpha" operator="out"/>
<feColorMatrix type="matrix" values="0 0 0 0 0 0 0 0 0 0 0 0 0 0 0 0 0 0 0.25 0"/>
<feBlend mode="normal" in2="BackgroundImageFix" result="effect1_dropShadow_219_4108"/>
<feBlend mode="normal" in="SourceGraphic" in2="effect1_dropShadow_219_4108" result="shape"/>
</filter>
<filter id="filter7_d_219_4108" x="-100.2" y="152.2" width="1064.55" height="422" filterUnits="userSpaceOnUse" color-interpolation-filters="sRGB">
<feFlood flood-opacity="0" result="BackgroundImageFix"/>
<feColorMatrix in="SourceAlpha" type="matrix" values="0 0 0 0 0 0 0 0 0 0 0 0 0 0 0 0 0 0 127 0" result="hardAlpha"/>
<feOffset dy="4"/>
<feGaussianBlur stdDeviation="50"/>
<feComposite in2="hardAlpha" operator="out"/>
<feColorMatrix type="matrix" values="0 0 0 0 0 0 0 0 0 0 0 0 0 0 0 0 0 0 0.25 0"/>
<feBlend mode="normal" in2="BackgroundImageFix" result="effect1_dropShadow_219_4108"/>
<feBlend mode="normal" in="SourceGraphic" in2="effect1_dropShadow_219_4108" result="shape"/>
</filter>
<filter id="filter8_d_219_4108" x="-100.2" y="896.2" width="1064.55" height="422" filterUnits="userSpaceOnUse" color-interpolation-filters="sRGB">
<feFlood flood-opacity="0" result="BackgroundImageFix"/>
<feColorMatrix in="SourceAlpha" type="matrix" values="0 0 0 0 0 0 0 0 0 0 0 0 0 0 0 0 0 0 127 0" result="hardAlpha"/>
<feOffset dy="4"/>
<feGaussianBlur stdDeviation="50"/>
<feComposite in2="hardAlpha" operator="out"/>
<feColorMatrix type="matrix" values="0 0 0 0 0 0 0 0 0 0 0 0 0 0 0 0 0 0 0.25 0"/>
<feBlend mode="normal" in2="BackgroundImageFix" result="effect1_dropShadow_219_4108"/>
<feBlend mode="normal" in="SourceGraphic" in2="effect1_dropShadow_219_4108" result="shape"/>
</filter>
<filter id="filter9_d_219_4108" x="-100.2" y="649.2" width="1064.55" height="422" filterUnits="userSpaceOnUse" color-interpolation-filters="sRGB">
<feFlood flood-opacity="0" result="BackgroundImageFix"/>
<feColorMatrix in="SourceAlpha" type="matrix" values="0 0 0 0 0 0 0 0 0 0 0 0 0 0 0 0 0 0 127 0" result="hardAlpha"/>
<feOffset dy="4"/>
<feGaussianBlur stdDeviation="50"/>
<feComposite in2="hardAlpha" operator="out"/>
<feColorMatrix type="matrix" values="0 0 0 0 0 0 0 0 0 0 0 0 0 0 0 0 0 0 0.25 0"/>
<feBlend mode="normal" in2="BackgroundImageFix" result="effect1_dropShadow_219_4108"/>
<feBlend mode="normal" in="SourceGraphic" in2="effect1_dropShadow_219_4108" result="shape"/>
</filter>
<filter id="filter10_d_219_4108" x="-101.2" y="408.2" width="1064.55" height="422" filterUnits="userSpaceOnUse" color-interpolation-filters="sRGB">
<feFlood flood-opacity="0" result="BackgroundImageFix"/>
<feColorMatrix in="SourceAlpha" type="matrix" values="0 0 0 0 0 0 0 0 0 0 0 0 0 0 0 0 0 0 127 0" result="hardAlpha"/>
<feOffset dy="4"/>
<feGaussianBlur stdDeviation="50"/>
<feComposite in2="hardAlpha" operator="out"/>
<feColorMatrix type="matrix" values="0 0 0 0 0 0 0 0 0 0 0 0 0 0 0 0 0 0 0.25 0"/>
<feBlend mode="normal" in2="BackgroundImageFix" result="effect1_dropShadow_219_4108"/>
<feBlend mode="normal" in="SourceGraphic" in2="effect1_dropShadow_219_4108" result="shape"/>
</filter>
<linearGradient id="paint0_linear_219_4108" x1="434.5" y1="179" x2="434.5" y2="510" gradientUnits="userSpaceOnUse">
<stop stop-color="white"/>
<stop offset="0.68" stop-color="#232323"/>
</linearGradient>
<linearGradient id="paint1_linear_219_4108" x1="434.5" y1="676" x2="434.5" y2="1007" gradientUnits="userSpaceOnUse">
<stop offset="0.44" stop-color="#232323"/>
<stop offset="1" stop-color="#9D9D9D"/>
</linearGradient>
<clipPath id="clip0_219_4108">
<rect width="867" height="1304" fill="white"/>
</clipPath>
<clipPath id="clip1_219_4108">
<rect width="1400.76" height="1400.76" fill="white" transform="translate(434.485 -547) rotate(45)"/>
</clipPath>
<clipPath id="clip2_219_4108">
<rect width="769.575" height="769.575" fill="white" transform="translate(-109.515 612.171) rotate(-45)"/>
</clipPath>
</defs>
</svg>
