<svg width="652" height="150" viewBox="0 0 652 150" fill="none" xmlns="http://www.w3.org/2000/svg">
<g clip-path="url(#clip0_169_4121)">
<rect width="652" height="150" fill="black"/>
<g filter="url(#filter0_d_169_4121)">
<path d="M53.4 147H0.6V4.6H53.4V25H28.8V57.6H52.4V78H28.8V126.6H53.4V147ZM55.3797 4.6H84.7797L93.7797 56H94.1797L103.18 4.6H128.78L113.18 69.4L129.98 147H99.9797L90.7797 86.2H90.3797L80.5797 147H54.1797L71.1797 73.4L55.3797 4.6ZM161.203 25V71H164.603C169.203 71 171.203 68.8 171.203 62V34C171.203 27.2 169.203 25 164.603 25H161.203ZM161.203 147H133.003V4.6H166.203C183.603 4.6 199.403 11.6 199.403 33.4V62.6C199.403 84.4 183.603 91.4 166.203 91.4H161.203V147ZM260.627 147H207.827V4.6H260.627V25H236.027V57.6H259.627V78H236.027V126.6H260.627V147ZM294.406 147H266.206V4.6H299.406C316.806 4.6 332.606 11.6 332.606 33.4V46C332.606 56.6 327.806 68.2 310.806 69.2V69.6C328.606 70.6 332.606 77.4 332.606 93.6V121.8C332.606 135.6 335.206 141.4 336.806 147H308.206C306.206 143 304.406 138.4 304.406 128.6V96.2C304.406 87.4 304.406 80.4 294.406 80.4V147ZM294.406 25V64H297.806C302.406 64 304.406 61.8 304.406 55V34C304.406 27.2 302.406 25 297.806 25H294.406ZM370.83 147H342.63V4.6H370.83V147ZM434.65 147H381.85V4.6H434.65V25H410.05V57.6H433.65V78H410.05V126.6H434.65V147ZM463.03 147H441.03V4.6H480.23L494.63 97H495.03V4.6H517.03V147H483.43L463.43 35L463.03 35.4V147ZM563.586 91H591.786V123.8C591.786 142.8 575.986 149.8 558.586 149.8C541.186 149.8 525.386 142.8 525.386 123.8V27.8C525.386 8.79999 541.186 1.8 558.586 1.8C575.986 1.8 591.786 8.79999 591.786 27.8V54.8H563.586V32.4C563.586 28.4 562.986 23 558.586 23C554.186 23 553.586 28.4 553.586 32.4V119.2C553.586 123.2 554.186 128.6 558.586 128.6C562.986 128.6 563.586 123.2 563.586 119.2V91ZM653.009 147H600.209V4.6H653.009V25H628.409V57.6H652.009V78H628.409V126.6H653.009V147Z" fill="white"/>
</g>
</g>
<defs>
<filter id="filter0_d_169_4121" x="-99.4004" y="-94.2" width="852.41" height="348" filterUnits="userSpaceOnUse" color-interpolation-filters="sRGB">
<feFlood flood-opacity="0" result="BackgroundImageFix"/>
<feColorMatrix in="SourceAlpha" type="matrix" values="0 0 0 0 0 0 0 0 0 0 0 0 0 0 0 0 0 0 127 0" result="hardAlpha"/>
<feOffset dy="4"/>
<feGaussianBlur stdDeviation="50"/>
<feComposite in2="hardAlpha" operator="out"/>
<feColorMatrix type="matrix" values="0 0 0 0 0 0 0 0 0 0 0 0 0 0 0 0 0 0 0.25 0"/>
<feBlend mode="normal" in2="BackgroundImageFix" result="effect1_dropShadow_169_4121"/>
<feBlend mode="normal" in="SourceGraphic" in2="effect1_dropShadow_169_4121" result="shape"/>
</filter>
<clipPath id="clip0_169_4121">
<rect width="652" height="150" fill="white"/>
</clipPath>
</defs>
</svg>
