<svg width="60" height="60" viewBox="0 0 60 60" fill="none" xmlns="http://www.w3.org/2000/svg">
<rect x="0.5" y="0.5" width="59" height="59" rx="29.5" stroke="white"/>
<path d="M30.1992 30.2001C30.1992 31.4732 30.7049 32.6941 31.6051 33.5943C32.5053 34.4944 33.7262 35.0001 34.9992 35.0001C36.2723 35.0001 37.4932 34.4944 38.3933 33.5943C39.2935 32.6941 39.7992 31.4732 39.7992 30.2001C39.7992 28.9271 39.2935 27.7062 38.3933 26.806C37.4932 25.9059 36.2723 25.4001 34.9992 25.4001C33.7262 25.4001 32.5053 25.9059 31.6051 26.806C30.7049 27.7062 30.1992 28.9271 30.1992 30.2001Z" stroke="white" stroke-width="2" stroke-linecap="round" stroke-linejoin="round"/>
<path d="M20.5996 20.6C20.5996 19.327 21.1053 18.1061 22.0055 17.2059C22.9057 16.3058 24.1266 15.8 25.3996 15.8H34.9996C36.2726 15.8 37.4935 16.3058 38.3937 17.2059C39.2939 18.1061 39.7996 19.327 39.7996 20.6C39.7996 21.8731 39.2939 23.094 38.3937 23.9942C37.4935 24.8943 36.2726 25.4 34.9996 25.4H25.3996C24.1266 25.4 22.9057 24.8943 22.0055 23.9942C21.1053 23.094 20.5996 21.8731 20.5996 20.6Z" stroke="white" stroke-width="2" stroke-linecap="round" stroke-linejoin="round"/>
<path d="M25.3996 25.4C24.1266 25.4 22.9057 25.9058 22.0055 26.8059C21.1053 27.7061 20.5996 28.927 20.5996 30.2001C20.5996 31.4731 21.1053 32.694 22.0055 33.5942C22.9057 34.4943 24.1266 35.0001 25.3996 35.0001M25.3996 35.0001H30.1996M25.3996 35.0001C24.4503 35.0001 23.5222 35.2816 22.7329 35.809C21.9435 36.3364 21.3283 37.0861 20.965 37.9632C20.6017 38.8403 20.5066 39.8054 20.6918 40.7365C20.8771 41.6676 21.3342 42.5229 22.0055 43.1942C22.6768 43.8655 23.5321 44.3226 24.4632 44.5078C25.3943 44.693 26.3594 44.598 27.2365 44.2347C28.1136 43.8714 28.8632 43.2561 29.3907 42.4668C29.9181 41.6774 30.1996 40.7494 30.1996 39.8001V15.8" stroke="white" stroke-width="2" stroke-linecap="round" stroke-linejoin="round"/>
</svg>
