<svg width="22" height="31" viewBox="0 0 22 31" fill="none" xmlns="http://www.w3.org/2000/svg">
<path d="M10.6001 15.4001C10.6001 16.6731 11.1058 17.894 12.006 18.7942C12.9062 19.6944 14.1271 20.2001 15.4001 20.2001C16.6731 20.2001 17.894 19.6944 18.7942 18.7942C19.6944 17.894 20.2001 16.6731 20.2001 15.4001C20.2001 14.1271 19.6944 12.9062 18.7942 12.006C17.894 11.1058 16.6731 10.6001 15.4001 10.6001C14.1271 10.6001 12.9062 11.1058 12.006 12.006C11.1058 12.9062 10.6001 14.1271 10.6001 15.4001Z" stroke="black" stroke-width="2" stroke-linecap="round" stroke-linejoin="round"/>
<path d="M1 5.8C1 4.52696 1.50571 3.30606 2.40589 2.40589C3.30606 1.50571 4.52696 1 5.8 1H15.4C16.673 1 17.8939 1.50571 18.7941 2.40589C19.6943 3.30606 20.2 4.52696 20.2 5.8C20.2 7.07304 19.6943 8.29394 18.7941 9.19411C17.8939 10.0943 16.673 10.6 15.4 10.6H5.8C4.52696 10.6 3.30606 10.0943 2.40589 9.19411C1.50571 8.29394 1 7.07304 1 5.8Z" stroke="black" stroke-width="2" stroke-linecap="round" stroke-linejoin="round"/>
<path d="M5.8 10.6C4.52696 10.6 3.30606 11.1057 2.40589 12.0059C1.50571 12.9061 1 14.127 1 15.4C1 16.673 1.50571 17.8939 2.40589 18.7941C3.30606 19.6943 4.52696 20.2 5.8 20.2M5.8 20.2H10.6M5.8 20.2C4.85065 20.2 3.92262 20.4815 3.13326 21.0089C2.34391 21.5364 1.72868 22.286 1.36538 23.1631C1.00208 24.0402 0.907024 25.0053 1.09223 25.9364C1.27744 26.8675 1.7346 27.7228 2.40589 28.3941C3.07718 29.0654 3.93246 29.5226 4.86357 29.7078C5.79468 29.893 6.7598 29.7979 7.63688 29.4346C8.51397 29.0713 9.26363 28.4561 9.79106 27.6667C10.3185 26.8774 10.6 25.9494 10.6 25V1" stroke="black" stroke-width="2" stroke-linecap="round" stroke-linejoin="round"/>
</svg>
