<svg width="39" height="39" viewBox="0 0 39 39" fill="none" xmlns="http://www.w3.org/2000/svg">
<path d="M19.2 0C16.6786 0 14.1819 0.508952 11.8525 1.4978C9.52303 2.48664 7.40643 3.93602 5.62355 5.76317C2.02285 9.45326 0 14.4581 0 19.6767C0 28.3738 5.5104 35.7525 13.1328 38.3695C14.0928 38.5269 14.4 37.917 14.4 37.3857V34.0603C9.0816 35.2409 7.9488 31.4237 7.9488 31.4237C7.0656 29.1412 5.8176 28.5312 5.8176 28.5312C4.0704 27.3112 5.952 27.3506 5.952 27.3506C7.872 27.4883 8.8896 29.3773 8.8896 29.3773C10.56 32.3681 13.3824 31.4827 14.4768 31.0104C14.6496 29.7315 15.1488 28.8657 15.6864 28.3738C11.424 27.8819 6.9504 26.1897 6.9504 18.6928C6.9504 16.5087 7.68 14.7575 8.928 13.3605C8.736 12.8685 8.064 10.8222 9.12 8.16582C9.12 8.16582 10.7328 7.63455 14.4 10.1728C15.9168 9.73996 17.568 9.52351 19.2 9.52351C20.832 9.52351 22.4832 9.73996 24 10.1728C27.6672 7.63455 29.28 8.16582 29.28 8.16582C30.336 10.8222 29.664 12.8685 29.472 13.3605C30.72 14.7575 31.4496 16.5087 31.4496 18.6928C31.4496 26.2093 26.9568 27.8622 22.6752 28.3541C23.3664 28.9641 24 30.1643 24 31.9943V37.3857C24 37.917 24.3072 38.5466 25.2864 38.3695C32.9088 35.7328 38.4 28.3738 38.4 19.6767C38.4 17.0927 37.9034 14.534 36.9385 12.1467C35.9736 9.75945 34.5593 7.59031 32.7765 5.76317C30.9936 3.93602 28.877 2.48664 26.5475 1.4978C24.2181 0.508952 21.7214 0 19.2 0Z" fill="black"/>
</svg>
