<svg width="39" height="39" viewBox="0 0 39 39" fill="none" xmlns="http://www.w3.org/2000/svg">
<path d="M12.4802 3.2002H25.9202C31.0402 3.2002 35.2002 7.3602 35.2002 12.4802V25.9202C35.2002 28.3814 34.2225 30.7418 32.4821 32.4821C30.7418 34.2225 28.3814 35.2002 25.9202 35.2002H12.4802C7.3602 35.2002 3.2002 31.0402 3.2002 25.9202V12.4802C3.2002 10.019 4.17791 7.65858 5.91824 5.91824C7.65858 4.17791 10.019 3.2002 12.4802 3.2002ZM12.1602 6.4002C10.6325 6.4002 9.16747 7.00705 8.08726 8.08726C7.00705 9.16747 6.4002 10.6325 6.4002 12.1602V26.2402C6.4002 29.4242 8.9762 32.0002 12.1602 32.0002H26.2402C27.7678 32.0002 29.2329 31.3933 30.3131 30.3131C31.3933 29.2329 32.0002 27.7678 32.0002 26.2402V12.1602C32.0002 8.9762 29.4242 6.4002 26.2402 6.4002H12.1602ZM27.6002 8.8002C28.1306 8.8002 28.6393 9.01091 29.0144 9.38598C29.3895 9.76105 29.6002 10.2698 29.6002 10.8002C29.6002 11.3306 29.3895 11.8393 29.0144 12.2144C28.6393 12.5895 28.1306 12.8002 27.6002 12.8002C27.0698 12.8002 26.5611 12.5895 26.186 12.2144C25.8109 11.8393 25.6002 11.3306 25.6002 10.8002C25.6002 10.2698 25.8109 9.76105 26.186 9.38598C26.5611 9.01091 27.0698 8.8002 27.6002 8.8002ZM19.2002 11.2002C21.3219 11.2002 23.3568 12.0431 24.857 13.5433C26.3573 15.0436 27.2002 17.0785 27.2002 19.2002C27.2002 21.3219 26.3573 23.3568 24.857 24.857C23.3568 26.3573 21.3219 27.2002 19.2002 27.2002C17.0785 27.2002 15.0436 26.3573 13.5433 24.857C12.0431 23.3568 11.2002 21.3219 11.2002 19.2002C11.2002 17.0785 12.0431 15.0436 13.5433 13.5433C15.0436 12.0431 17.0785 11.2002 19.2002 11.2002ZM19.2002 14.4002C17.9272 14.4002 16.7063 14.9059 15.8061 15.8061C14.9059 16.7063 14.4002 17.9272 14.4002 19.2002C14.4002 20.4732 14.9059 21.6941 15.8061 22.5943C16.7063 23.4945 17.9272 24.0002 19.2002 24.0002C20.4732 24.0002 21.6941 23.4945 22.5943 22.5943C23.4945 21.6941 24.0002 20.4732 24.0002 19.2002C24.0002 17.9272 23.4945 16.7063 22.5943 15.8061C21.6941 14.9059 20.4732 14.4002 19.2002 14.4002Z" fill="black"/>
</svg>
