<svg width="60" height="60" viewBox="0 0 60 60" fill="none" xmlns="http://www.w3.org/2000/svg">
<rect x="0.5" y="0.5" width="59" height="59" rx="29.5" stroke="white"/>
<path d="M16 16V44H43V16H16ZM30.6933 37.8375C30.6933 40.5625 29.1504 41.8062 26.9025 41.8062C24.8714 41.8062 23.6962 40.7187 23.0935 39.4L25.1607 38.1063C25.5585 38.8375 25.9201 39.4562 26.794 39.4562C27.6257 39.4562 28.156 39.1187 28.156 37.8V28.8562H30.6933V37.8375ZM36.696 41.8062C34.3395 41.8062 32.8147 40.6437 32.0734 39.1187L34.1406 37.8813C34.683 38.8 35.3942 39.4813 36.6417 39.4813C37.6904 39.4813 38.3654 38.9375 38.3654 38.1812C38.3654 37.2812 37.6783 36.9625 36.5152 36.4312L35.8824 36.15C34.0502 35.3437 32.8388 34.325 32.8388 32.1812C32.8388 30.2062 34.2913 28.7063 36.5513 28.7063C38.1665 28.7063 39.3237 29.2875 40.1554 30.8125L38.1786 32.125C37.7446 31.3188 37.2746 31 36.5453 31C35.804 31 35.3339 31.4875 35.3339 32.125C35.3339 32.9125 35.804 33.2313 36.8949 33.725L37.5277 34.0063C39.6853 34.9625 40.8967 35.9437 40.8967 38.1437C40.8967 40.5062 39.1007 41.8062 36.696 41.8062Z" fill="white"/>
</svg>
