<svg width="31" height="29" viewBox="0 0 31 29" fill="none" xmlns="http://www.w3.org/2000/svg">
<path d="M6.4 3.2016C6.39958 4.05029 6.06203 4.86406 5.46161 5.46387C4.86119 6.06369 4.04709 6.40043 3.1984 6.4C2.34971 6.39958 1.53594 6.06203 0.936127 5.46161C0.336311 4.86119 -0.000423946 4.04709 4.00578e-07 3.1984C0.000424747 2.34971 0.337974 1.53594 0.93839 0.936127C1.53881 0.336311 2.35291 -0.000423946 3.2016 4.00578e-07C4.05029 0.000424747 4.86406 0.337974 5.46387 0.93839C6.06369 1.53881 6.40043 2.35291 6.4 3.2016ZM6.496 8.7696H0.0960003V28.8016H6.496V8.7696ZM16.608 8.7696H10.24V28.8016H16.544V18.2896C16.544 12.4336 24.176 11.8896 24.176 18.2896V28.8016H30.496V16.1136C30.496 6.2416 19.2 6.6096 16.544 11.4576L16.608 8.7696Z" fill="black"/>
</svg>
