<svg width="132" height="132" viewBox="0 0 132 132" fill="none" xmlns="http://www.w3.org/2000/svg">
<path d="M63.8908 21.7033L75.6096 9.98459C78.6567 6.93751 82.2741 4.52043 86.2553 2.87137C90.2365 1.2223 94.5035 0.373535 98.8127 0.373535C103.122 0.373535 107.389 1.2223 111.37 2.87137C115.351 4.52043 118.969 6.93751 122.016 9.98458C125.063 13.0317 127.48 16.6491 129.129 20.6303C130.778 24.6115 131.627 28.8785 131.627 33.1877C131.627 37.4969 130.778 41.764 129.129 45.7452C127.48 49.7264 125.063 53.3438 122.016 56.3908L98.5783 79.8283C95.5314 82.8756 91.914 85.2929 87.9328 86.9421C83.9516 88.5912 79.6845 89.4401 75.3752 89.4401C71.0659 89.4401 66.7988 88.5912 62.8176 86.9421C58.8364 85.2929 55.2191 82.8756 52.1721 79.8283C50.9286 78.4957 50.2511 76.7323 50.2826 74.9099C50.3141 73.0874 51.052 71.3485 52.3408 70.0596C53.6297 68.7708 55.3687 68.0328 57.1911 68.0014C59.0135 67.9699 60.777 68.6473 62.1096 69.8908C63.851 71.6341 65.9189 73.0171 68.1951 73.9607C70.4713 74.9043 72.9112 75.39 75.3752 75.39C77.8392 75.39 80.2791 74.9043 82.5553 73.9607C84.8315 73.0171 86.8995 71.6341 88.6408 69.8908L112.078 46.4533C115.425 42.9007 117.257 38.1839 117.184 33.3034C117.111 28.423 115.14 23.7628 111.689 20.3114C108.238 16.86 103.577 14.8889 98.697 14.8162C93.8165 14.7436 89.0997 16.575 85.5471 19.9221L73.8283 31.6408C72.4957 32.8844 70.7323 33.5618 68.9099 33.5303C67.0874 33.4988 65.3485 32.7609 64.0596 31.4721C62.7708 30.1832 62.0328 28.4442 62.0014 26.6218C61.9699 24.7994 62.6473 23.036 63.8908 21.7033ZM19.9221 112.078C21.6635 113.822 23.7314 115.205 26.0076 116.148C28.2838 117.092 30.7237 117.577 33.1877 117.577C35.6518 117.577 38.0916 117.092 40.3678 116.148C42.644 115.205 44.712 113.822 46.4533 112.078L58.1721 100.36C59.5047 99.1161 61.2681 98.4386 63.0906 98.4701C64.913 98.5016 66.652 99.2395 67.9408 100.528C69.2296 101.817 69.9676 103.556 69.9991 105.379C70.0306 107.201 69.3531 108.964 68.1096 110.297L56.3908 122.016C53.3438 125.063 49.7263 127.48 45.7451 129.129C41.7639 130.778 37.4969 131.627 33.1877 131.627C28.8785 131.627 24.6115 130.778 20.6303 129.129C16.6491 127.48 13.0317 125.063 9.98458 122.016C6.93751 118.969 4.52043 115.351 2.87136 111.37C1.2223 107.389 0.373535 103.122 0.373535 98.8127C0.373535 94.5035 1.2223 90.2365 2.87137 86.2553C4.52043 82.2741 6.93751 78.6567 9.98458 75.6096L33.4221 52.1721C36.4691 49.1248 40.0864 46.7076 44.0676 45.0584C48.0488 43.4092 52.3159 42.5603 56.6252 42.5603C60.9345 42.5603 65.2016 43.4092 69.1828 45.0584C73.164 46.7076 76.7814 49.1248 79.8283 52.1721C81.0719 53.5047 81.7493 55.2681 81.7178 57.0906C81.6863 58.913 80.9484 60.652 79.6596 61.9408C78.3707 63.2296 76.6317 63.9676 74.8093 63.9991C72.9869 64.0306 71.2234 63.3531 69.8908 62.1096C68.1495 60.3663 66.0815 58.9833 63.8053 58.0397C61.5291 57.0961 59.0892 56.6105 56.6252 56.6105C54.1612 56.6105 51.7213 57.0961 49.4451 58.0397C47.1689 58.9833 45.101 60.3663 43.3596 62.1096L19.9221 85.5471C18.1788 87.2885 16.7958 89.3564 15.8522 91.6326C14.9086 93.9088 14.423 96.3487 14.423 98.8127C14.423 101.277 14.9086 103.717 15.8522 105.993C16.7958 108.269 18.1788 110.337 19.9221 112.078Z" fill="black"/>
</svg>
