<svg width="132" height="132" viewBox="0 0 132 132" fill="none" xmlns="http://www.w3.org/2000/svg">
<path d="M63.5173 21.3298L75.236 9.61105C78.2831 6.56397 81.9005 4.1469 85.8817 2.49783C89.8629 0.848764 94.13 4.5405e-08 98.4392 0C102.748 -4.5405e-08 107.015 0.848763 110.997 2.49783C114.978 4.1469 118.595 6.56397 121.642 9.61105C124.689 12.6581 127.106 16.2755 128.756 20.2567C130.405 24.2379 131.253 28.505 131.253 32.8142C131.253 37.1234 130.405 41.3904 128.756 45.3716C127.106 49.3528 124.689 52.9702 121.642 56.0173L98.2048 79.4548C95.1578 82.5021 91.5405 84.9193 87.5592 86.5685C83.578 88.2177 79.311 89.0665 75.0017 89.0665C70.6924 89.0665 66.4253 88.2177 62.4441 86.5685C58.4629 84.9193 54.8455 82.5021 51.7986 79.4548C50.555 78.1222 49.8776 76.3588 49.9091 74.5363C49.9406 72.7139 50.6785 70.9749 51.9673 69.6861C53.2562 68.3972 54.9952 67.6593 56.8176 67.6278C58.64 67.5963 60.4034 68.2738 61.736 69.5173C63.4774 71.2606 65.5453 72.6436 67.8215 73.5872C70.0978 74.5307 72.5376 75.0164 75.0017 75.0164C77.4657 75.0164 79.9056 74.5307 82.1818 73.5872C84.458 72.6436 86.5259 71.2606 88.2673 69.5173L111.705 46.0798C115.052 42.5272 116.883 37.8104 116.811 32.9299C116.738 28.0494 114.767 23.3893 111.315 19.9379C107.864 16.4865 103.204 14.5154 98.3235 14.4427C93.443 14.37 88.7262 16.2015 85.1735 19.5485L73.4548 31.2673C72.1222 32.5108 70.3587 33.1883 68.5363 33.1568C66.7139 33.1253 64.9749 32.3874 63.6861 31.0985C62.3972 29.8097 61.6593 28.0707 61.6278 26.2483C61.5963 24.4258 62.2738 22.6624 63.5173 21.3298ZM19.5485 111.705C21.2899 113.448 23.3578 114.831 25.634 115.775C27.9103 116.718 30.3501 117.204 32.8142 117.204C35.2782 117.204 37.7181 116.718 39.9943 115.775C42.2705 114.831 44.3384 113.448 46.0798 111.705L57.7985 99.986C59.1312 98.7425 60.8946 98.0651 62.717 98.0966C64.5394 98.128 66.2784 98.866 67.5673 100.155C68.8561 101.444 69.5941 103.183 69.6255 105.005C69.657 106.827 68.9796 108.591 67.7361 109.924L56.0173 121.642C52.9702 124.689 49.3528 127.106 45.3716 128.756C41.3904 130.405 37.1234 131.253 32.8142 131.253C28.505 131.253 24.2379 130.405 20.2567 128.756C16.2755 127.106 12.6581 124.689 9.61105 121.642C6.56397 118.595 4.1469 114.978 2.49783 110.997C0.848763 107.015 -3.21062e-08 102.748 0 98.4392C3.21062e-08 94.13 0.848764 89.8629 2.49783 85.8817C4.1469 81.9005 6.56397 78.2831 9.61105 75.236L33.0485 51.7986C36.0955 48.7513 39.7129 46.334 43.6941 44.6848C47.6753 43.0356 51.9424 42.1868 56.2517 42.1868C60.561 42.1868 64.828 43.0356 68.8092 44.6848C72.7905 46.334 76.4078 48.7513 79.4548 51.7986C80.6983 53.1312 81.3758 54.8946 81.3443 56.717C81.3128 58.5394 80.5748 60.2784 79.286 61.5673C77.9972 62.8561 76.2582 63.5941 74.4358 63.6255C72.6133 63.657 70.8499 62.9796 69.5173 61.7361C67.7759 59.9927 65.708 58.6098 63.4318 57.6662C61.1556 56.7226 58.7157 56.2369 56.2517 56.2369C53.7876 56.2369 51.3478 56.7226 49.0715 57.6662C46.7953 58.6098 44.7274 59.9927 42.986 61.7361L19.5485 85.1735C17.8052 86.9149 16.4223 88.9828 15.4787 91.259C14.5351 93.5353 14.0494 95.9751 14.0494 98.4392C14.0494 100.903 14.5351 103.343 15.4787 105.619C16.4223 107.896 17.8052 109.963 19.5485 111.705Z" fill="white"/>
</svg>
