<svg width="1141" height="223" viewBox="0 0 1141 223" fill="none" xmlns="http://www.w3.org/2000/svg">
<path d="M49.8 129.2H63.6L57.9 41.6H56.7L49.8 129.2ZM1.8 218L33.6 4.4H89.7L115.2 218H71.1L66.3 159.8H46.2L39.6 218H1.8ZM218.735 80.6H176.435V46.1C176.435 40.1 175.535 32 168.935 32C162.335 32 161.435 40.1 161.435 46.1C162.635 105.8 220.235 86 220.235 164.6V183.2C220.235 211.7 196.535 222.2 170.435 222.2C144.335 222.2 120.635 211.7 120.635 183.2V134H162.935V176.3C162.935 182.3 163.835 190.4 170.435 190.4C177.035 190.4 177.935 182.3 177.935 176.3C177.035 107.6 119.135 115.1 119.135 65.9V39.2C119.135 10.7 142.835 0.199997 168.935 0.199997C195.035 0.199997 218.735 10.7 218.735 39.2V80.6ZM273.07 218H230.77V4.4H273.07V81.8H288.07V4.4H330.37V218H288.07V116H273.07V218ZM381.105 218H343.005V4.4H408.105L426.405 147.8H427.005L448.005 4.4H507.105V218H469.005V61.4L468.405 60.8L442.605 218H406.305L381.705 63.8H381.105V218ZM565.538 218H523.238V4.4H565.538V218ZM646.268 35V218H603.968V35H575.468V4.4H674.768V35H646.268ZM736.141 134H778.441V172.1C778.441 182 779.641 190.4 785.941 190.4C792.241 190.4 793.441 182 793.441 172.1V4.4H835.741V175.4C835.741 208.1 818.941 222.2 785.941 222.2C752.641 222.2 736.141 208.1 736.141 175.4V134ZM888.277 129.2H902.077L896.377 41.6H895.177L888.277 129.2ZM840.277 218L872.077 4.4H928.177L953.677 218H909.577L904.777 159.8H884.677L878.077 218H840.277ZM1004.11 218H961.812V4.4H1004.11V218ZM1053.64 218H1020.64V4.4H1079.44L1101.04 143H1101.64V4.4H1134.64V218H1084.24L1054.24 50L1053.64 50.6V218Z" fill="white"/>
</svg>
