<svg width="1141" height="277" viewBox="0 0 1141 277" fill="none" xmlns="http://www.w3.org/2000/svg">
<path d="M48.8 158.2H62.6L56.9 70.6H55.7L48.8 158.2ZM0.8 247L32.6 33.4H88.7L114.2 247H70.1L65.3 188.8H45.2L38.6 247H0.8ZM217.735 109.6H175.435V75.1C175.435 69.1 174.535 61 167.935 61C161.335 61 160.435 69.1 160.435 75.1C161.635 134.8 219.235 115 219.235 193.6V212.2C219.235 240.7 195.535 251.2 169.435 251.2C143.335 251.2 119.635 240.7 119.635 212.2V163H161.935V205.3C161.935 211.3 162.835 219.4 169.435 219.4C176.035 219.4 176.935 211.3 176.935 205.3C176.035 136.6 118.135 144.1 118.135 94.9V68.2C118.135 39.7 141.835 29.2 167.935 29.2C194.035 29.2 217.735 39.7 217.735 68.2V109.6ZM272.07 247H229.77V33.4H272.07V110.8H287.07V33.4H329.37V247H287.07V145H272.07V247ZM380.105 247H342.005V33.4H407.105L425.405 176.8H426.005L447.005 33.4H506.105V247H468.005V90.4L467.405 89.8L441.605 247H405.305L380.705 92.8H380.105V247ZM564.538 247H522.238V33.4H564.538V247ZM645.268 64V247H602.968V64H574.468V33.4H673.768V64H645.268ZM735.141 163H777.441V201.1C777.441 211 778.641 219.4 784.941 219.4C791.241 219.4 792.441 211 792.441 201.1V33.4H834.741V204.4C834.741 237.1 817.941 251.2 784.941 251.2C751.641 251.2 735.141 237.1 735.141 204.4V163ZM887.277 158.2H901.077L895.377 70.6H894.177L887.277 158.2ZM839.277 247L871.077 33.4H927.177L952.677 247H908.577L903.777 188.8H883.677L877.077 247H839.277ZM1003.11 247H960.812V33.4H1003.11V247ZM1052.64 247H1019.64V33.4H1078.44L1100.04 172H1100.64V33.4H1133.64V247H1083.24L1053.24 79L1052.64 79.6V247Z" fill="black"/>
</svg>
