<svg width="568" height="150" viewBox="0 0 568 150" fill="none" xmlns="http://www.w3.org/2000/svg">
<g clip-path="url(#clip0_169_4117)">
<rect width="568" height="150" fill="#222222"/>
<g filter="url(#filter0_d_169_4117)">
<path d="M28 25V71H31.4C36 71 38 68.8 38 62V34C38 27.2 36 25 31.4 25H28ZM28 147H-0.2V4.6H33C50.4 4.6 66.2 11.6 66.2 33.4V62.6C66.2 84.4 50.4 91.4 33 91.4H28V147ZM127.423 147H74.6234V4.6H127.423V25H102.823V57.6H126.423V78H102.823V126.6H127.423V147ZM161.203 147H133.003V4.6H166.203C183.603 4.6 199.403 11.6 199.403 33.4V46C199.403 56.6 194.603 68.2 177.603 69.2V69.6C195.403 70.6 199.403 77.4 199.403 93.6V121.8C199.403 135.6 202.003 141.4 203.603 147H175.003C173.003 143 171.203 138.4 171.203 128.6V96.2C171.203 87.4 171.203 80.4 161.203 80.4V147ZM161.203 25V64H164.603C169.203 64 171.203 61.8 171.203 55V34C171.203 27.2 169.203 25 164.603 25H161.203ZM273.027 55.4H244.827V32.4C244.827 28.4 244.227 23 239.827 23C235.427 23 234.827 28.4 234.827 32.4C235.627 72.2 274.027 59 274.027 111.4V123.8C274.027 142.8 258.227 149.8 240.827 149.8C223.427 149.8 207.627 142.8 207.627 123.8V91H235.827V119.2C235.827 123.2 236.427 128.6 240.827 128.6C245.227 128.6 245.827 123.2 245.827 119.2C245.227 73.4 206.627 78.4 206.627 45.6V27.8C206.627 8.79999 222.427 1.8 239.827 1.8C257.227 1.8 273.027 8.79999 273.027 27.8V55.4ZM281.05 123.8V27.8C281.05 8.79999 296.85 1.8 314.25 1.8C331.65 1.8 347.45 8.79999 347.45 27.8V123.8C347.45 142.8 331.65 149.8 314.25 149.8C296.85 149.8 281.05 142.8 281.05 123.8ZM319.25 119.2V32.4C319.25 28.4 318.65 23 314.25 23C309.85 23 309.25 28.4 309.25 32.4V119.2C309.25 123.2 309.85 128.6 314.25 128.6C318.65 128.6 319.25 123.2 319.25 119.2ZM377.873 147H355.873V4.6H395.073L409.473 97H409.873V4.6H431.873V147H398.273L378.273 35L377.873 35.4V147ZM467.63 87.8H476.83L473.03 29.4H472.23L467.63 87.8ZM435.63 147L456.83 4.6H494.23L511.23 147H481.83L478.63 108.2H465.23L460.83 147H435.63ZM567.453 147H514.253V4.6H542.453V126.6H567.453V147Z" fill="white"/>
</g>
</g>
<defs>
<filter id="filter0_d_169_4117" x="-100.2" y="-94.2" width="767.653" height="348" filterUnits="userSpaceOnUse" color-interpolation-filters="sRGB">
<feFlood flood-opacity="0" result="BackgroundImageFix"/>
<feColorMatrix in="SourceAlpha" type="matrix" values="0 0 0 0 0 0 0 0 0 0 0 0 0 0 0 0 0 0 127 0" result="hardAlpha"/>
<feOffset dy="4"/>
<feGaussianBlur stdDeviation="50"/>
<feComposite in2="hardAlpha" operator="out"/>
<feColorMatrix type="matrix" values="0 0 0 0 0 0 0 0 0 0 0 0 0 0 0 0 0 0 0.25 0"/>
<feBlend mode="normal" in2="BackgroundImageFix" result="effect1_dropShadow_169_4117"/>
<feBlend mode="normal" in="SourceGraphic" in2="effect1_dropShadow_169_4117" result="shape"/>
</filter>
<clipPath id="clip0_169_4117">
<rect width="568" height="150" fill="white"/>
</clipPath>
</defs>
</svg>
