<svg width="855" height="225" viewBox="0 0 855 225" fill="none" xmlns="http://www.w3.org/2000/svg">
<path d="M48 37V106H53.1C60 106 63 102.7 63 92.5V50.5C63 40.3 60 37 53.1 37H48ZM48 220H5.7V6.4H55.5C81.6 6.4 105.3 16.9 105.3 49.6V93.4C105.3 126.1 81.6 136.6 55.5 136.6H48V220ZM159.035 220H116.735V6.4H166.535C192.635 6.4 216.335 16.9 216.335 49.6V68.5C216.335 84.4 209.135 101.8 183.635 103.3V103.9C210.335 105.4 216.335 115.6 216.335 139.9V182.2C216.335 202.9 220.235 211.6 222.635 220H179.735C176.735 214 174.035 207.1 174.035 192.4V143.8C174.035 130.6 174.035 120.1 159.035 120.1V220ZM159.035 37V95.5H164.135C171.035 95.5 174.035 92.2 174.035 82V50.5C174.035 40.3 171.035 37 164.135 37H159.035ZM227.77 185.2V41.2C227.77 12.7 251.47 2.2 277.57 2.2C303.67 2.2 327.37 12.7 327.37 41.2V185.2C327.37 213.7 303.67 224.2 277.57 224.2C251.47 224.2 227.77 213.7 227.77 185.2ZM285.07 178.3V48.1C285.07 42.1 284.17 34 277.57 34C270.97 34 270.07 42.1 270.07 48.1V178.3C270.07 184.3 270.97 192.4 277.57 192.4C284.17 192.4 285.07 184.3 285.07 178.3ZM338.805 136H381.105V174.1C381.105 184 382.305 192.4 388.605 192.4C394.905 192.4 396.105 184 396.105 174.1V6.4H438.405V177.4C438.405 210.1 421.605 224.2 388.605 224.2C355.305 224.2 338.805 210.1 338.805 177.4V136ZM530.241 220H451.041V6.4H530.241V37H493.341V85.9H528.741V116.5H493.341V189.4H530.241V220ZM595.91 136H638.21V185.2C638.21 213.7 614.51 224.2 588.41 224.2C562.31 224.2 538.61 213.7 538.61 185.2V41.2C538.61 12.7 562.31 2.2 588.41 2.2C614.51 2.2 638.21 12.7 638.21 41.2V81.7H595.91V48.1C595.91 42.1 595.01 34 588.41 34C581.81 34 580.91 42.1 580.91 48.1V178.3C580.91 184.3 581.81 192.4 588.41 192.4C595.01 192.4 595.91 184.3 595.91 178.3V136ZM715.045 37V220H672.745V37H644.245V6.4H743.545V37H715.045ZM848.548 82.6H806.248V48.1C806.248 42.1 805.348 34 798.748 34C792.148 34 791.248 42.1 791.248 48.1C792.448 107.8 850.048 88 850.048 166.6V185.2C850.048 213.7 826.348 224.2 800.248 224.2C774.148 224.2 750.448 213.7 750.448 185.2V136H792.748V178.3C792.748 184.3 793.648 192.4 800.248 192.4C806.848 192.4 807.748 184.3 807.748 178.3C806.848 109.6 748.948 117.1 748.948 67.9V41.2C748.948 12.7 772.648 2.2 798.748 2.2C824.848 2.2 848.548 12.7 848.548 41.2V82.6Z" fill="white"/>
</svg>
