<svg width="846" height="223" viewBox="0 0 846 223" fill="none" xmlns="http://www.w3.org/2000/svg">
<path d="M43 35V104H48.1C55 104 58 100.7 58 90.5V48.5C58 38.3 55 35 48.1 35H43ZM43 218H0.7V4.4H50.5C76.6 4.4 100.3 14.9 100.3 47.6V91.4C100.3 124.1 76.6 134.6 50.5 134.6H43V218ZM154.035 218H111.735V4.4H161.535C187.635 4.4 211.335 14.9 211.335 47.6V66.5C211.335 82.4 204.135 99.8 178.635 101.3V101.9C205.335 103.4 211.335 113.6 211.335 137.9V180.2C211.335 200.9 215.235 209.6 217.635 218H174.735C171.735 212 169.035 205.1 169.035 190.4V141.8C169.035 128.6 169.035 118.1 154.035 118.1V218ZM154.035 35V93.5H159.135C166.035 93.5 169.035 90.2 169.035 80V48.5C169.035 38.3 166.035 35 159.135 35H154.035ZM222.77 183.2V39.2C222.77 10.7 246.47 0.199997 272.57 0.199997C298.67 0.199997 322.37 10.7 322.37 39.2V183.2C322.37 211.7 298.67 222.2 272.57 222.2C246.47 222.2 222.77 211.7 222.77 183.2ZM280.07 176.3V46.1C280.07 40.1 279.17 32 272.57 32C265.97 32 265.07 40.1 265.07 46.1V176.3C265.07 182.3 265.97 190.4 272.57 190.4C279.17 190.4 280.07 182.3 280.07 176.3ZM333.805 134H376.105V172.1C376.105 182 377.305 190.4 383.605 190.4C389.905 190.4 391.105 182 391.105 172.1V4.4H433.405V175.4C433.405 208.1 416.605 222.2 383.605 222.2C350.305 222.2 333.805 208.1 333.805 175.4V134ZM525.241 218H446.041V4.4H525.241V35H488.341V83.9H523.741V114.5H488.341V187.4H525.241V218ZM590.91 134H633.21V183.2C633.21 211.7 609.51 222.2 583.41 222.2C557.31 222.2 533.61 211.7 533.61 183.2V39.2C533.61 10.7 557.31 0.199997 583.41 0.199997C609.51 0.199997 633.21 10.7 633.21 39.2V79.7H590.91V46.1C590.91 40.1 590.01 32 583.41 32C576.81 32 575.91 40.1 575.91 46.1V176.3C575.91 182.3 576.81 190.4 583.41 190.4C590.01 190.4 590.91 182.3 590.91 176.3V134ZM710.045 35V218H667.745V35H639.245V4.4H738.545V35H710.045ZM843.548 80.6H801.248V46.1C801.248 40.1 800.348 32 793.748 32C787.148 32 786.248 40.1 786.248 46.1C787.448 105.8 845.048 86 845.048 164.6V183.2C845.048 211.7 821.348 222.2 795.248 222.2C769.148 222.2 745.448 211.7 745.448 183.2V134H787.748V176.3C787.748 182.3 788.648 190.4 795.248 190.4C801.848 190.4 802.748 182.3 802.748 176.3C801.848 107.6 743.948 115.1 743.948 65.9V39.2C743.948 10.7 767.648 0.199997 793.748 0.199997C819.848 0.199997 843.548 10.7 843.548 39.2V80.6Z" fill="white"/>
</svg>
