<svg width="60" height="60" viewBox="0 0 60 60" fill="none" xmlns="http://www.w3.org/2000/svg">
<rect x="0.5" y="0.5" width="59" height="59" rx="29.5" stroke="white"/>
<g clip-path="url(#clip0_161_4134)">
<path d="M31.8437 18.1875L32.7812 18.3958L33.5417 18.6667L34.1562 18.9792L34.625 19.3125L34.9792 19.6667L35.2396 20.0208L35.4062 20.3646L35.5104 20.6771L35.5521 20.9479L35.5729 21.1562L35.5625 21.2917V26.8542L35.5104 27.5104L35.375 28.0833L35.1562 28.5625L34.8854 28.9583L34.5729 29.2812L34.2292 29.5417L33.8646 29.7396L33.5 29.8854L33.1563 29.9896L32.8437 30.0625L32.5729 30.1042L32.3542 30.125H26.1354L25.4167 30.1771L24.8021 30.3229L24.2812 30.5521L23.8542 30.8333L23.5104 31.1667L23.2292 31.5312L23.0208 31.9062L22.8646 32.2917L22.7604 32.6562L22.6875 32.9896L22.6458 33.2708L22.625 33.4896V36.6771H20.3021L20.0833 36.6458L19.7917 36.5729L19.4583 36.4479L19.0937 36.2604L18.7187 35.9896L18.3437 35.6146L17.9792 35.1354L17.6458 34.5208L17.3542 33.7604L17.1354 32.8437L16.9896 31.75L16.9375 30.4687L17 29.1979L17.1667 28.1146L17.4167 27.2083L17.75 26.4687L18.125 25.875L18.5417 25.4167L18.9792 25.0729L19.4167 24.8229L19.8333 24.6562L20.2083 24.5521L20.5417 24.5L20.7917 24.4896H20.9583L21.0208 24.5H29.5208V23.6354H23.4375L23.4271 20.7708L23.4062 20.3854L23.4583 20.0312L23.5729 19.7083L23.75 19.4167L24.0104 19.1458L24.3333 18.9062L24.7292 18.6979L25.1875 18.5104L25.7187 18.3542L26.3229 18.2292L26.9896 18.125L27.7292 18.0625L28.5312 18.0208L29.4062 18L30.7292 18.0521L31.8437 18.1875ZM25.2812 20.25L25.0417 20.5937L24.9583 21.0208L25.0417 21.4479L25.2812 21.8021L25.625 22.0312L26.0521 22.125L26.4792 22.0312L26.8229 21.8021L27.0625 21.4479L27.1458 21.0208L27.0625 20.5937L26.8229 20.25L26.4792 20.0208L26.0521 19.9271L25.625 20.0208L25.2812 20.25ZM38.9167 24.3646L39.2083 24.4271L39.5417 24.5521L39.9062 24.7396L40.2812 25.0208L40.6562 25.3854L41.0208 25.875L41.3542 26.4896L41.6458 27.25L41.8646 28.1667L42.0104 29.25L42.0625 30.5312L42 31.8125L41.8333 32.8958L41.5833 33.7917L41.25 34.5312L40.875 35.125L40.4583 35.5937L40.0208 35.9375L39.5833 36.1875L39.1667 36.3542L38.7917 36.4479L38.4583 36.5L38.2083 36.5208L38.0417 36.5104H29.4792V37.3646H35.5625L35.5729 40.2396L35.5937 40.6146L35.5417 40.9687L35.4271 41.2917L35.25 41.5937L34.9896 41.8542L34.6667 42.1042L34.2708 42.3125L33.8125 42.4896L33.2812 42.6458L32.6771 42.7813L32.0104 42.875L31.2708 42.9479L30.4688 42.9896L29.5938 43L28.2708 42.9583L27.1563 42.8125L26.2188 42.6042L25.4583 42.3437L24.8437 42.0312L24.375 41.6875L24.0208 41.3333L23.7604 40.9792L23.5937 40.6354L23.4896 40.3229L23.4479 40.0625L23.4271 39.8542L23.4375 39.7187V34.1562L23.4896 33.4896L23.625 32.9271L23.8437 32.4479L24.1146 32.0521L24.4271 31.7187L24.7708 31.4687L25.1354 31.2604L25.5 31.1146L25.8437 31.0104L26.1563 30.9479L26.4271 30.9062L26.6458 30.8854L26.7813 30.875H32.8646L33.5833 30.8229L34.1979 30.6771L34.7187 30.4583L35.1458 30.1667L35.4896 29.8333L35.7708 29.4687L35.9792 29.0937L36.1354 28.7187L36.2396 28.3542L36.3125 28.0208L36.3542 27.7292L36.375 27.5104V24.3229H38.5521L38.6979 24.3333L38.9167 24.3646ZM32.1771 39.2083L31.9375 39.5521L31.8542 39.9792L31.9375 40.4062L32.1771 40.75L32.5208 40.9896L32.9479 41.0729L33.375 40.9896L33.7187 40.75L33.9583 40.4062L34.0417 39.9792L33.9583 39.5521L33.7187 39.2083L33.375 38.9687L32.9479 38.8854L32.5208 38.9687L32.1771 39.2083Z" fill="white"/>
</g>
<defs>
<clipPath id="clip0_161_4134">
<rect width="25" height="25" fill="white" transform="translate(17 18)"/>
</clipPath>
</defs>
</svg>
