<svg width="38" height="321" viewBox="0 0 38 321" fill="none" xmlns="http://www.w3.org/2000/svg">
<path d="M30.3 157.24C30.3 158.72 30.08 160.02 29.64 161.14C29.2 162.26 28.5 163.34 27.54 164.38C27.4 164.52 27.25 164.64 27.09 164.74C26.91 164.82 26.72 164.86 26.52 164.86C26.2 164.86 25.92 164.75 25.68 164.53C25.42 164.29 25.29 164 25.29 163.66C25.29 163.38 25.4 163.13 25.62 162.91C26.38 162.13 26.96 161.29 27.36 160.39C27.76 159.47 27.96 158.44 27.96 157.3C27.96 156.42 27.82 155.63 27.54 154.93C27.26 154.21 26.87 153.64 26.37 153.22C25.87 152.8 25.29 152.59 24.63 152.59C23.83 152.61 23.17 152.85 22.65 153.31C22.13 153.75 21.7 154.37 21.36 155.17C21 155.95 20.7 156.86 20.46 157.9C20.24 158.82 19.97 159.67 19.65 160.45C19.33 161.21 18.94 161.87 18.48 162.43C18 162.99 17.43 163.43 16.77 163.75C16.09 164.05 15.3 164.2 14.4 164.2C13.26 164.2 12.26 163.9 11.4 163.3C10.54 162.7 9.88 161.87 9.42 160.81C8.94 159.75 8.7 158.53 8.7 157.15C8.7 155.93 8.9 154.78 9.3 153.7C9.7 152.6 10.25 151.72 10.95 151.06C11.33 150.66 11.7 150.46 12.06 150.46C12.36 150.46 12.64 150.59 12.9 150.85C13.14 151.09 13.26 151.37 13.26 151.69C13.26 151.91 13.18 152.11 13.02 152.29C12.64 152.63 12.3 153.06 12 153.58C11.7 154.1 11.46 154.67 11.28 155.29C11.1 155.91 11.01 156.53 11.01 157.15C11.01 158.07 11.15 158.88 11.43 159.58C11.69 160.28 12.07 160.83 12.57 161.23C13.05 161.61 13.63 161.8 14.31 161.8C15.07 161.8 15.7 161.58 16.2 161.14C16.68 160.7 17.08 160.11 17.4 159.37C17.7 158.63 17.97 157.81 18.21 156.91C18.45 155.93 18.73 155.03 19.05 154.21C19.35 153.37 19.73 152.65 20.19 152.05C20.65 151.45 21.24 150.99 21.96 150.67C22.66 150.33 23.53 150.16 24.57 150.16C25.67 150.16 26.65 150.47 27.51 151.09C28.37 151.71 29.05 152.56 29.55 153.64C30.03 154.7 30.28 155.9 30.3 157.24ZM14.1 139.653C14.1 138.633 14.21 137.713 14.43 136.893C14.65 136.073 14.95 135.423 15.33 134.943C15.71 134.463 16.14 134.223 16.62 134.223C16.88 134.223 17.13 134.313 17.37 134.493C17.61 134.673 17.73 134.913 17.73 135.213C17.73 135.493 17.68 135.723 17.58 135.903C17.48 136.063 17.35 136.223 17.19 136.383C17.03 136.523 16.89 136.723 16.77 136.983C16.63 137.223 16.52 137.573 16.44 138.033C16.36 138.493 16.32 138.953 16.32 139.413C16.32 140.513 16.58 141.483 17.1 142.323C17.62 143.143 18.32 143.793 19.2 144.273C20.08 144.753 21.08 144.993 22.2 144.993C23.32 144.993 24.32 144.763 25.2 144.303C26.08 143.843 26.78 143.203 27.3 142.383C27.82 141.563 28.08 140.613 28.08 139.533C28.08 138.833 28.02 138.273 27.9 137.853C27.78 137.433 27.64 137.083 27.48 136.803C27.28 136.443 27.08 136.173 26.88 135.993C26.68 135.793 26.58 135.533 26.58 135.213C26.58 134.873 26.69 134.613 26.91 134.433C27.13 134.233 27.4 134.133 27.72 134.133C28.08 134.133 28.46 134.383 28.86 134.883C29.26 135.383 29.6 136.063 29.88 136.923C30.16 137.763 30.3 138.723 30.3 139.803C30.3 141.323 29.95 142.653 29.25 143.793C28.53 144.933 27.56 145.823 26.34 146.463C25.1 147.083 23.72 147.393 22.2 147.393C20.68 147.393 19.31 147.073 18.09 146.433C16.87 145.773 15.9 144.863 15.18 143.703C14.46 142.543 14.1 141.193 14.1 139.653ZM30 129.797C30 130.137 29.88 130.427 29.64 130.667C29.4 130.887 29.11 130.997 28.77 130.997H15.69C15.35 130.997 15.07 130.887 14.85 130.667C14.61 130.427 14.49 130.137 14.49 129.797C14.49 129.437 14.61 129.147 14.85 128.927C15.07 128.707 15.35 128.597 15.69 128.597H19.65L19.02 128.957C18.4 128.837 17.8 128.627 17.22 128.327C16.62 128.007 16.09 127.607 15.63 127.127C15.15 126.647 14.78 126.097 14.52 125.477C14.24 124.857 14.1 124.177 14.1 123.437C14.1 122.997 14.21 122.597 14.43 122.237C14.63 121.857 14.92 121.667 15.3 121.667C15.72 121.667 16.03 121.777 16.23 121.997C16.43 122.217 16.53 122.467 16.53 122.747C16.53 123.007 16.48 123.257 16.38 123.497C16.26 123.737 16.2 124.037 16.2 124.397C16.2 124.897 16.34 125.397 16.62 125.897C16.88 126.377 17.26 126.827 17.76 127.247C18.26 127.647 18.83 127.977 19.47 128.237C20.09 128.477 20.76 128.597 21.48 128.597H28.77C29.11 128.597 29.4 128.717 29.64 128.957C29.88 129.177 30 129.457 30 129.797ZM22.2 104.9C23.76 104.9 25.15 105.25 26.37 105.95C27.59 106.63 28.55 107.56 29.25 108.74C29.95 109.9 30.3 111.21 30.3 112.67C30.3 114.13 29.95 115.45 29.25 116.63C28.55 117.81 27.59 118.75 26.37 119.45C25.15 120.13 23.76 120.47 22.2 120.47C20.64 120.47 19.25 120.13 18.03 119.45C16.81 118.75 15.85 117.81 15.15 116.63C14.45 115.45 14.1 114.13 14.1 112.67C14.1 111.21 14.45 109.9 15.15 108.74C15.85 107.56 16.81 106.63 18.03 105.95C19.25 105.25 20.64 104.9 22.2 104.9ZM22.2 107.3C21.04 107.3 20.02 107.54 19.14 108.02C18.26 108.48 17.57 109.12 17.07 109.94C16.57 110.74 16.32 111.65 16.32 112.67C16.32 113.69 16.57 114.61 17.07 115.43C17.57 116.23 18.26 116.87 19.14 117.35C20.02 117.83 21.04 118.07 22.2 118.07C23.34 118.07 24.35 117.83 25.23 117.35C26.11 116.87 26.81 116.23 27.33 115.43C27.83 114.61 28.08 113.69 28.08 112.67C28.08 111.65 27.83 110.74 27.33 109.94C26.81 109.12 26.11 108.48 25.23 108.02C24.35 107.54 23.34 107.3 22.2 107.3ZM28.77 98.6498C29.11 98.6498 29.4 98.7698 29.64 99.0098C29.88 99.2498 30 99.5398 30 99.8798C30 100.22 29.88 100.5 29.64 100.72C29.4 100.94 29.11 101.05 28.77 101.05H9C8.66 101.05 8.38 100.94 8.16 100.72C7.92 100.48 7.8 100.19 7.8 99.8498C7.8 99.4898 7.92 99.1998 8.16 98.9798C8.38 98.7598 8.66 98.6498 9 98.6498H28.77ZM28.77 91.3548C29.11 91.3548 29.4 91.4748 29.64 91.7148C29.88 91.9548 30 92.2448 30 92.5848C30 92.9248 29.88 93.2048 29.64 93.4248C29.4 93.6448 29.11 93.7548 28.77 93.7548H9C8.66 93.7548 8.38 93.6448 8.16 93.4248C7.92 93.1848 7.8 92.8948 7.8 92.5548C7.8 92.1948 7.92 91.9048 8.16 91.6848C8.38 91.4648 8.66 91.3548 9 91.3548H28.77ZM9 69.3182C9 67.8582 9.28 66.5782 9.84 65.4782C10.38 64.3582 11.14 63.4282 12.12 62.6882C13.1 61.9482 14.23 61.3982 15.51 61.0382C16.77 60.6582 18.1 60.4682 19.5 60.4682C21.42 60.4682 23.18 60.7982 24.78 61.4582C26.36 62.1182 27.63 63.0982 28.59 64.3982C29.53 65.6982 30 67.3382 30 69.3182V76.8182C30 77.1582 29.88 77.4482 29.64 77.6882C29.4 77.9082 29.11 78.0182 28.77 78.0182H10.2C9.86 78.0182 9.58 77.9082 9.36 77.6882C9.12 77.4482 9 77.1582 9 76.8182V69.3182ZM27.66 69.6182C27.66 68.0782 27.29 66.8282 26.55 65.8682C25.81 64.8882 24.82 64.1782 23.58 63.7382C22.34 63.2782 20.98 63.0482 19.5 63.0482C18.42 63.0482 17.39 63.1782 16.41 63.4382C15.41 63.6782 14.53 64.0682 13.77 64.6082C13.01 65.1282 12.41 65.8082 11.97 66.6482C11.53 67.4682 11.31 68.4582 11.31 69.6182V75.7682L11.07 75.5282H27.96L27.66 75.7082V69.6182ZM22.2 41.9406C23.76 41.9406 25.15 42.2906 26.37 42.9906C27.59 43.6706 28.55 44.6006 29.25 45.7806C29.95 46.9406 30.3 48.2506 30.3 49.7106C30.3 51.1706 29.95 52.4906 29.25 53.6706C28.55 54.8506 27.59 55.7906 26.37 56.4906C25.15 57.1706 23.76 57.5106 22.2 57.5106C20.64 57.5106 19.25 57.1706 18.03 56.4906C16.81 55.7906 15.85 54.8506 15.15 53.6706C14.45 52.4906 14.1 51.1706 14.1 49.7106C14.1 48.2506 14.45 46.9406 15.15 45.7806C15.85 44.6006 16.81 43.6706 18.03 42.9906C19.25 42.2906 20.64 41.9406 22.2 41.9406ZM22.2 44.3406C21.04 44.3406 20.02 44.5806 19.14 45.0606C18.26 45.5206 17.57 46.1606 17.07 46.9806C16.57 47.7806 16.32 48.6906 16.32 49.7106C16.32 50.7306 16.57 51.6506 17.07 52.4706C17.57 53.2706 18.26 53.9106 19.14 54.3906C20.02 54.8706 21.04 55.1106 22.2 55.1106C23.34 55.1106 24.35 54.8706 25.23 54.3906C26.11 53.9106 26.81 53.2706 27.33 52.4706C27.83 51.6506 28.08 50.7306 28.08 49.7106C28.08 48.6906 27.83 47.7806 27.33 46.9806C26.81 46.1606 26.11 45.5206 25.23 45.0606C24.35 44.5806 23.34 44.3406 22.2 44.3406ZM14.22 20.0308C14.22 19.7108 14.33 19.4408 14.55 19.2208C14.77 18.9808 15.06 18.8608 15.42 18.8608C15.5 18.8608 15.59 18.8708 15.69 18.8908C15.77 18.8908 15.85 18.9108 15.93 18.9508L29.22 23.5708C29.48 23.6708 29.68 23.8408 29.82 24.0808C29.96 24.3008 30.02 24.5408 30 24.8008C29.98 25.2608 29.72 25.6108 29.22 25.8508L19.74 29.6308L19.83 29.0308L29.22 32.4508C29.72 32.6708 29.98 33.0208 30 33.5008C30.02 33.7608 29.96 34.0108 29.82 34.2508C29.68 34.4908 29.48 34.6508 29.22 34.7308L15.93 39.4408C15.75 39.5008 15.58 39.5308 15.42 39.5308C15.1 39.5308 14.82 39.4208 14.58 39.2008C14.34 38.9808 14.22 38.6808 14.22 38.3008C14.22 38.0608 14.28 37.8408 14.4 37.6408C14.52 37.4408 14.71 37.3008 14.97 37.2208L26.79 33.1708L26.76 33.8008L17.76 30.2908C17.26 30.0908 17.01 29.7208 17.01 29.1808C17.01 28.9008 17.08 28.6808 17.22 28.5208C17.34 28.3408 17.52 28.2108 17.76 28.1308L26.76 24.4708L26.82 25.2208L14.97 21.1708C14.47 20.9908 14.22 20.6108 14.22 20.0308ZM14.1 7.9157C14.1 6.5557 14.38 5.4857 14.94 4.7057C15.5 3.9257 16.25 3.3757 17.19 3.0557C18.13 2.7157 19.18 2.5457 20.34 2.5457H28.77C29.11 2.5457 29.4 2.6657 29.64 2.9057C29.88 3.1257 30 3.4057 30 3.7457C30 4.0857 29.88 4.3757 29.64 4.6157C29.4 4.8357 29.11 4.9457 28.77 4.9457H20.4C19.64 4.9457 18.96 5.0657 18.36 5.3057C17.74 5.5257 17.25 5.9057 16.89 6.4457C16.51 6.9657 16.32 7.6857 16.32 8.6057C16.32 9.4457 16.51 10.2157 16.89 10.9157C17.25 11.6157 17.74 12.1757 18.36 12.5957C18.96 13.0157 19.64 13.2257 20.4 13.2257H28.77C29.11 13.2257 29.4 13.3457 29.64 13.5857C29.88 13.8057 30 14.0857 30 14.4257C30 14.7657 29.88 15.0557 29.64 15.2957C29.4 15.5157 29.11 15.6257 28.77 15.6257H15.69C15.35 15.6257 15.07 15.5157 14.85 15.2957C14.61 15.0557 14.49 14.7657 14.49 14.4257C14.49 14.0657 14.61 13.7757 14.85 13.5557C15.07 13.3357 15.35 13.2257 15.69 13.2257H17.82L18.48 13.8257C17.96 13.7257 17.44 13.4957 16.92 13.1357C16.38 12.7757 15.9 12.3257 15.48 11.7857C15.06 11.2457 14.73 10.6457 14.49 9.9857C14.23 9.3257 14.1 8.6357 14.1 7.9157Z" fill="white"/>
<line x1="20.5" y1="321" x2="20.5" y2="179" stroke="white"/>
</svg>
