<svg width="24" height="321" viewBox="0 0 24 321" fill="none" xmlns="http://www.w3.org/2000/svg">
<path d="M23.3 157.24C23.3 158.72 23.08 160.02 22.64 161.14C22.2 162.26 21.5 163.34 20.54 164.38C20.4 164.52 20.25 164.64 20.09 164.74C19.91 164.82 19.72 164.86 19.52 164.86C19.2 164.86 18.92 164.75 18.68 164.53C18.42 164.29 18.29 164 18.29 163.66C18.29 163.38 18.4 163.13 18.62 162.91C19.38 162.13 19.96 161.29 20.36 160.39C20.76 159.47 20.96 158.44 20.96 157.3C20.96 156.42 20.82 155.63 20.54 154.93C20.26 154.21 19.87 153.64 19.37 153.22C18.87 152.8 18.29 152.59 17.63 152.59C16.83 152.61 16.17 152.85 15.65 153.31C15.13 153.75 14.7 154.37 14.36 155.17C14 155.95 13.7 156.86 13.46 157.9C13.24 158.82 12.97 159.67 12.65 160.45C12.33 161.21 11.94 161.87 11.48 162.43C11 162.99 10.43 163.43 9.77 163.75C9.09 164.05 8.3 164.2 7.4 164.2C6.26 164.2 5.26 163.9 4.4 163.3C3.54 162.7 2.88 161.87 2.42 160.81C1.94 159.75 1.7 158.53 1.7 157.15C1.7 155.93 1.9 154.78 2.3 153.7C2.7 152.6 3.25 151.72 3.95 151.06C4.33 150.66 4.7 150.46 5.06 150.46C5.36 150.46 5.64 150.59 5.9 150.85C6.14 151.09 6.26 151.37 6.26 151.69C6.26 151.91 6.18 152.11 6.02 152.29C5.64 152.63 5.3 153.06 5 153.58C4.7 154.1 4.46 154.67 4.28 155.29C4.1 155.91 4.01 156.53 4.01 157.15C4.01 158.07 4.15 158.88 4.43 159.58C4.69 160.28 5.07 160.83 5.57 161.23C6.05 161.61 6.63 161.8 7.31 161.8C8.07 161.8 8.7 161.58 9.2 161.14C9.68 160.7 10.08 160.11 10.4 159.37C10.7 158.63 10.97 157.81 11.21 156.91C11.45 155.93 11.73 155.03 12.05 154.21C12.35 153.37 12.73 152.65 13.19 152.05C13.65 151.45 14.24 150.99 14.96 150.67C15.66 150.33 16.53 150.16 17.57 150.16C18.67 150.16 19.65 150.47 20.51 151.09C21.37 151.71 22.05 152.56 22.55 153.64C23.03 154.7 23.28 155.9 23.3 157.24ZM7.1 139.653C7.1 138.633 7.21 137.713 7.43 136.893C7.65 136.073 7.95 135.423 8.33 134.943C8.71 134.463 9.14 134.223 9.62 134.223C9.88 134.223 10.13 134.313 10.37 134.493C10.61 134.673 10.73 134.913 10.73 135.213C10.73 135.493 10.68 135.723 10.58 135.903C10.48 136.063 10.35 136.223 10.19 136.383C10.03 136.523 9.89 136.723 9.77 136.983C9.63 137.223 9.52 137.573 9.44 138.033C9.36 138.493 9.32 138.953 9.32 139.413C9.32 140.513 9.58 141.483 10.1 142.323C10.62 143.143 11.32 143.793 12.2 144.273C13.08 144.753 14.08 144.993 15.2 144.993C16.32 144.993 17.32 144.763 18.2 144.303C19.08 143.843 19.78 143.203 20.3 142.383C20.82 141.563 21.08 140.613 21.08 139.533C21.08 138.833 21.02 138.273 20.9 137.853C20.78 137.433 20.64 137.083 20.48 136.803C20.28 136.443 20.08 136.173 19.88 135.993C19.68 135.793 19.58 135.533 19.58 135.213C19.58 134.873 19.69 134.613 19.91 134.433C20.13 134.233 20.4 134.133 20.72 134.133C21.08 134.133 21.46 134.383 21.86 134.883C22.26 135.383 22.6 136.063 22.88 136.923C23.16 137.763 23.3 138.723 23.3 139.803C23.3 141.323 22.95 142.653 22.25 143.793C21.53 144.933 20.56 145.823 19.34 146.463C18.1 147.083 16.72 147.393 15.2 147.393C13.68 147.393 12.31 147.073 11.09 146.433C9.87 145.773 8.9 144.863 8.18 143.703C7.46 142.543 7.1 141.193 7.1 139.653ZM23 129.797C23 130.137 22.88 130.427 22.64 130.667C22.4 130.887 22.11 130.997 21.77 130.997H8.69C8.35 130.997 8.07 130.887 7.85 130.667C7.61 130.427 7.49 130.137 7.49 129.797C7.49 129.437 7.61 129.147 7.85 128.927C8.07 128.707 8.35 128.597 8.69 128.597H12.65L12.02 128.957C11.4 128.837 10.8 128.627 10.22 128.327C9.62 128.007 9.09 127.607 8.63 127.127C8.15 126.647 7.78 126.097 7.52 125.477C7.24 124.857 7.1 124.177 7.1 123.437C7.1 122.997 7.21 122.597 7.43 122.237C7.63 121.857 7.92 121.667 8.3 121.667C8.72 121.667 9.03 121.777 9.23 121.997C9.43 122.217 9.53 122.467 9.53 122.747C9.53 123.007 9.48 123.257 9.38 123.497C9.26 123.737 9.2 124.037 9.2 124.397C9.2 124.897 9.34 125.397 9.62 125.897C9.88 126.377 10.26 126.827 10.76 127.247C11.26 127.647 11.83 127.977 12.47 128.237C13.09 128.477 13.76 128.597 14.48 128.597H21.77C22.11 128.597 22.4 128.717 22.64 128.957C22.88 129.177 23 129.457 23 129.797ZM15.2 104.9C16.76 104.9 18.15 105.25 19.37 105.95C20.59 106.63 21.55 107.56 22.25 108.74C22.95 109.9 23.3 111.21 23.3 112.67C23.3 114.13 22.95 115.45 22.25 116.63C21.55 117.81 20.59 118.75 19.37 119.45C18.15 120.13 16.76 120.47 15.2 120.47C13.64 120.47 12.25 120.13 11.03 119.45C9.81 118.75 8.85 117.81 8.15 116.63C7.45 115.45 7.1 114.13 7.1 112.67C7.1 111.21 7.45 109.9 8.15 108.74C8.85 107.56 9.81 106.63 11.03 105.95C12.25 105.25 13.64 104.9 15.2 104.9ZM15.2 107.3C14.04 107.3 13.02 107.54 12.14 108.02C11.26 108.48 10.57 109.12 10.07 109.94C9.57 110.74 9.32 111.65 9.32 112.67C9.32 113.69 9.57 114.61 10.07 115.43C10.57 116.23 11.26 116.87 12.14 117.35C13.02 117.83 14.04 118.07 15.2 118.07C16.34 118.07 17.35 117.83 18.23 117.35C19.11 116.87 19.81 116.23 20.33 115.43C20.83 114.61 21.08 113.69 21.08 112.67C21.08 111.65 20.83 110.74 20.33 109.94C19.81 109.12 19.11 108.48 18.23 108.02C17.35 107.54 16.34 107.3 15.2 107.3ZM21.77 98.6498C22.11 98.6498 22.4 98.7698 22.64 99.0098C22.88 99.2498 23 99.5398 23 99.8798C23 100.22 22.88 100.5 22.64 100.72C22.4 100.94 22.11 101.05 21.77 101.05H2C1.66 101.05 1.38 100.94 1.16 100.72C0.919999 100.48 0.8 100.19 0.8 99.8498C0.8 99.4898 0.919999 99.1998 1.16 98.9798C1.38 98.7598 1.66 98.6498 2 98.6498H21.77ZM21.77 91.3548C22.11 91.3548 22.4 91.4748 22.64 91.7148C22.88 91.9548 23 92.2448 23 92.5848C23 92.9248 22.88 93.2048 22.64 93.4248C22.4 93.6448 22.11 93.7548 21.77 93.7548H2C1.66 93.7548 1.38 93.6448 1.16 93.4248C0.919999 93.1848 0.8 92.8948 0.8 92.5548C0.8 92.1948 0.919999 91.9048 1.16 91.6848C1.38 91.4648 1.66 91.3548 2 91.3548H21.77ZM2 69.3182C2 67.8582 2.28 66.5782 2.84 65.4782C3.38 64.3582 4.14 63.4282 5.12 62.6882C6.1 61.9482 7.23 61.3982 8.51 61.0382C9.77 60.6582 11.1 60.4682 12.5 60.4682C14.42 60.4682 16.18 60.7982 17.78 61.4582C19.36 62.1182 20.63 63.0982 21.59 64.3982C22.53 65.6982 23 67.3382 23 69.3182V76.8182C23 77.1582 22.88 77.4482 22.64 77.6882C22.4 77.9082 22.11 78.0182 21.77 78.0182H3.2C2.86 78.0182 2.58 77.9082 2.36 77.6882C2.12 77.4482 2 77.1582 2 76.8182V69.3182ZM20.66 69.6182C20.66 68.0782 20.29 66.8282 19.55 65.8682C18.81 64.8882 17.82 64.1782 16.58 63.7382C15.34 63.2782 13.98 63.0482 12.5 63.0482C11.42 63.0482 10.39 63.1782 9.41 63.4382C8.41 63.6782 7.53 64.0682 6.77 64.6082C6.01 65.1282 5.41 65.8082 4.97 66.6482C4.53 67.4682 4.31 68.4582 4.31 69.6182V75.7682L4.07 75.5282H20.96L20.66 75.7082V69.6182ZM15.2 41.9406C16.76 41.9406 18.15 42.2906 19.37 42.9906C20.59 43.6706 21.55 44.6006 22.25 45.7806C22.95 46.9406 23.3 48.2506 23.3 49.7106C23.3 51.1706 22.95 52.4906 22.25 53.6706C21.55 54.8506 20.59 55.7906 19.37 56.4906C18.15 57.1706 16.76 57.5106 15.2 57.5106C13.64 57.5106 12.25 57.1706 11.03 56.4906C9.81 55.7906 8.85 54.8506 8.15 53.6706C7.45 52.4906 7.1 51.1706 7.1 49.7106C7.1 48.2506 7.45 46.9406 8.15 45.7806C8.85 44.6006 9.81 43.6706 11.03 42.9906C12.25 42.2906 13.64 41.9406 15.2 41.9406ZM15.2 44.3406C14.04 44.3406 13.02 44.5806 12.14 45.0606C11.26 45.5206 10.57 46.1606 10.07 46.9806C9.57 47.7806 9.32 48.6906 9.32 49.7106C9.32 50.7306 9.57 51.6506 10.07 52.4706C10.57 53.2706 11.26 53.9106 12.14 54.3906C13.02 54.8706 14.04 55.1106 15.2 55.1106C16.34 55.1106 17.35 54.8706 18.23 54.3906C19.11 53.9106 19.81 53.2706 20.33 52.4706C20.83 51.6506 21.08 50.7306 21.08 49.7106C21.08 48.6906 20.83 47.7806 20.33 46.9806C19.81 46.1606 19.11 45.5206 18.23 45.0606C17.35 44.5806 16.34 44.3406 15.2 44.3406ZM7.22 20.0308C7.22 19.7108 7.33 19.4408 7.55 19.2208C7.77 18.9808 8.06 18.8608 8.42 18.8608C8.5 18.8608 8.59 18.8708 8.69 18.8908C8.77 18.8908 8.85 18.9108 8.93 18.9508L22.22 23.5708C22.48 23.6708 22.68 23.8408 22.82 24.0808C22.96 24.3008 23.02 24.5408 23 24.8008C22.98 25.2608 22.72 25.6108 22.22 25.8508L12.74 29.6308L12.83 29.0308L22.22 32.4508C22.72 32.6708 22.98 33.0208 23 33.5008C23.02 33.7608 22.96 34.0108 22.82 34.2508C22.68 34.4908 22.48 34.6508 22.22 34.7308L8.93 39.4408C8.75 39.5008 8.58 39.5308 8.42 39.5308C8.1 39.5308 7.82 39.4208 7.58 39.2008C7.34 38.9808 7.22 38.6808 7.22 38.3008C7.22 38.0608 7.28 37.8408 7.4 37.6408C7.52 37.4408 7.71 37.3008 7.97 37.2208L19.79 33.1708L19.76 33.8008L10.76 30.2908C10.26 30.0908 10.01 29.7208 10.01 29.1808C10.01 28.9008 10.08 28.6808 10.22 28.5208C10.34 28.3408 10.52 28.2108 10.76 28.1308L19.76 24.4708L19.82 25.2208L7.97 21.1708C7.47 20.9908 7.22 20.6108 7.22 20.0308ZM7.1 7.9157C7.1 6.5557 7.38 5.4857 7.94 4.7057C8.5 3.9257 9.25 3.3757 10.19 3.0557C11.13 2.7157 12.18 2.5457 13.34 2.5457H21.77C22.11 2.5457 22.4 2.6657 22.64 2.9057C22.88 3.1257 23 3.4057 23 3.7457C23 4.0857 22.88 4.3757 22.64 4.6157C22.4 4.8357 22.11 4.9457 21.77 4.9457H13.4C12.64 4.9457 11.96 5.0657 11.36 5.3057C10.74 5.5257 10.25 5.9057 9.89 6.4457C9.51 6.9657 9.32 7.6857 9.32 8.6057C9.32 9.4457 9.51 10.2157 9.89 10.9157C10.25 11.6157 10.74 12.1757 11.36 12.5957C11.96 13.0157 12.64 13.2257 13.4 13.2257H21.77C22.11 13.2257 22.4 13.3457 22.64 13.5857C22.88 13.8057 23 14.0857 23 14.4257C23 14.7657 22.88 15.0557 22.64 15.2957C22.4 15.5157 22.11 15.6257 21.77 15.6257H8.69C8.35 15.6257 8.07 15.5157 7.85 15.2957C7.61 15.0557 7.49 14.7657 7.49 14.4257C7.49 14.0657 7.61 13.7757 7.85 13.5557C8.07 13.3357 8.35 13.2257 8.69 13.2257H10.82L11.48 13.8257C10.96 13.7257 10.44 13.4957 9.92 13.1357C9.38 12.7757 8.9 12.3257 8.48 11.7857C8.06 11.2457 7.73 10.6457 7.49 9.9857C7.23 9.3257 7.1 8.6357 7.1 7.9157Z" fill="black"/>
<path d="M13.5 321L13.5 179" stroke="black" stroke-width="2"/>
</svg>
