<svg width="645" height="150" viewBox="0 0 645 150" fill="none" xmlns="http://www.w3.org/2000/svg">
<g clip-path="url(#clip0_169_4125)">
<rect width="645" height="150" fill="#222222"/>
<g filter="url(#filter0_d_169_4125)">
<path d="M66.8 55.4H38.6V32.4C38.6 28.4 38 23 33.6 23C29.2 23 28.6 28.4 28.6 32.4C29.4 72.2 67.8 59 67.8 111.4V123.8C67.8 142.8 52 149.8 34.6 149.8C17.2 149.8 1.4 142.8 1.4 123.8V91H29.6V119.2C29.6 123.2 30.2 128.6 34.6 128.6C39 128.6 39.6 123.2 39.6 119.2C39 73.4 0.4 78.4 0.4 45.6V27.8C0.4 8.79999 16.2 1.8 33.6 1.8C51 1.8 66.8 8.79999 66.8 27.8V55.4ZM118.423 25V147H90.2234V25H71.2234V4.6H137.423V25H118.423ZM169.625 147H141.425V4.6H174.625C192.025 4.6 207.825 11.6 207.825 33.4V46C207.825 56.6 203.025 68.2 186.025 69.2V69.6C203.825 70.6 207.825 77.4 207.825 93.6V121.8C207.825 135.6 210.425 141.4 212.025 147H183.425C181.425 143 179.625 138.4 179.625 128.6V96.2C179.625 87.4 179.625 80.4 169.625 80.4V147ZM169.625 25V64H173.025C177.625 64 179.625 61.8 179.625 55V34C179.625 27.2 177.625 25 173.025 25H169.625ZM215.448 123.8V27.8C215.448 8.79999 231.248 1.8 248.648 1.8C266.048 1.8 281.848 8.79999 281.848 27.8V123.8C281.848 142.8 266.048 149.8 248.648 149.8C231.248 149.8 215.448 142.8 215.448 123.8ZM253.648 119.2V32.4C253.648 28.4 253.048 23 248.648 23C244.248 23 243.648 28.4 243.648 32.4V119.2C243.648 123.2 244.248 128.6 248.648 128.6C253.048 128.6 253.648 123.2 253.648 119.2ZM312.272 147H290.272V4.6H329.472L343.872 97H344.272V4.6H366.272V147H332.672L312.672 35L312.272 35.4V147ZM427.428 147L425.428 136.8H425.028C421.228 145.2 411.628 149.8 403.028 149.8C384.228 149.8 374.628 139.2 374.628 123.8V27.8C374.628 8.79999 390.428 1.8 407.828 1.8C425.228 1.8 441.028 8.79999 441.028 27.8V54.8H412.828V32.4C412.828 28.4 412.228 23 407.828 23C403.428 23 402.828 28.4 402.828 32.4V119.2C402.828 123.2 403.428 128.6 407.828 128.6C412.228 128.6 412.828 123.2 412.828 119.2V94.8H405.828V74.4H441.028V147H427.428ZM514.652 55.4H486.452V32.4C486.452 28.4 485.852 23 481.452 23C477.052 23 476.452 28.4 476.452 32.4C477.252 72.2 515.652 59 515.652 111.4V123.8C515.652 142.8 499.852 149.8 482.452 149.8C465.052 149.8 449.252 142.8 449.252 123.8V91H477.452V119.2C477.452 123.2 478.052 128.6 482.452 128.6C486.852 128.6 487.452 123.2 487.452 119.2C486.852 73.4 448.252 78.4 448.252 45.6V27.8C448.252 8.79999 464.052 1.8 481.452 1.8C498.852 1.8 514.652 8.79999 514.652 27.8V55.4ZM576.275 147H523.475V4.6H576.275V25H551.675V57.6H575.275V78H551.675V126.6H576.275V147ZM625.455 25V147H597.255V25H578.255V4.6H644.455V25H625.455Z" fill="white"/>
</g>
</g>
<defs>
<filter id="filter0_d_169_4125" x="-99.5996" y="-94.2" width="844.055" height="348" filterUnits="userSpaceOnUse" color-interpolation-filters="sRGB">
<feFlood flood-opacity="0" result="BackgroundImageFix"/>
<feColorMatrix in="SourceAlpha" type="matrix" values="0 0 0 0 0 0 0 0 0 0 0 0 0 0 0 0 0 0 127 0" result="hardAlpha"/>
<feOffset dy="4"/>
<feGaussianBlur stdDeviation="50"/>
<feComposite in2="hardAlpha" operator="out"/>
<feColorMatrix type="matrix" values="0 0 0 0 0 0 0 0 0 0 0 0 0 0 0 0 0 0 0.25 0"/>
<feBlend mode="normal" in2="BackgroundImageFix" result="effect1_dropShadow_169_4125"/>
<feBlend mode="normal" in="SourceGraphic" in2="effect1_dropShadow_169_4125" result="shape"/>
</filter>
<clipPath id="clip0_169_4125">
<rect width="645" height="150" fill="white"/>
</clipPath>
</defs>
</svg>
